Noto Serif Khmer-Regular.ufo
<glyph name="exclam" format="2">
	<advance width="682"/>
	<unicode hex="0021"/>
	<note>
		exclam
  </note>
	<outline>
		<contour>
			<point x="211" y="125" type="qcurve"/>
			<point x="211" y="125" type="line"/>
			<point x="211" y="125" type="line"/>
			<point x="211" y="125" type="line"/>
			<point x="211" y="125" type="line"/>
			<point x="211" y="86"/>
			<point x="231" y="32"/>
			<point x="266" y="0"/>
			<point x="313" y="-14"/>
			<point x="340" y="-14" type="qcurve" smooth="yes"/>
			<point x="366" y="-14"/>
			<point x="413" y="0"/>
			<point x="448" y="32"/>
			<point x="469" y="86"/>
			<point x="469" y="125" type="qcurve" smooth="yes"/>
			<point x="469" y="165"/>
			<point x="448" y="218"/>
			<point x="413" y="250"/>
			<point x="366" y="264"/>
			<point x="340" y="264" type="qcurve" smooth="yes"/>
			<point x="313" y="264"/>
			<point x="266" y="250"/>
			<point x="231" y="218"/>
			<point x="211" y="165"/>
		</contour>
		<contour>
			<point x="221" y="1462" type="line"/>
			<point x="221" y="1462" type="line"/>
			<point x="293" y="412" type="line"/>
			<point x="387" y="412" type="line"/>
			<point x="459" y="1462" type="line"/>
		</contour>
	</outline>
</glyph>
<glyph name="quotedbl" format="2">
	<advance width="836"/>
	<unicode hex="0022"/>
	<note>
		quotedbl
  </note>
	<outline>
		<contour>
			<point x="117" y="1462" type="line"/>
			<point x="117" y="1462" type="line"/>
			<point x="178" y="981" type="line"/>
			<point x="272" y="981" type="line"/>
			<point x="334" y="1462" type="line"/>
		</contour>
		<contour>
			<point x="502" y="1462" type="line"/>
			<point x="502" y="1462" type="line"/>
			<point x="563" y="981" type="line"/>
			<point x="657" y="981" type="line"/>
			<point x="719" y="1462" type="line"/>
		</contour>
	</outline>
</glyph>
<glyph name="numbersign" format="2">
	<advance width="1145"/>
	<unicode hex="0023"/>
	<note>
		numbersign
  </note>
	<outline>
		<contour>
			<point x="1028" y="537" type="line"/>
			<point x="1028" y="537" type="line"/>
			<point x="795" y="537" type="line"/>
			<point x="870" y="938" type="line"/>
			<point x="1094" y="938" type="line"/>
			<point x="1094" y="1059" type="line"/>
			<point x="893" y="1059" type="line"/>
			<point x="969" y="1462" type="line"/>
			<point x="846" y="1462" type="line"/>
			<point x="770" y="1059" type="line"/>
			<point x="485" y="1059" type="line"/>
			<point x="561" y="1462" type="line"/>
			<point x="436" y="1462" type="line"/>
			<point x="362" y="1059" type="line"/>
			<point x="117" y="1059" type="line"/>
			<point x="117" y="938" type="line"/>
			<point x="340" y="938" type="line"/>
			<point x="262" y="537" type="line"/>
			<point x="51" y="537" type="line"/>
			<point x="51" y="416" type="line"/>
			<point x="240" y="416" type="line"/>
			<point x="162" y="0" type="line"/>
			<point x="285" y="0" type="line"/>
			<point x="362" y="416" type="line"/>
			<point x="647" y="416" type="line"/>
			<point x="569" y="0" type="line"/>
			<point x="692" y="0" type="line"/>
			<point x="770" y="416" type="line"/>
			<point x="1028" y="416" type="line"/>
		</contour>
		<contour>
			<point x="387" y="537" type="line"/>
			<point x="387" y="537" type="line"/>
			<point x="463" y="938" type="line"/>
			<point x="748" y="938" type="line"/>
			<point x="672" y="537" type="line"/>
		</contour>
	</outline>
</glyph>
<glyph name="dollar" format="2">
	<advance width="1145"/>
	<unicode hex="0024"/>
	<note>
		dollar
  </note>
	<outline>
		<contour>
			<point x="621" y="1401" type="qcurve"/>
			<point x="621" y="1401" type="line"/>
			<point x="621" y="1401" type="line"/>
			<point x="621" y="1401" type="line"/>
			<point x="621" y="1401" type="line"/>
			<point x="621" y="1556" type="line"/>
			<point x="518" y="1556" type="line"/>
			<point x="518" y="1397" type="line"/>
			<point x="438" y="1388"/>
			<point x="309" y="1337"/>
			<point x="219" y="1254"/>
			<point x="170" y="1142"/>
			<point x="170" y="1073" type="qcurve" smooth="yes"/>
			<point x="170" y="1006"/>
			<point x="207" y="898"/>
			<point x="289" y="805"/>
			<point x="422" y="721"/>
			<point x="518" y="678" type="qcurve"/>
			<point x="518" y="172" type="line"/>
			<point x="452" y="177"/>
			<point x="343" y="232"/>
			<point x="264" y="317"/>
			<point x="221" y="424"/>
			<point x="221" y="481" type="qcurve"/>
			<point x="135" y="481" type="line"/>
			<point x="135" y="166" type="line"/>
			<point x="173" y="144"/>
			<point x="264" y="112"/>
			<point x="363" y="91"/>
			<point x="467" y="82"/>
			<point x="518" y="82" type="qcurve"/>
			<point x="518" y="-162" type="line"/>
			<point x="621" y="-162" type="line"/>
			<point x="621" y="86" type="line"/>
			<point x="803" y="105"/>
			<point x="1001" y="276"/>
			<point x="1001" y="430" type="qcurve" smooth="yes"/>
			<point x="1001" y="503"/>
			<point x="951" y="616"/>
			<point x="855" y="709"/>
			<point x="713" y="789"/>
			<point x="621" y="829" type="qcurve"/>
			<point x="621" y="1307" type="line"/>
			<point x="675" y="1301"/>
			<point x="745" y="1249"/>
			<point x="784" y="1174"/>
			<point x="799" y="1083"/>
			<point x="799" y="1038" type="qcurve"/>
			<point x="873" y="1038"/>
			<point x="961" y="1105"/>
			<point x="961" y="1171" type="qcurve" smooth="yes"/>
			<point x="961" y="1219"/>
			<point x="924" y="1301"/>
			<point x="842" y="1362"/>
			<point x="713" y="1399"/>
		</contour>
		<contour>
			<point x="813" y="399" type="qcurve"/>
			<point x="813" y="399" type="line"/>
			<point x="813" y="399" type="line"/>
			<point x="813" y="399" type="line"/>
			<point x="813" y="399" type="line"/>
			<point x="813" y="311"/>
			<point x="713" y="194"/>
			<point x="621" y="178" type="qcurve"/>
			<point x="621" y="633" type="line"/>
			<point x="674" y="609"/>
			<point x="747" y="561"/>
			<point x="793" y="505"/>
			<point x="813" y="440"/>
		</contour>
		<contour>
			<point x="354" y="1090" type="qcurve"/>
			<point x="354" y="1090" type="line"/>
			<point x="354" y="1090" type="line"/>
			<point x="354" y="1090" type="line"/>
			<point x="354" y="1090" type="line"/>
			<point x="354" y="1130"/>
			<point x="375" y="1200"/>
			<point x="416" y="1255"/>
			<point x="478" y="1294"/>
			<point x="518" y="1303" type="qcurve"/>
			<point x="518" y="874" type="line"/>
			<point x="478" y="892"/>
			<point x="417" y="932"/>
			<point x="375" y="982"/>
			<point x="354" y="1047"/>
		</contour>
	</outline>
</glyph>
<glyph name="percent" format="2">
	<advance width="1835"/>
	<unicode hex="0025"/>
	<note>
		percent
  </note>
	<outline>
		<contour>
			<point x="764" y="1030" type="qcurve"/>
			<point x="764" y="1030" type="line"/>
			<point x="764" y="1030" type="line"/>
			<point x="764" y="1030" type="line"/>
			<point x="764" y="1030" type="line"/>
			<point x="764" y="1133"/>
			<point x="722" y="1300"/>
			<point x="639" y="1419"/>
			<point x="514" y="1483"/>
			<point x="430" y="1483" type="qcurve" smooth="yes"/>
			<point x="341" y="1483"/>
			<point x="213" y="1419"/>
			<point x="131" y="1300"/>
			<point x="92" y="1133"/>
			<point x="92" y="1030" type="qcurve" smooth="yes"/>
			<point x="92" y="927"/>
			<point x="131" y="759"/>
			<point x="213" y="639"/>
			<point x="340" y="573"/>
			<point x="428" y="573" type="qcurve" smooth="yes"/>
			<point x="512" y="573"/>
			<point x="638" y="639"/>
			<point x="722" y="759"/>
			<point x="764" y="927"/>
		</contour>
		<contour>
			<point x="276" y="1030" type="qcurve"/>
			<point x="276" y="1030" type="line"/>
			<point x="276" y="1030" type="line"/>
			<point x="276" y="1030" type="line"/>
			<point x="276" y="1030" type="line"/>
			<point x="276" y="1117"/>
			<point x="292" y="1253"/>
			<point x="329" y="1348"/>
			<point x="388" y="1397"/>
			<point x="430" y="1397" type="qcurve" smooth="yes"/>
			<point x="472" y="1397"/>
			<point x="528" y="1348"/>
			<point x="563" y="1253"/>
			<point x="578" y="1117"/>
			<point x="578" y="1030" type="qcurve" smooth="yes"/>
			<point x="578" y="942"/>
			<point x="563" y="803"/>
			<point x="528" y="707"/>
			<point x="470" y="657"/>
			<point x="428" y="657" type="qcurve" smooth="yes"/>
			<point x="386" y="657"/>
			<point x="328" y="707"/>
			<point x="292" y="803"/>
			<point x="276" y="942"/>
		</contour>
		<contour>
			<point x="1743" y="436" type="qcurve"/>
			<point x="1743" y="436" type="line"/>
			<point x="1743" y="436" type="line"/>
			<point x="1743" y="436" type="line"/>
			<point x="1743" y="436" type="line"/>
			<point x="1743" y="539"/>
			<point x="1701" y="706"/>
			<point x="1618" y="825"/>
			<point x="1493" y="889"/>
			<point x="1409" y="889" type="qcurve" smooth="yes"/>
			<point x="1320" y="889"/>
			<point x="1192" y="825"/>
			<point x="1110" y="706"/>
			<point x="1071" y="539"/>
			<point x="1071" y="436" type="qcurve" smooth="yes"/>
			<point x="1071" y="333"/>
			<point x="1110" y="165"/>
			<point x="1191" y="45"/>
			<point x="1319" y="-20"/>
			<point x="1407" y="-20" type="qcurve" smooth="yes"/>
			<point x="1491" y="-20"/>
			<point x="1617" y="45"/>
			<point x="1701" y="165"/>
			<point x="1743" y="333"/>
		</contour>
		<contour>
			<point x="1255" y="436" type="qcurve"/>
			<point x="1255" y="436" type="line"/>
			<point x="1255" y="436" type="line"/>
			<point x="1255" y="436" type="line"/>
			<point x="1255" y="436" type="line"/>
			<point x="1255" y="523"/>
			<point x="1271" y="659"/>
			<point x="1308" y="754"/>
			<point x="1367" y="803"/>
			<point x="1409" y="803" type="qcurve" smooth="yes"/>
			<point x="1451" y="803"/>
			<point x="1507" y="754"/>
			<point x="1541" y="659"/>
			<point x="1556" y="523"/>
			<point x="1556" y="436" type="qcurve" smooth="yes"/>
			<point x="1556" y="348"/>
			<point x="1541" y="209"/>
			<point x="1507" y="113"/>
			<point x="1449" y="63"/>
			<point x="1407" y="63" type="qcurve" smooth="yes"/>
			<point x="1365" y="63"/>
			<point x="1307" y="113"/>
			<point x="1271" y="209"/>
			<point x="1255" y="348"/>
		</contour>
		<contour>
			<point x="616" y="0" type="line"/>
			<point x="616" y="0" type="line"/>
			<point x="1346" y="1462" type="line"/>
			<point x="1212" y="1462" type="line"/>
			<point x="481" y="0" type="line"/>
		</contour>
	</outline>
</glyph>
<glyph name="quotesingle" format="2">
	<advance width="451"/>
	<unicode hex="0027"/>
	<note>
		quotesingle
  </note>
	<outline>
		<contour>
			<point x="117" y="1462" type="line"/>
			<point x="117" y="1462" type="line"/>
			<point x="178" y="981" type="line"/>
			<point x="272" y="981" type="line"/>
			<point x="334" y="1462" type="line"/>
		</contour>
	</outline>
</glyph>
<glyph name="parenleft" format="2">
	<advance width="709"/>
	<unicode hex="0028"/>
	<note>
		parenleft
  </note>
	<outline>
		<contour>
			<point x="330" y="649" type="qcurve"/>
			<point x="330" y="649" type="line"/>
			<point x="330" y="649" type="line"/>
			<point x="330" y="649" type="line"/>
			<point x="330" y="649" type="line"/>
			<point x="330" y="771"/>
			<point x="349" y="1009"/>
			<point x="413" y="1221"/>
			<point x="538" y="1400"/>
			<point x="643" y="1464" type="qcurve"/>
			<point x="643" y="1556" type="line"/>
			<point x="502" y="1500"/>
			<point x="302" y="1341"/>
			<point x="175" y="1121"/>
			<point x="117" y="834"/>
			<point x="117" y="649" type="qcurve" smooth="yes"/>
			<point x="117" y="464"/>
			<point x="175" y="175"/>
			<point x="302" y="-46"/>
			<point x="502" y="-206"/>
			<point x="643" y="-262" type="qcurve"/>
			<point x="643" y="-168" type="line"/>
			<point x="538" y="-104"/>
			<point x="413" y="76"/>
			<point x="349" y="289"/>
			<point x="330" y="527"/>
		</contour>
	</outline>
</glyph>
<glyph name="parenright" format="2">
	<advance width="709"/>
	<unicode hex="0029"/>
	<note>
		parenright
  </note>
	<outline>
		<contour>
			<point x="379" y="649" type="qcurve"/>
			<point x="379" y="649" type="line"/>
			<point x="379" y="649" type="line"/>
			<point x="379" y="649" type="line"/>
			<point x="379" y="649" type="line"/>
			<point x="379" y="527"/>
			<point x="360" y="289"/>
			<point x="295" y="76"/>
			<point x="171" y="-104"/>
			<point x="66" y="-168" type="qcurve"/>
			<point x="66" y="-262" type="line"/>
			<point x="207" y="-206"/>
			<point x="407" y="-46"/>
			<point x="533" y="175"/>
			<point x="592" y="464"/>
			<point x="592" y="649" type="qcurve" smooth="yes"/>
			<point x="592" y="834"/>
			<point x="533" y="1121"/>
			<point x="407" y="1341"/>
			<point x="207" y="1500"/>
			<point x="66" y="1556" type="qcurve"/>
			<point x="66" y="1464" type="line"/>
			<point x="171" y="1400"/>
			<point x="295" y="1221"/>
			<point x="360" y="1009"/>
			<point x="379" y="771"/>
		</contour>
	</outline>
</glyph>
<glyph name="plus" format="2">
	<advance width="1145"/>
	<unicode hex="002B"/>
	<note>
		plus
  </note>
	<outline>
		<contour>
			<point x="633" y="672" type="line"/>
			<point x="633" y="672" type="line"/>
			<point x="1012" y="672" type="line"/>
			<point x="1012" y="793" type="line"/>
			<point x="633" y="793" type="line"/>
			<point x="633" y="1171" type="line"/>
			<point x="510" y="1171" type="line"/>
			<point x="510" y="793" type="line"/>
			<point x="133" y="793" type="line"/>
			<point x="133" y="672" type="line"/>
			<point x="510" y="672" type="line"/>
			<point x="510" y="293" type="line"/>
			<point x="633" y="293" type="line"/>
		</contour>
	</outline>
</glyph>
<glyph name="hyphen" format="2">
	<advance width="635"/>
	<unicode hex="002D"/>
	<note>
		hyphen
  </note>
	<outline>
		<contour>
			<point x="51" y="481" type="line"/>
			<point x="51" y="481" type="line"/>
			<point x="584" y="481" type="line"/>
			<point x="584" y="635" type="line"/>
			<point x="51" y="635" type="line"/>
		</contour>
	</outline>
</glyph>
<glyph name="slash" format="2">
	<advance width="590"/>
	<unicode hex="002F"/>
	<note>
		slash
  </note>
	<outline>
		<contour>
			<point x="121" y="-248" type="line"/>
			<point x="121" y="-248" type="line"/>
			<point x="590" y="1556" type="line"/>
			<point x="471" y="1556" type="line"/>
			<point x="0" y="-248" type="line"/>
		</contour>
	</outline>
</glyph>
<glyph name="zero" format="2">
	<advance width="1145"/>
	<unicode hex="0030"/>
	<note>
		zero
  </note>
	<outline>
		<contour>
			<point x="1053" y="733" type="qcurve"/>
			<point x="1053" y="733" type="line"/>
			<point x="1053" y="733" type="line"/>
			<point x="1053" y="733" type="line"/>
			<point x="1053" y="733" type="line"/>
			<point x="1053" y="904"/>
			<point x="994" y="1181"/>
			<point x="874" y="1377"/>
			<point x="695" y="1483"/>
			<point x="575" y="1483" type="qcurve" smooth="yes"/>
			<point x="448" y="1483"/>
			<point x="265" y="1377"/>
			<point x="148" y="1181"/>
			<point x="92" y="905"/>
			<point x="92" y="735" type="qcurve" smooth="yes"/>
			<point x="92" y="565"/>
			<point x="148" y="286"/>
			<point x="265" y="88"/>
			<point x="447" y="-20"/>
			<point x="573" y="-20" type="qcurve" smooth="yes"/>
			<point x="694" y="-20"/>
			<point x="874" y="88"/>
			<point x="994" y="286"/>
			<point x="1053" y="564"/>
		</contour>
		<contour>
			<point x="305" y="733" type="qcurve"/>
			<point x="305" y="733" type="line"/>
			<point x="305" y="733" type="line"/>
			<point x="305" y="733" type="line"/>
			<point x="305" y="733" type="line"/>
			<point x="305" y="885"/>
			<point x="333" y="1123"/>
			<point x="397" y="1287"/>
			<point x="500" y="1372"/>
			<point x="575" y="1372" type="qcurve" smooth="yes"/>
			<point x="649" y="1372"/>
			<point x="750" y="1287"/>
			<point x="813" y="1123"/>
			<point x="840" y="885"/>
			<point x="840" y="733" type="qcurve" smooth="yes"/>
			<point x="840" y="581"/>
			<point x="813" y="342"/>
			<point x="750" y="177"/>
			<point x="648" y="90"/>
			<point x="573" y="90" type="qcurve" smooth="yes"/>
			<point x="499" y="90"/>
			<point x="396" y="177"/>
			<point x="333" y="342"/>
			<point x="305" y="581"/>
		</contour>
	</outline>
</glyph>
<glyph name="one" format="2">
	<advance width="1145"/>
	<unicode hex="0031"/>
	<note>
		one
  </note>
	<outline>
		<contour>
			<point x="197" y="0" type="line"/>
			<point x="197" y="0" type="line"/>
			<point x="197" y="0" type="line"/>
			<point x="197" y="0" type="line"/>
			<point x="197" y="0" type="line"/>
			<point x="977" y="0" type="line"/>
			<point x="977" y="86" type="line"/>
			<point x="877" y="86" type="line" smooth="yes"/>
			<point x="842" y="86"/>
			<point x="781" y="96"/>
			<point x="735" y="127"/>
			<point x="709" y="185"/>
			<point x="709" y="233" type="qcurve" smooth="yes"/>
			<point x="709" y="1470" type="line"/>
			<point x="578" y="1470" type="line"/>
			<point x="434" y="1364" type="line" smooth="yes"/>
			<point x="383" y="1327"/>
			<point x="300" y="1274"/>
			<point x="229" y="1237"/>
			<point x="166" y="1214"/>
			<point x="135" y="1206" type="qcurve"/>
			<point x="135" y="1157"/>
			<point x="193" y="1096"/>
			<point x="238" y="1096" type="qcurve" smooth="yes"/>
			<point x="268" y="1096"/>
			<point x="329" y="1127"/>
			<point x="393" y="1183"/>
			<point x="463" y="1261"/>
			<point x="502" y="1309" type="qcurve"/>
			<point x="502" y="233" type="line" smooth="yes"/>
			<point x="502" y="185"/>
			<point x="475" y="127"/>
			<point x="430" y="96"/>
			<point x="369" y="86"/>
			<point x="334" y="86" type="qcurve" smooth="yes"/>
			<point x="197" y="86" type="line"/>
		</contour>
	</outline>
</glyph>
<glyph name="five" format="2">
	<advance width="1145"/>
	<unicode hex="0035"/>
	<note>
		five
  </note>
	<outline>
		<contour>
			<point x="489" y="100" type="qcurve"/>
			<point x="489" y="100" type="line"/>
			<point x="489" y="100" type="line"/>
			<point x="489" y="100" type="line"/>
			<point x="489" y="100" type="line"/>
			<point x="427" y="100"/>
			<point x="334" y="132"/>
			<point x="273" y="187"/>
			<point x="242" y="263"/>
			<point x="242" y="307" type="qcurve"/>
			<point x="176" y="307"/>
			<point x="113" y="243"/>
			<point x="113" y="186" type="qcurve" smooth="yes"/>
			<point x="113" y="152"/>
			<point x="149" y="79"/>
			<point x="237" y="19"/>
			<point x="386" y="-20"/>
			<point x="500" y="-20" type="qcurve" smooth="yes"/>
			<point x="617" y="-20"/>
			<point x="801" y="47"/>
			<point x="928" y="170"/>
			<point x="995" y="342"/>
			<point x="995" y="446" type="qcurve" smooth="yes"/>
			<point x="995" y="554"/>
			<point x="924" y="717"/>
			<point x="798" y="825"/>
			<point x="627" y="879"/>
			<point x="528" y="879" type="qcurve" smooth="yes"/>
			<point x="437" y="879"/>
			<point x="320" y="857"/>
			<point x="289" y="846" type="qcurve"/>
			<point x="328" y="1296" type="line"/>
			<point x="725" y="1296" type="line" smooth="yes"/>
			<point x="757" y="1296"/>
			<point x="798" y="1286"/>
			<point x="822" y="1265"/>
			<point x="833" y="1234"/>
			<point x="836" y="1212" type="qcurve" smooth="yes"/>
			<point x="844" y="1151" type="line"/>
			<point x="930" y="1151" type="line"/>
			<point x="920" y="1460" type="line"/>
			<point x="236" y="1460" type="line"/>
			<point x="170" y="735" type="line"/>
			<point x="219" y="721" type="line"/>
			<point x="238" y="729"/>
			<point x="282" y="745"/>
			<point x="341" y="758"/>
			<point x="418" y="766"/>
			<point x="471" y="766" type="qcurve" smooth="yes"/>
			<point x="542" y="766"/>
			<point x="656" y="727"/>
			<point x="738" y="647"/>
			<point x="782" y="527"/>
			<point x="782" y="446" type="qcurve" smooth="yes"/>
			<point x="782" y="349"/>
			<point x="738" y="216"/>
			<point x="659" y="135"/>
			<point x="552" y="100"/>
		</contour>
	</outline>
</glyph>
<glyph name="seven" format="2">
	<advance width="1145"/>
	<unicode hex="0037"/>
	<note>
		seven
  </note>
	<outline>
		<contour>
			<point x="389" y="0" type="line"/>
			<point x="389" y="0" type="line"/>
			<point x="389" y="0" type="line"/>
			<point x="389" y="0" type="line"/>
			<point x="389" y="0" type="line"/>
			<point x="543" y="0" type="line"/>
			<point x="1047" y="1401" type="line"/>
			<point x="1047" y="1460" type="line"/>
			<point x="131" y="1460" type="line"/>
			<point x="121" y="1090" type="line"/>
			<point x="207" y="1090" type="line"/>
			<point x="215" y="1192" type="line" smooth="yes"/>
			<point x="224" y="1296"/>
			<point x="334" y="1296" type="qcurve" smooth="yes"/>
			<point x="872" y="1296" type="line"/>
		</contour>
	</outline>
</glyph>
<glyph name="less" format="2">
	<advance width="1145"/>
	<unicode hex="003C"/>
	<note>
		less
  </note>
	<outline>
		<contour>
			<point x="133" y="696" type="line"/>
			<point x="133" y="696" type="line"/>
			<point x="1012" y="225" type="line"/>
			<point x="1012" y="362" type="line"/>
			<point x="324" y="731" type="line"/>
			<point x="1012" y="1104" type="line"/>
			<point x="1012" y="1241" type="line"/>
			<point x="133" y="768" type="line"/>
		</contour>
	</outline>
</glyph>
<glyph name="equal" format="2">
	<advance width="1145"/>
	<unicode hex="003D"/>
	<note>
		equal
  </note>
	<outline>
		<contour>
			<point x="1012" y="993" type="line"/>
			<point x="1012" y="993" type="line"/>
			<point x="133" y="993" type="line"/>
			<point x="133" y="872" type="line"/>
			<point x="1012" y="872" type="line"/>
		</contour>
		<contour>
			<point x="1012" y="590" type="line"/>
			<point x="1012" y="590" type="line"/>
			<point x="133" y="590" type="line"/>
			<point x="133" y="469" type="line"/>
			<point x="1012" y="469" type="line"/>
		</contour>
	</outline>
</glyph>
<glyph name="greater" format="2">
	<advance width="1145"/>
	<unicode hex="003E"/>
	<note>
		greater
  </note>
	<outline>
		<contour>
			<point x="133" y="225" type="line"/>
			<point x="133" y="225" type="line"/>
			<point x="1012" y="696" type="line"/>
			<point x="1012" y="768" type="line"/>
			<point x="133" y="1241" type="line"/>
			<point x="133" y="1104" type="line"/>
			<point x="821" y="731" type="line"/>
			<point x="133" y="362" type="line"/>
		</contour>
	</outline>
</glyph>
<glyph name="question" format="2">
	<advance width="1024"/>
	<unicode hex="003F"/>
	<note>
		question
  </note>
	<outline>
		<contour>
			<point x="522" y="412" type="line"/>
			<point x="522" y="412" type="line"/>
			<point x="522" y="412" type="line"/>
			<point x="522" y="412" type="line"/>
			<point x="522" y="412" type="line"/>
			<point x="522" y="643" type="line"/>
			<point x="617" y="682"/>
			<point x="765" y="776"/>
			<point x="867" y="890"/>
			<point x="920" y="1028"/>
			<point x="920" y="1112" type="qcurve" smooth="yes"/>
			<point x="920" y="1200"/>
			<point x="852" y="1338"/>
			<point x="732" y="1433"/>
			<point x="568" y="1483"/>
			<point x="471" y="1483" type="qcurve" smooth="yes"/>
			<point x="372" y="1483"/>
			<point x="228" y="1448"/>
			<point x="133" y="1386"/>
			<point x="88" y="1302"/>
			<point x="88" y="1253" type="qcurve" smooth="yes"/>
			<point x="88" y="1220"/>
			<point x="114" y="1170"/>
			<point x="159" y="1137"/>
			<point x="221" y="1120"/>
			<point x="258" y="1120" type="qcurve"/>
			<point x="258" y="1173"/>
			<point x="282" y="1268"/>
			<point x="336" y="1340"/>
			<point x="423" y="1382"/>
			<point x="487" y="1382" type="qcurve" smooth="yes"/>
			<point x="546" y="1382"/>
			<point x="631" y="1348"/>
			<point x="685" y="1287"/>
			<point x="711" y="1200"/>
			<point x="711" y="1147" type="qcurve" smooth="yes"/>
			<point x="711" y="1086"/>
			<point x="680" y="965"/>
			<point x="607" y="854"/>
			<point x="486" y="759"/>
			<point x="397" y="723" type="qcurve"/>
			<point x="397" y="412" type="line"/>
		</contour>
		<contour>
			<point x="328" y="125" type="qcurve"/>
			<point x="328" y="125" type="line"/>
			<point x="328" y="125" type="line"/>
			<point x="328" y="125" type="line"/>
			<point x="328" y="125" type="line"/>
			<point x="328" y="86"/>
			<point x="348" y="32"/>
			<point x="383" y="0"/>
			<point x="430" y="-14"/>
			<point x="457" y="-14" type="qcurve" smooth="yes"/>
			<point x="483" y="-14"/>
			<point x="530" y="0"/>
			<point x="565" y="32"/>
			<point x="586" y="86"/>
			<point x="586" y="125" type="qcurve" smooth="yes"/>
			<point x="586" y="165"/>
			<point x="565" y="218"/>
			<point x="530" y="250"/>
			<point x="483" y="264"/>
			<point x="457" y="264" type="qcurve" smooth="yes"/>
			<point x="430" y="264"/>
			<point x="383" y="250"/>
			<point x="348" y="218"/>
			<point x="328" y="165"/>
		</contour>
	</outline>
</glyph>
<glyph name="at" format="2">
	<advance width="1886"/>
	<unicode hex="0040"/>
	<note>
		at
  </note>
	<outline>
		<contour>
			<point x="1778" y="803" type="qcurve"/>
			<point x="1778" y="803" type="line"/>
			<point x="1778" y="803" type="line"/>
			<point x="1778" y="803" type="line"/>
			<point x="1778" y="803" type="line"/>
			<point x="1778" y="942"/>
			<point x="1691" y="1183"/>
			<point x="1517" y="1360"/>
			<point x="1257" y="1462"/>
			<point x="1085" y="1462" type="qcurve" smooth="yes"/>
			<point x="945" y="1462"/>
			<point x="696" y="1392"/>
			<point x="484" y="1263"/>
			<point x="315" y="1080"/>
			<point x="196" y="854"/>
			<point x="133" y="591"/>
			<point x="133" y="446" type="qcurve" smooth="yes"/>
			<point x="133" y="260"/>
			<point x="245" y="-16"/>
			<point x="444" y="-200"/>
			<point x="720" y="-291"/>
			<point x="885" y="-291" type="qcurve" smooth="yes"/>
			<point x="980" y="-291"/>
			<point x="1149" y="-256"/>
			<point x="1296" y="-199"/>
			<point x="1422" y="-126"/>
			<point x="1473" y="-88" type="qcurve"/>
			<point x="1425" y="-14" type="line"/>
			<point x="1381" y="-46"/>
			<point x="1270" y="-107"/>
			<point x="1139" y="-155"/>
			<point x="989" y="-184"/>
			<point x="905" y="-184" type="qcurve" smooth="yes"/>
			<point x="781" y="-184"/>
			<point x="560" y="-114"/>
			<point x="393" y="39"/>
			<point x="295" y="280"/>
			<point x="295" y="451" type="qcurve" smooth="yes"/>
			<point x="295" y="591"/>
			<point x="355" y="835"/>
			<point x="461" y="1036"/>
			<point x="608" y="1193"/>
			<point x="780" y="1302"/>
			<point x="973" y="1358"/>
			<point x="1073" y="1358" type="qcurve" smooth="yes"/>
			<point x="1201" y="1358"/>
			<point x="1414" y="1287"/>
			<point x="1567" y="1148"/>
			<point x="1653" y="943"/>
			<point x="1653" y="809" type="qcurve" smooth="yes"/>
			<point x="1653" y="679"/>
			<point x="1604" y="477"/>
			<point x="1528" y="338"/>
			<point x="1434" y="266"/>
			<point x="1389" y="266" type="qcurve" smooth="yes"/>
			<point x="1364" y="266"/>
			<point x="1319" y="282"/>
			<point x="1285" y="317"/>
			<point x="1264" y="370"/>
			<point x="1264" y="406" type="qcurve" smooth="yes"/>
			<point x="1264" y="427"/>
			<point x="1268" y="475"/>
			<point x="1271" y="495" type="qcurve" smooth="yes"/>
			<point x="1275" y="519"/>
			<point x="1278" y="543" type="qcurve"/>
			<point x="1382" y="1065" type="line"/>
			<point x="1333" y="1065" type="line"/>
			<point x="1251" y="1022" type="line"/>
			<point x="1220" y="1047"/>
			<point x="1125" y="1083"/>
			<point x="1059" y="1083" type="qcurve" smooth="yes"/>
			<point x="965" y="1083"/>
			<point x="814" y="1028"/>
			<point x="698" y="937"/>
			<point x="615" y="818"/>
			<point x="562" y="691"/>
			<point x="537" y="563"/>
			<point x="537" y="508" type="qcurve" smooth="yes"/>
			<point x="537" y="418"/>
			<point x="588" y="286"/>
			<point x="673" y="200"/>
			<point x="786" y="158"/>
			<point x="848" y="158" type="qcurve" smooth="yes"/>
			<point x="900" y="158"/>
			<point x="983" y="186"/>
			<point x="1050" y="236"/>
			<point x="1103" y="304"/>
			<point x="1124" y="344" type="qcurve"/>
			<point x="1135" y="344" type="line"/>
			<point x="1164" y="256"/>
			<point x="1285" y="158"/>
			<point x="1376" y="158" type="qcurve" smooth="yes"/>
			<point x="1447" y="158"/>
			<point x="1590" y="248"/>
			<point x="1706" y="416"/>
			<point x="1778" y="655"/>
		</contour>
		<contour>
			<point x="727" y="479" type="qcurve"/>
			<point x="727" y="479" type="line"/>
			<point x="727" y="479" type="line"/>
			<point x="727" y="479" type="line"/>
			<point x="727" y="479" type="line"/>
			<point x="727" y="523"/>
			<point x="743" y="633"/>
			<point x="778" y="749"/>
			<point x="832" y="860"/>
			<point x="907" y="946"/>
			<point x="1006" y="999"/>
			<point x="1067" y="999" type="qcurve" smooth="yes"/>
			<point x="1104" y="999"/>
			<point x="1169" y="967"/>
			<point x="1182" y="938" type="qcurve"/>
			<point x="1104" y="522" type="line" smooth="yes"/>
			<point x="1095" y="475"/>
			<point x="1063" y="383"/>
			<point x="1011" y="311"/>
			<point x="935" y="266"/>
			<point x="883" y="266" type="qcurve" smooth="yes"/>
			<point x="814" y="266"/>
			<point x="727" y="371"/>
		</contour>
	</outline>
</glyph>
<glyph name="A" format="2">
	<advance width="1444"/>
	<unicode hex="0041"/>
	<note>
		A
  </note>
	<outline>
		<contour>
			<point x="414" y="489" type="line"/>
			<point x="414" y="489" type="line"/>
			<point x="414" y="489" type="line"/>
			<point x="414" y="489" type="line"/>
			<point x="414" y="489" type="line"/>
			<point x="952" y="489" type="line"/>
			<point x="1034" y="260" type="line" smooth="yes"/>
			<point x="1042" y="237"/>
			<point x="1051" y="201"/>
			<point x="1051" y="184" type="qcurve" smooth="yes"/>
			<point x="1051" y="86"/>
			<point x="928" y="86" type="qcurve" smooth="yes"/>
			<point x="881" y="86" type="line"/>
			<point x="881" y="0" type="line"/>
			<point x="1444" y="0" type="line"/>
			<point x="1444" y="86" type="line"/>
			<point x="1417" y="86" type="line" smooth="yes"/>
			<point x="1387" y="86"/>
			<point x="1343" y="96"/>
			<point x="1309" y="121"/>
			<point x="1284" y="163"/>
			<point x="1272" y="195" type="qcurve" smooth="yes"/>
			<point x="809" y="1462" type="line"/>
			<point x="649" y="1462" type="line"/>
			<point x="195" y="246" type="line" smooth="yes"/>
			<point x="176" y="197"/>
			<point x="145" y="135"/>
			<point x="111" y="99"/>
			<point x="69" y="86"/>
			<point x="39" y="86" type="qcurve" smooth="yes"/>
			<point x="0" y="86" type="line"/>
			<point x="0" y="0" type="line"/>
			<point x="500" y="0" type="line"/>
			<point x="500" y="86" type="line"/>
			<point x="453" y="86" type="line" smooth="yes"/>
			<point x="384" y="86"/>
			<point x="317" y="134"/>
			<point x="317" y="186" type="qcurve" smooth="yes"/>
			<point x="317" y="203"/>
			<point x="327" y="250"/>
			<point x="336" y="274" type="qcurve" smooth="yes"/>
		</contour>
		<contour>
			<point x="788" y="950" type="qcurve"/>
			<point x="788" y="950" type="line"/>
			<point x="788" y="950" type="line"/>
			<point x="788" y="950" type="line"/>
			<point x="788" y="950" type="line"/>
			<point x="915" y="592" type="line"/>
			<point x="453" y="592" type="line"/>
			<point x="592" y="969" type="line" smooth="yes"/>
			<point x="610" y="1017"/>
			<point x="638" y="1096"/>
			<point x="660" y="1168"/>
			<point x="679" y="1237"/>
			<point x="686" y="1274" type="qcurve"/>
			<point x="703" y="1200"/>
			<point x="756" y="1041"/>
		</contour>
	</outline>
</glyph>
<glyph name="B" format="2">
	<advance width="1339"/>
	<unicode hex="0042"/>
	<note>
		B
  </note>
	<outline>
		<contour>
			<point x="1153" y="1096" type="qcurve"/>
			<point x="1153" y="1096" type="line"/>
			<point x="1153" y="1096" type="line"/>
			<point x="1153" y="1096" type="line"/>
			<point x="1153" y="1096" type="line"/>
			<point x="1153" y="1285"/>
			<point x="893" y="1462"/>
			<point x="627" y="1462" type="qcurve" smooth="yes"/>
			<point x="78" y="1462" type="line"/>
			<point x="78" y="1376" type="line"/>
			<point x="104" y="1376" type="line" smooth="yes"/>
			<point x="138" y="1376"/>
			<point x="199" y="1367"/>
			<point x="245" y="1337"/>
			<point x="272" y="1282"/>
			<point x="272" y="1237" type="qcurve" smooth="yes"/>
			<point x="272" y="233" type="line" smooth="yes"/>
			<point x="272" y="185"/>
			<point x="246" y="127"/>
			<point x="200" y="96"/>
			<point x="139" y="86"/>
			<point x="104" y="86" type="qcurve" smooth="yes"/>
			<point x="78" y="86" type="line"/>
			<point x="78" y="0" type="line"/>
			<point x="688" y="0" type="line" smooth="yes"/>
			<point x="954" y="0"/>
			<point x="1214" y="197"/>
			<point x="1214" y="395" type="qcurve" smooth="yes"/>
			<point x="1214" y="476"/>
			<point x="1168" y="603"/>
			<point x="1085" y="696"/>
			<point x="969" y="754"/>
			<point x="899" y="766" type="qcurve"/>
			<point x="899" y="774" type="line"/>
			<point x="953" y="792"/>
			<point x="1046" y="845"/>
			<point x="1114" y="923"/>
			<point x="1153" y="1027"/>
		</contour>
		<contour>
			<point x="479" y="102" type="line"/>
			<point x="479" y="102" type="line"/>
			<point x="479" y="102" type="line"/>
			<point x="479" y="102" type="line"/>
			<point x="479" y="102" type="line"/>
			<point x="479" y="715" type="line"/>
			<point x="682" y="715" type="line" smooth="yes"/>
			<point x="772" y="715"/>
			<point x="892" y="677"/>
			<point x="965" y="599"/>
			<point x="995" y="481"/>
			<point x="995" y="401" type="qcurve" smooth="yes"/>
			<point x="995" y="319"/>
			<point x="961" y="205"/>
			<point x="885" y="134"/>
			<point x="765" y="102"/>
			<point x="678" y="102" type="qcurve" smooth="yes"/>
		</contour>
		<contour>
			<point x="479" y="817" type="line"/>
			<point x="479" y="817" type="line"/>
			<point x="479" y="817" type="line"/>
			<point x="479" y="817" type="line"/>
			<point x="479" y="817" type="line"/>
			<point x="479" y="1360" type="line"/>
			<point x="616" y="1360" type="line" smooth="yes"/>
			<point x="703" y="1360"/>
			<point x="824" y="1334"/>
			<point x="900" y="1272"/>
			<point x="934" y="1171"/>
			<point x="934" y="1096" type="qcurve" smooth="yes"/>
			<point x="934" y="1022"/>
			<point x="903" y="916"/>
			<point x="831" y="849"/>
			<point x="711" y="817"/>
			<point x="621" y="817" type="qcurve" smooth="yes"/>
		</contour>
	</outline>
</glyph>
<glyph name="C" format="2">
	<advance width="1257"/>
	<unicode hex="0043"/>
	<note>
		C
  </note>
	<outline>
		<contour>
			<point x="774" y="1483" type="qcurve"/>
			<point x="774" y="1483" type="line"/>
			<point x="774" y="1483" type="line"/>
			<point x="774" y="1483" type="line"/>
			<point x="774" y="1483" type="line"/>
			<point x="612" y="1483"/>
			<point x="366" y="1373"/>
			<point x="201" y="1175"/>
			<point x="117" y="899"/>
			<point x="117" y="733" type="qcurve" smooth="yes"/>
			<point x="117" y="564"/>
			<point x="197" y="286"/>
			<point x="354" y="88"/>
			<point x="586" y="-20"/>
			<point x="739" y="-20" type="qcurve" smooth="yes"/>
			<point x="853" y="-20"/>
			<point x="1019" y="23"/>
			<point x="1127" y="89"/>
			<point x="1180" y="170"/>
			<point x="1180" y="209" type="qcurve" smooth="yes"/>
			<point x="1180" y="240"/>
			<point x="1158" y="278"/>
			<point x="1141" y="289" type="qcurve"/>
			<point x="1115" y="255"/>
			<point x="1048" y="192"/>
			<point x="960" y="144"/>
			<point x="845" y="115"/>
			<point x="770" y="115" type="qcurve" smooth="yes"/>
			<point x="657" y="115"/>
			<point x="496" y="205"/>
			<point x="392" y="368"/>
			<point x="344" y="596"/>
			<point x="344" y="733" type="qcurve" smooth="yes"/>
			<point x="344" y="887"/>
			<point x="390" y="1126"/>
			<point x="492" y="1289"/>
			<point x="654" y="1374"/>
			<point x="770" y="1374" type="qcurve" smooth="yes"/>
			<point x="837" y="1374"/>
			<point x="928" y="1327"/>
			<point x="985" y="1252"/>
			<point x="1010" y="1158"/>
			<point x="1010" y="1110" type="qcurve"/>
			<point x="1048" y="1110"/>
			<point x="1113" y="1130"/>
			<point x="1161" y="1167"/>
			<point x="1188" y="1220"/>
			<point x="1188" y="1253" type="qcurve" smooth="yes"/>
			<point x="1188" y="1302"/>
			<point x="1137" y="1386"/>
			<point x="1034" y="1448"/>
			<point x="879" y="1483"/>
		</contour>
	</outline>
</glyph>
<glyph name="D" format="2">
	<advance width="1489"/>
	<unicode hex="0044"/>
	<note>
		D
  </note>
	<outline>
		<contour>
			<point x="1372" y="733" type="qcurve"/>
			<point x="1372" y="733" type="line"/>
			<point x="1372" y="733" type="line"/>
			<point x="1372" y="733" type="line"/>
			<point x="1372" y="733" type="line"/>
			<point x="1372" y="907"/>
			<point x="1282" y="1179"/>
			<point x="1111" y="1365"/>
			<point x="863" y="1462"/>
			<point x="705" y="1462" type="qcurve" smooth="yes"/>
			<point x="78" y="1462" type="line"/>
			<point x="78" y="1376" type="line"/>
			<point x="104" y="1376" type="line" smooth="yes"/>
			<point x="138" y="1376"/>
			<point x="199" y="1367"/>
			<point x="245" y="1337"/>
			<point x="272" y="1282"/>
			<point x="272" y="1237" type="qcurve" smooth="yes"/>
			<point x="272" y="233" type="line" smooth="yes"/>
			<point x="272" y="185"/>
			<point x="246" y="127"/>
			<point x="200" y="96"/>
			<point x="139" y="86"/>
			<point x="104" y="86" type="qcurve" smooth="yes"/>
			<point x="78" y="86" type="line"/>
			<point x="78" y="0" type="line"/>
			<point x="705" y="0" type="line" smooth="yes"/>
			<point x="872" y="0"/>
			<point x="1122" y="103"/>
			<point x="1288" y="294"/>
			<point x="1372" y="565"/>
		</contour>
		<contour>
			<point x="657" y="104" type="qcurve"/>
			<point x="657" y="104" type="line"/>
			<point x="657" y="104" type="line"/>
			<point x="657" y="104" type="line"/>
			<point x="657" y="104" type="line"/>
			<point x="479" y="104" type="line"/>
			<point x="479" y="1360" type="line"/>
			<point x="659" y="1360" type="line" smooth="yes"/>
			<point x="902" y="1360"/>
			<point x="1145" y="1038"/>
			<point x="1145" y="733" type="qcurve" smooth="yes"/>
			<point x="1145" y="581"/>
			<point x="1084" y="347"/>
			<point x="962" y="187"/>
			<point x="779" y="104"/>
		</contour>
	</outline>
</glyph>
<glyph name="E" format="2">
	<advance width="1276"/>
	<unicode hex="0045"/>
	<note>
		E
  </note>
	<outline>
		<contour>
			<point x="479" y="102" type="line"/>
			<point x="479" y="102" type="line"/>
			<point x="479" y="102" type="line"/>
			<point x="479" y="102" type="line"/>
			<point x="479" y="102" type="line"/>
			<point x="479" y="715" type="line"/>
			<point x="973" y="715" type="line"/>
			<point x="973" y="815" type="line"/>
			<point x="479" y="815" type="line"/>
			<point x="479" y="1360" type="line"/>
			<point x="823" y="1360" type="line" smooth="yes"/>
			<point x="869" y="1360"/>
			<point x="934" y="1333"/>
			<point x="977" y="1287"/>
			<point x="1000" y="1226"/>
			<point x="1004" y="1192" type="qcurve" smooth="yes"/>
			<point x="1014" y="1104" type="line"/>
			<point x="1120" y="1104" type="line"/>
			<point x="1110" y="1462" type="line"/>
			<point x="78" y="1462" type="line"/>
			<point x="78" y="1376" type="line"/>
			<point x="104" y="1376" type="line" smooth="yes"/>
			<point x="139" y="1376"/>
			<point x="200" y="1366"/>
			<point x="246" y="1335"/>
			<point x="272" y="1277"/>
			<point x="272" y="1229" type="qcurve" smooth="yes"/>
			<point x="272" y="223" type="line" smooth="yes"/>
			<point x="272" y="178"/>
			<point x="245" y="123"/>
			<point x="199" y="95"/>
			<point x="138" y="86"/>
			<point x="104" y="86" type="qcurve" smooth="yes"/>
			<point x="78" y="86" type="line"/>
			<point x="78" y="0" type="line"/>
			<point x="1176" y="0" type="line"/>
			<point x="1190" y="358" type="line"/>
			<point x="1083" y="358" type="line"/>
			<point x="1069" y="270" type="line" smooth="yes"/>
			<point x="1064" y="236"/>
			<point x="1038" y="175"/>
			<point x="992" y="129"/>
			<point x="923" y="102"/>
			<point x="874" y="102" type="qcurve" smooth="yes"/>
		</contour>
	</outline>
</glyph>
<glyph name="F" format="2">
	<advance width="1208"/>
	<unicode hex="0046"/>
	<note>
		F
  </note>
	<outline>
		<contour>
			<point x="479" y="1360" type="line"/>
			<point x="479" y="1360" type="line"/>
			<point x="479" y="1360" type="line"/>
			<point x="479" y="1360" type="line"/>
			<point x="479" y="1360" type="line"/>
			<point x="815" y="1360" type="line" smooth="yes"/>
			<point x="863" y="1360"/>
			<point x="931" y="1333"/>
			<point x="976" y="1288"/>
			<point x="1000" y="1227"/>
			<point x="1004" y="1192" type="qcurve" smooth="yes"/>
			<point x="1014" y="1104" type="line"/>
			<point x="1120" y="1104" type="line"/>
			<point x="1110" y="1462" type="line"/>
			<point x="78" y="1462" type="line"/>
			<point x="78" y="1376" type="line"/>
			<point x="104" y="1376" type="line" smooth="yes"/>
			<point x="138" y="1376"/>
			<point x="199" y="1367"/>
			<point x="245" y="1337"/>
			<point x="272" y="1282"/>
			<point x="272" y="1237" type="qcurve" smooth="yes"/>
			<point x="272" y="223" type="line" smooth="yes"/>
			<point x="272" y="178"/>
			<point x="245" y="123"/>
			<point x="199" y="95"/>
			<point x="138" y="86"/>
			<point x="104" y="86" type="qcurve" smooth="yes"/>
			<point x="78" y="86" type="line"/>
			<point x="78" y="0" type="line"/>
			<point x="715" y="0" type="line"/>
			<point x="715" y="86" type="line"/>
			<point x="647" y="86" type="line" smooth="yes"/>
			<point x="613" y="86"/>
			<point x="551" y="96"/>
			<point x="506" y="127"/>
			<point x="479" y="185"/>
			<point x="479" y="233" type="qcurve" smooth="yes"/>
			<point x="479" y="668" type="line"/>
			<point x="973" y="668" type="line"/>
			<point x="973" y="768" type="line"/>
			<point x="479" y="768" type="line"/>
		</contour>
	</outline>
</glyph>
<glyph name="H" format="2">
	<advance width="1624"/>
	<unicode hex="0048"/>
	<note>
		H
  </note>
	<outline>
		<contour>
			<point x="950" y="0" type="line"/>
			<point x="950" y="0" type="line"/>
			<point x="950" y="0" type="line"/>
			<point x="950" y="0" type="line"/>
			<point x="950" y="0" type="line"/>
			<point x="1546" y="0" type="line"/>
			<point x="1546" y="86" type="line"/>
			<point x="1520" y="86" type="line" smooth="yes"/>
			<point x="1486" y="86"/>
			<point x="1425" y="95"/>
			<point x="1379" y="123"/>
			<point x="1352" y="178"/>
			<point x="1352" y="223" type="qcurve" smooth="yes"/>
			<point x="1352" y="1229" type="line" smooth="yes"/>
			<point x="1352" y="1277"/>
			<point x="1378" y="1335"/>
			<point x="1424" y="1366"/>
			<point x="1485" y="1376"/>
			<point x="1520" y="1376" type="qcurve" smooth="yes"/>
			<point x="1546" y="1376" type="line"/>
			<point x="1546" y="1462" type="line"/>
			<point x="950" y="1462" type="line"/>
			<point x="950" y="1376" type="line"/>
			<point x="977" y="1376" type="line" smooth="yes"/>
			<point x="1012" y="1376"/>
			<point x="1073" y="1366"/>
			<point x="1118" y="1335"/>
			<point x="1145" y="1277"/>
			<point x="1145" y="1229" type="qcurve" smooth="yes"/>
			<point x="1145" y="815" type="line"/>
			<point x="479" y="815" type="line"/>
			<point x="479" y="1229" type="line" smooth="yes"/>
			<point x="479" y="1277"/>
			<point x="506" y="1335"/>
			<point x="551" y="1366"/>
			<point x="613" y="1376"/>
			<point x="647" y="1376" type="qcurve" smooth="yes"/>
			<point x="674" y="1376" type="line"/>
			<point x="674" y="1462" type="line"/>
			<point x="78" y="1462" type="line"/>
			<point x="78" y="1376" type="line"/>
			<point x="104" y="1376" type="line" smooth="yes"/>
			<point x="138" y="1376"/>
			<point x="199" y="1367"/>
			<point x="245" y="1337"/>
			<point x="272" y="1282"/>
			<point x="272" y="1237" type="qcurve" smooth="yes"/>
			<point x="272" y="233" type="line" smooth="yes"/>
			<point x="272" y="185"/>
			<point x="246" y="127"/>
			<point x="200" y="96"/>
			<point x="139" y="86"/>
			<point x="104" y="86" type="qcurve" smooth="yes"/>
			<point x="78" y="86" type="line"/>
			<point x="78" y="0" type="line"/>
			<point x="674" y="0" type="line"/>
			<point x="674" y="86" type="line"/>
			<point x="647" y="86" type="line" smooth="yes"/>
			<point x="613" y="86"/>
			<point x="551" y="96"/>
			<point x="506" y="127"/>
			<point x="479" y="185"/>
			<point x="479" y="233" type="qcurve" smooth="yes"/>
			<point x="479" y="713" type="line"/>
			<point x="1145" y="713" type="line"/>
			<point x="1145" y="233" type="line" smooth="yes"/>
			<point x="1145" y="185"/>
			<point x="1118" y="127"/>
			<point x="1073" y="96"/>
			<point x="1012" y="86"/>
			<point x="977" y="86" type="qcurve" smooth="yes"/>
			<point x="950" y="86" type="line"/>
		</contour>
	</outline>
</glyph>
<glyph name="I" format="2">
	<advance width="752"/>
	<unicode hex="0049"/>
	<note>
		I
  </note>
	<outline>
		<contour>
			<point x="78" y="0" type="line"/>
			<point x="78" y="0" type="line"/>
			<point x="78" y="0" type="line"/>
			<point x="78" y="0" type="line"/>
			<point x="78" y="0" type="line"/>
			<point x="674" y="0" type="line"/>
			<point x="674" y="86" type="line"/>
			<point x="647" y="86" type="line" smooth="yes"/>
			<point x="613" y="86"/>
			<point x="551" y="96"/>
			<point x="506" y="127"/>
			<point x="479" y="185"/>
			<point x="479" y="233" type="qcurve" smooth="yes"/>
			<point x="479" y="1229" type="line" smooth="yes"/>
			<point x="479" y="1277"/>
			<point x="506" y="1335"/>
			<point x="551" y="1366"/>
			<point x="613" y="1376"/>
			<point x="647" y="1376" type="qcurve" smooth="yes"/>
			<point x="674" y="1376" type="line"/>
			<point x="674" y="1462" type="line"/>
			<point x="78" y="1462" type="line"/>
			<point x="78" y="1376" type="line"/>
			<point x="104" y="1376" type="line" smooth="yes"/>
			<point x="139" y="1376"/>
			<point x="200" y="1366"/>
			<point x="246" y="1335"/>
			<point x="272" y="1277"/>
			<point x="272" y="1229" type="qcurve" smooth="yes"/>
			<point x="272" y="233" type="line" smooth="yes"/>
			<point x="272" y="185"/>
			<point x="246" y="127"/>
			<point x="200" y="96"/>
			<point x="139" y="86"/>
			<point x="104" y="86" type="qcurve" smooth="yes"/>
			<point x="78" y="86" type="line"/>
		</contour>
	</outline>
</glyph>
<glyph name="J" format="2">
	<advance width="731"/>
	<unicode hex="004A"/>
	<note>
		J
  </note>
	<outline>
		<contour>
			<point x="-23" y="-395" type="line"/>
			<point x="-23" y="-395" type="line"/>
			<point x="-23" y="-395" type="line"/>
			<point x="-23" y="-395" type="line"/>
			<point x="-23" y="-395" type="line"/>
			<point x="-23" y="-492" type="line"/>
			<point x="12" y="-492" type="line" smooth="yes"/>
			<point x="110" y="-492"/>
			<point x="281" y="-446"/>
			<point x="407" y="-337"/>
			<point x="479" y="-154"/>
			<point x="479" y="-16" type="qcurve" smooth="yes"/>
			<point x="479" y="1229" type="line" smooth="yes"/>
			<point x="479" y="1277"/>
			<point x="506" y="1335"/>
			<point x="551" y="1366"/>
			<point x="613" y="1376"/>
			<point x="647" y="1376" type="qcurve" smooth="yes"/>
			<point x="674" y="1376" type="line"/>
			<point x="674" y="1462" type="line"/>
			<point x="78" y="1462" type="line"/>
			<point x="78" y="1376" type="line"/>
			<point x="104" y="1376" type="line" smooth="yes"/>
			<point x="138" y="1376"/>
			<point x="199" y="1367"/>
			<point x="245" y="1337"/>
			<point x="272" y="1282"/>
			<point x="272" y="1237" type="qcurve" smooth="yes"/>
			<point x="272" y="-18" type="line" smooth="yes"/>
			<point x="272" y="-126"/>
			<point x="235" y="-271"/>
			<point x="165" y="-358"/>
			<point x="62" y="-395"/>
			<point x="-4" y="-395" type="qcurve" smooth="yes"/>
		</contour>
	</outline>
</glyph>
<glyph name="L" format="2">
	<advance width="1276"/>
	<unicode hex="004C"/>
	<note>
		L
  </note>
	<outline>
		<contour>
			<point x="78" y="0" type="line"/>
			<point x="78" y="0" type="line"/>
			<point x="78" y="0" type="line"/>
			<point x="78" y="0" type="line"/>
			<point x="78" y="0" type="line"/>
			<point x="1176" y="0" type="line"/>
			<point x="1190" y="440" type="line"/>
			<point x="1083" y="440" type="line"/>
			<point x="1063" y="287" type="line" smooth="yes"/>
			<point x="1059" y="254"/>
			<point x="1036" y="188"/>
			<point x="994" y="135"/>
			<point x="929" y="102"/>
			<point x="883" y="102" type="qcurve" smooth="yes"/>
			<point x="479" y="102" type="line"/>
			<point x="479" y="1237" type="line" smooth="yes"/>
			<point x="479" y="1282"/>
			<point x="506" y="1337"/>
			<point x="552" y="1367"/>
			<point x="613" y="1376"/>
			<point x="647" y="1376" type="qcurve" smooth="yes"/>
			<point x="674" y="1376" type="line"/>
			<point x="674" y="1462" type="line"/>
			<point x="78" y="1462" type="line"/>
			<point x="78" y="1376" type="line"/>
			<point x="104" y="1376" type="line" smooth="yes"/>
			<point x="139" y="1376"/>
			<point x="200" y="1366"/>
			<point x="246" y="1335"/>
			<point x="272" y="1277"/>
			<point x="272" y="1229" type="qcurve" smooth="yes"/>
			<point x="272" y="233" type="line" smooth="yes"/>
			<point x="272" y="185"/>
			<point x="246" y="127"/>
			<point x="200" y="96"/>
			<point x="139" y="86"/>
			<point x="104" y="86" type="qcurve" smooth="yes"/>
			<point x="78" y="86" type="line"/>
		</contour>
	</outline>
</glyph>
<glyph name="M" format="2">
	<advance width="1921"/>
	<unicode hex="004D"/>
	<note>
		M
  </note>
	<outline>
		<contour>
			<point x="1298" y="0" type="line"/>
			<point x="1298" y="0" type="line"/>
			<point x="1298" y="0" type="line"/>
			<point x="1298" y="0" type="line"/>
			<point x="1298" y="0" type="line"/>
			<point x="1843" y="0" type="line"/>
			<point x="1843" y="86" type="line"/>
			<point x="1817" y="86" type="line" smooth="yes"/>
			<point x="1782" y="86"/>
			<point x="1721" y="96"/>
			<point x="1675" y="127"/>
			<point x="1649" y="185"/>
			<point x="1649" y="233" type="qcurve" smooth="yes"/>
			<point x="1649" y="1229" type="line" smooth="yes"/>
			<point x="1649" y="1277"/>
			<point x="1675" y="1335"/>
			<point x="1721" y="1366"/>
			<point x="1782" y="1376"/>
			<point x="1817" y="1376" type="qcurve" smooth="yes"/>
			<point x="1843" y="1376" type="line"/>
			<point x="1843" y="1462" type="line"/>
			<point x="1389" y="1462" type="line"/>
			<point x="969" y="291" type="line"/>
			<point x="545" y="1462" type="line"/>
			<point x="78" y="1462" type="line"/>
			<point x="78" y="1376" type="line"/>
			<point x="104" y="1376" type="line" smooth="yes"/>
			<point x="138" y="1376"/>
			<point x="199" y="1367"/>
			<point x="245" y="1337"/>
			<point x="272" y="1282"/>
			<point x="272" y="1237" type="qcurve" smooth="yes"/>
			<point x="272" y="223" type="line" smooth="yes"/>
			<point x="272" y="178"/>
			<point x="245" y="123"/>
			<point x="199" y="95"/>
			<point x="138" y="86"/>
			<point x="104" y="86" type="qcurve" smooth="yes"/>
			<point x="78" y="86" type="line"/>
			<point x="78" y="0" type="line"/>
			<point x="551" y="0" type="line"/>
			<point x="551" y="86" type="line"/>
			<point x="545" y="86" type="line" smooth="yes"/>
			<point x="511" y="86"/>
			<point x="456" y="96"/>
			<point x="417" y="127"/>
			<point x="397" y="185"/>
			<point x="397" y="233" type="qcurve" smooth="yes"/>
			<point x="397" y="1305" type="line"/>
			<point x="872" y="0" type="line"/>
			<point x="983" y="0" type="line"/>
			<point x="1452" y="1309" type="line"/>
			<point x="1452" y="215" type="line"/>
			<point x="1450" y="173"/>
			<point x="1428" y="122"/>
			<point x="1391" y="95"/>
			<point x="1338" y="86"/>
			<point x="1305" y="86" type="qcurve" smooth="yes"/>
			<point x="1298" y="86" type="line"/>
		</contour>
	</outline>
</glyph>
<glyph name="N" format="2">
	<advance width="1563"/>
	<unicode hex="004E"/>
	<note>
		N
  </note>
	<outline>
		<contour>
			<point x="1165" y="0" type="line"/>
			<point x="1165" y="0" type="line"/>
			<point x="1165" y="0" type="line"/>
			<point x="1165" y="0" type="line"/>
			<point x="1165" y="0" type="line"/>
			<point x="1311" y="0" type="line"/>
			<point x="1311" y="1229" type="line" smooth="yes"/>
			<point x="1311" y="1277"/>
			<point x="1337" y="1335"/>
			<point x="1383" y="1366"/>
			<point x="1444" y="1376"/>
			<point x="1479" y="1376" type="qcurve" smooth="yes"/>
			<point x="1505" y="1376" type="line"/>
			<point x="1505" y="1462" type="line"/>
			<point x="991" y="1462" type="line"/>
			<point x="991" y="1376" type="line"/>
			<point x="1018" y="1376" type="line" smooth="yes"/>
			<point x="1052" y="1376"/>
			<point x="1113" y="1367"/>
			<point x="1159" y="1337"/>
			<point x="1186" y="1282"/>
			<point x="1186" y="1237" type="qcurve" smooth="yes"/>
			<point x="1186" y="330" type="line"/>
			<point x="453" y="1462" type="line"/>
			<point x="78" y="1462" type="line"/>
			<point x="78" y="1376" type="line"/>
			<point x="104" y="1376" type="line" smooth="yes"/>
			<point x="138" y="1376"/>
			<point x="199" y="1367"/>
			<point x="245" y="1337"/>
			<point x="272" y="1282"/>
			<point x="272" y="1237" type="qcurve" smooth="yes"/>
			<point x="272" y="233" type="line" smooth="yes"/>
			<point x="272" y="185"/>
			<point x="246" y="127"/>
			<point x="200" y="96"/>
			<point x="139" y="86"/>
			<point x="104" y="86" type="qcurve" smooth="yes"/>
			<point x="78" y="86" type="line"/>
			<point x="78" y="0" type="line"/>
			<point x="592" y="0" type="line"/>
			<point x="592" y="86" type="line"/>
			<point x="565" y="86" type="line" smooth="yes"/>
			<point x="531" y="86"/>
			<point x="469" y="96"/>
			<point x="424" y="127"/>
			<point x="397" y="185"/>
			<point x="397" y="233" type="qcurve" smooth="yes"/>
			<point x="397" y="1180" type="line"/>
		</contour>
	</outline>
</glyph>
<glyph name="O" format="2">
	<advance width="1520"/>
	<unicode hex="004F"/>
	<note>
		O
  </note>
	<outline>
		<contour>
			<point x="1403" y="733" type="qcurve"/>
			<point x="1403" y="733" type="line"/>
			<point x="1403" y="733" type="line"/>
			<point x="1403" y="733" type="line"/>
			<point x="1403" y="733" type="line"/>
			<point x="1403" y="904"/>
			<point x="1319" y="1181"/>
			<point x="1155" y="1378"/>
			<point x="917" y="1485"/>
			<point x="762" y="1485" type="qcurve" smooth="yes"/>
			<point x="599" y="1485"/>
			<point x="355" y="1378"/>
			<point x="195" y="1182"/>
			<point x="115" y="905"/>
			<point x="115" y="735" type="qcurve" smooth="yes"/>
			<point x="115" y="565"/>
			<point x="195" y="286"/>
			<point x="355" y="88"/>
			<point x="597" y="-20"/>
			<point x="760" y="-20" type="qcurve" smooth="yes"/>
			<point x="915" y="-20"/>
			<point x="1155" y="88"/>
			<point x="1319" y="286"/>
			<point x="1403" y="564"/>
		</contour>
		<contour>
			<point x="342" y="733" type="qcurve"/>
			<point x="342" y="733" type="line"/>
			<point x="342" y="733" type="line"/>
			<point x="342" y="733" type="line"/>
			<point x="342" y="733" type="line"/>
			<point x="342" y="885"/>
			<point x="387" y="1124"/>
			<point x="488" y="1288"/>
			<point x="648" y="1374"/>
			<point x="762" y="1374" type="qcurve" smooth="yes"/>
			<point x="876" y="1374"/>
			<point x="1033" y="1288"/>
			<point x="1132" y="1124"/>
			<point x="1176" y="885"/>
			<point x="1176" y="733" type="qcurve" smooth="yes"/>
			<point x="1176" y="581"/>
			<point x="1132" y="342"/>
			<point x="1033" y="177"/>
			<point x="874" y="90"/>
			<point x="760" y="90" type="qcurve" smooth="yes"/>
			<point x="646" y="90"/>
			<point x="487" y="177"/>
			<point x="387" y="342"/>
			<point x="342" y="581"/>
		</contour>
	</outline>
</glyph>
<glyph name="P" format="2">
	<advance width="1237"/>
	<unicode hex="0050"/>
	<note>
		P
  </note>
	<outline>
		<contour>
			<point x="78" y="0" type="line"/>
			<point x="78" y="0" type="line"/>
			<point x="78" y="0" type="line"/>
			<point x="78" y="0" type="line"/>
			<point x="78" y="0" type="line"/>
			<point x="715" y="0" type="line"/>
			<point x="715" y="86" type="line"/>
			<point x="647" y="86" type="line" smooth="yes"/>
			<point x="613" y="86"/>
			<point x="552" y="95"/>
			<point x="506" y="123"/>
			<point x="479" y="178"/>
			<point x="479" y="223" type="qcurve" smooth="yes"/>
			<point x="479" y="569" type="line"/>
			<point x="608" y="569" type="line" smooth="yes"/>
			<point x="760" y="569"/>
			<point x="970" y="646"/>
			<point x="1100" y="775"/>
			<point x="1157" y="943"/>
			<point x="1157" y="1034" type="qcurve" smooth="yes"/>
			<point x="1157" y="1134"/>
			<point x="1096" y="1292"/>
			<point x="972" y="1403"/>
			<point x="782" y="1462"/>
			<point x="653" y="1462" type="qcurve" smooth="yes"/>
			<point x="78" y="1462" type="line"/>
			<point x="78" y="1376" type="line"/>
			<point x="104" y="1376" type="line" smooth="yes"/>
			<point x="138" y="1376"/>
			<point x="199" y="1367"/>
			<point x="245" y="1337"/>
			<point x="272" y="1282"/>
			<point x="272" y="1237" type="qcurve" smooth="yes"/>
			<point x="272" y="233" type="line" smooth="yes"/>
			<point x="272" y="185"/>
			<point x="246" y="127"/>
			<point x="200" y="96"/>
			<point x="139" y="86"/>
			<point x="104" y="86" type="qcurve" smooth="yes"/>
			<point x="78" y="86" type="line"/>
		</contour>
		<contour>
			<point x="479" y="666" type="line"/>
			<point x="479" y="666" type="line"/>
			<point x="479" y="666" type="line"/>
			<point x="479" y="666" type="line"/>
			<point x="479" y="666" type="line"/>
			<point x="479" y="1364" type="line"/>
			<point x="618" y="1364" type="line" smooth="yes"/>
			<point x="705" y="1364"/>
			<point x="826" y="1323"/>
			<point x="902" y="1239"/>
			<point x="936" y="1112"/>
			<point x="936" y="1026" type="qcurve" smooth="yes"/>
			<point x="936" y="929"/>
			<point x="897" y="792"/>
			<point x="813" y="705"/>
			<point x="681" y="666"/>
			<point x="588" y="666" type="qcurve" smooth="yes"/>
		</contour>
	</outline>
</glyph>
<glyph name="R" format="2">
	<advance width="1343"/>
	<unicode hex="0052"/>
	<note>
		R
  </note>
	<outline>
		<contour>
			<point x="1135" y="250" type="qcurve"/>
			<point x="1135" y="250" type="line"/>
			<point x="1135" y="250" type="line"/>
			<point x="1135" y="250" type="line"/>
			<point x="1135" y="250" type="line"/>
			<point x="854" y="694" type="line"/>
			<point x="908" y="712"/>
			<point x="1016" y="772"/>
			<point x="1102" y="862"/>
			<point x="1155" y="985"/>
			<point x="1155" y="1067" type="qcurve" smooth="yes"/>
			<point x="1155" y="1265"/>
			<point x="895" y="1462"/>
			<point x="629" y="1462" type="qcurve" smooth="yes"/>
			<point x="78" y="1462" type="line"/>
			<point x="78" y="1376" type="line"/>
			<point x="104" y="1376" type="line" smooth="yes"/>
			<point x="138" y="1376"/>
			<point x="199" y="1367"/>
			<point x="245" y="1337"/>
			<point x="272" y="1282"/>
			<point x="272" y="1237" type="qcurve" smooth="yes"/>
			<point x="272" y="223" type="line" smooth="yes"/>
			<point x="272" y="178"/>
			<point x="245" y="123"/>
			<point x="199" y="95"/>
			<point x="138" y="86"/>
			<point x="104" y="86" type="qcurve" smooth="yes"/>
			<point x="78" y="86" type="line"/>
			<point x="78" y="0" type="line"/>
			<point x="674" y="0" type="line"/>
			<point x="674" y="86" type="line"/>
			<point x="647" y="86" type="line" smooth="yes"/>
			<point x="613" y="86"/>
			<point x="552" y="95"/>
			<point x="506" y="123"/>
			<point x="479" y="178"/>
			<point x="479" y="223" type="qcurve" smooth="yes"/>
			<point x="479" y="645" type="line"/>
			<point x="649" y="645" type="line"/>
			<point x="926" y="184" type="line" smooth="yes"/>
			<point x="961" y="126"/>
			<point x="1022" y="54"/>
			<point x="1108" y="14"/>
			<point x="1231" y="0"/>
			<point x="1327" y="0" type="qcurve" smooth="yes"/>
			<point x="1356" y="0" type="line"/>
			<point x="1356" y="86" type="line"/>
			<point x="1350" y="86" type="line" smooth="yes"/>
			<point x="1285" y="86"/>
			<point x="1187" y="168"/>
		</contour>
		<contour>
			<point x="479" y="741" type="line"/>
			<point x="479" y="741" type="line"/>
			<point x="479" y="741" type="line"/>
			<point x="479" y="741" type="line"/>
			<point x="479" y="741" type="line"/>
			<point x="479" y="1364" type="line"/>
			<point x="618" y="1364" type="line" smooth="yes"/>
			<point x="705" y="1364"/>
			<point x="826" y="1331"/>
			<point x="902" y="1258"/>
			<point x="936" y="1143"/>
			<point x="936" y="1061" type="qcurve" smooth="yes"/>
			<point x="936" y="981"/>
			<point x="905" y="861"/>
			<point x="833" y="781"/>
			<point x="713" y="741"/>
			<point x="623" y="741" type="qcurve" smooth="yes"/>
		</contour>
	</outline>
</glyph>
<glyph name="T" format="2">
	<advance width="1255"/>
	<unicode hex="0054"/>
	<note>
		T
  </note>
	<outline>
		<contour>
			<point x="729" y="233" type="qcurve"/>
			<point x="729" y="233" type="line"/>
			<point x="729" y="233" type="line"/>
			<point x="729" y="233" type="line"/>
			<point x="729" y="233" type="line"/>
			<point x="729" y="1360" type="line"/>
			<point x="928" y="1360" type="line" smooth="yes"/>
			<point x="974" y="1360"/>
			<point x="1036" y="1333"/>
			<point x="1074" y="1287"/>
			<point x="1094" y="1226"/>
			<point x="1098" y="1192" type="qcurve" smooth="yes"/>
			<point x="1108" y="1104" type="line"/>
			<point x="1214" y="1104" type="line"/>
			<point x="1204" y="1462" type="line"/>
			<point x="51" y="1462" type="line"/>
			<point x="41" y="1104" type="line"/>
			<point x="147" y="1104" type="line"/>
			<point x="158" y="1192" type="line" smooth="yes"/>
			<point x="162" y="1226"/>
			<point x="181" y="1287"/>
			<point x="220" y="1333"/>
			<point x="281" y="1360"/>
			<point x="326" y="1360" type="qcurve" smooth="yes"/>
			<point x="522" y="1360" type="line"/>
			<point x="522" y="223" type="line" smooth="yes"/>
			<point x="522" y="178"/>
			<point x="495" y="123"/>
			<point x="449" y="95"/>
			<point x="388" y="86"/>
			<point x="354" y="86" type="qcurve" smooth="yes"/>
			<point x="307" y="86" type="line"/>
			<point x="307" y="0" type="line"/>
			<point x="944" y="0" type="line"/>
			<point x="944" y="86" type="line"/>
			<point x="897" y="86" type="line" smooth="yes"/>
			<point x="863" y="86"/>
			<point x="801" y="96"/>
			<point x="756" y="127"/>
			<point x="729" y="185"/>
		</contour>
	</outline>
</glyph>
<glyph name="W" format="2">
	<advance width="2144"/>
	<unicode hex="0057"/>
	<note>
		W
  </note>
	<outline>
		<contour>
			<point x="1180" y="1448" type="line"/>
			<point x="1180" y="1448" type="line"/>
			<point x="1180" y="1448" type="line"/>
			<point x="1180" y="1448" type="line"/>
			<point x="1180" y="1448" type="line"/>
			<point x="1032" y="1448" type="line"/>
			<point x="788" y="569" type="line" smooth="yes"/>
			<point x="761" y="470"/>
			<point x="720" y="281"/>
			<point x="705" y="201" type="qcurve"/>
			<point x="688" y="275"/>
			<point x="642" y="454"/>
			<point x="616" y="547" type="qcurve" smooth="yes"/>
			<point x="428" y="1202" type="line" smooth="yes"/>
			<point x="422" y="1225"/>
			<point x="412" y="1261"/>
			<point x="412" y="1278" type="qcurve" smooth="yes"/>
			<point x="412" y="1329"/>
			<point x="473" y="1376"/>
			<point x="535" y="1376" type="qcurve" smooth="yes"/>
			<point x="582" y="1376" type="line"/>
			<point x="582" y="1462" type="line"/>
			<point x="18" y="1462" type="line"/>
			<point x="18" y="1376" type="line"/>
			<point x="45" y="1376" type="line" smooth="yes"/>
			<point x="75" y="1376"/>
			<point x="121" y="1366"/>
			<point x="155" y="1342"/>
			<point x="180" y="1300"/>
			<point x="190" y="1268" type="qcurve" smooth="yes"/>
			<point x="565" y="0" type="line"/>
			<point x="754" y="0" type="line"/>
			<point x="1067" y="1147" type="line"/>
			<point x="1401" y="0" type="line"/>
			<point x="1585" y="0" type="line"/>
			<point x="1931" y="1217" type="line" smooth="yes"/>
			<point x="1946" y="1268"/>
			<point x="1976" y="1330"/>
			<point x="2012" y="1364"/>
			<point x="2057" y="1376"/>
			<point x="2087" y="1376" type="qcurve" smooth="yes"/>
			<point x="2126" y="1376" type="line"/>
			<point x="2126" y="1462" type="line"/>
			<point x="1626" y="1462" type="line"/>
			<point x="1626" y="1376" type="line"/>
			<point x="1673" y="1376" type="line" smooth="yes"/>
			<point x="1741" y="1376"/>
			<point x="1808" y="1329"/>
			<point x="1808" y="1276" type="qcurve" smooth="yes"/>
			<point x="1808" y="1267"/>
			<point x="1803" y="1241"/>
			<point x="1797" y="1211"/>
			<point x="1789" y="1181"/>
			<point x="1786" y="1169" type="qcurve" smooth="yes"/>
			<point x="1606" y="537" type="line" smooth="yes"/>
			<point x="1578" y="438"/>
			<point x="1539" y="275"/>
			<point x="1524" y="201" type="qcurve"/>
			<point x="1510" y="272"/>
			<point x="1465" y="459"/>
			<point x="1436" y="561" type="qcurve" smooth="yes"/>
		</contour>
	</outline>
</glyph>
<glyph name="X" format="2">
	<advance width="1352"/>
	<unicode hex="0058"/>
	<note>
		X
  </note>
	<outline>
		<contour>
			<point x="954" y="1317" type="qcurve"/>
			<point x="954" y="1317" type="line"/>
			<point x="954" y="1317" type="line"/>
			<point x="954" y="1317" type="line"/>
			<point x="954" y="1317" type="line"/>
			<point x="954" y="1289"/>
			<point x="926" y="1227"/>
			<point x="903" y="1192" type="qcurve" smooth="yes"/>
			<point x="709" y="897" type="line"/>
			<point x="524" y="1196" type="line" smooth="yes"/>
			<point x="507" y="1223"/>
			<point x="488" y="1259"/>
			<point x="478" y="1286"/>
			<point x="475" y="1306"/>
			<point x="475" y="1317" type="qcurve" smooth="yes"/>
			<point x="475" y="1329"/>
			<point x="485" y="1351"/>
			<point x="511" y="1367"/>
			<point x="557" y="1376"/>
			<point x="592" y="1376" type="qcurve" smooth="yes"/>
			<point x="598" y="1376" type="line"/>
			<point x="598" y="1462" type="line"/>
			<point x="43" y="1462" type="line"/>
			<point x="43" y="1376" type="line"/>
			<point x="70" y="1376" type="line" smooth="yes"/>
			<point x="116" y="1376"/>
			<point x="209" y="1327"/>
			<point x="246" y="1268" type="qcurve" smooth="yes"/>
			<point x="584" y="719" type="line"/>
			<point x="242" y="229" type="line" smooth="yes"/>
			<point x="214" y="189"/>
			<point x="168" y="135"/>
			<point x="121" y="101"/>
			<point x="66" y="86"/>
			<point x="29" y="86" type="qcurve" smooth="yes"/>
			<point x="16" y="86" type="line"/>
			<point x="16" y="0" type="line"/>
			<point x="504" y="0" type="line"/>
			<point x="504" y="86" type="line"/>
			<point x="498" y="86" type="line" smooth="yes"/>
			<point x="430" y="86"/>
			<point x="365" y="115"/>
			<point x="365" y="150" type="qcurve" smooth="yes"/>
			<point x="365" y="166"/>
			<point x="375" y="203"/>
			<point x="391" y="239"/>
			<point x="409" y="272"/>
			<point x="418" y="285" type="qcurve" smooth="yes"/>
			<point x="645" y="621" type="line"/>
			<point x="848" y="295" type="line" smooth="yes"/>
			<point x="869" y="261"/>
			<point x="896" y="217"/>
			<point x="910" y="187"/>
			<point x="915" y="165"/>
			<point x="915" y="154" type="qcurve" smooth="yes"/>
			<point x="915" y="86"/>
			<point x="793" y="86" type="qcurve" smooth="yes"/>
			<point x="782" y="86" type="line"/>
			<point x="782" y="0" type="line"/>
			<point x="1335" y="0" type="line"/>
			<point x="1335" y="86" type="line"/>
			<point x="1309" y="86" type="line" smooth="yes"/>
			<point x="1270" y="86"/>
			<point x="1190" y="135"/>
			<point x="1145" y="195" type="qcurve"/>
			<point x="768" y="801" type="line"/>
			<point x="1065" y="1229" type="line" smooth="yes"/>
			<point x="1094" y="1271"/>
			<point x="1143" y="1327"/>
			<point x="1189" y="1362"/>
			<point x="1238" y="1376"/>
			<point x="1268" y="1376" type="qcurve" smooth="yes"/>
			<point x="1286" y="1376" type="line"/>
			<point x="1286" y="1462" type="line"/>
			<point x="838" y="1462" type="line"/>
			<point x="838" y="1376" type="line"/>
			<point x="844" y="1376" type="line" smooth="yes"/>
			<point x="868" y="1376"/>
			<point x="908" y="1371"/>
			<point x="937" y="1358"/>
			<point x="954" y="1335"/>
		</contour>
	</outline>
</glyph>
<glyph name="Z" format="2">
	<advance width="1212"/>
	<unicode hex="005A"/>
	<note>
		Z
  </note>
	<outline>
		<contour>
			<point x="1094" y="1378" type="line"/>
			<point x="1094" y="1378" type="line"/>
			<point x="1094" y="1378" type="line"/>
			<point x="1094" y="1378" type="line"/>
			<point x="1094" y="1378" type="line"/>
			<point x="1094" y="1462" type="line"/>
			<point x="123" y="1462" type="line"/>
			<point x="113" y="1104" type="line"/>
			<point x="219" y="1104" type="line"/>
			<point x="229" y="1192" type="line" smooth="yes"/>
			<point x="233" y="1226"/>
			<point x="253" y="1287"/>
			<point x="291" y="1333"/>
			<point x="352" y="1360"/>
			<point x="397" y="1360" type="qcurve" smooth="yes"/>
			<point x="842" y="1360" type="line"/>
			<point x="74" y="82" type="line"/>
			<point x="74" y="0" type="line"/>
			<point x="1116" y="0" type="line"/>
			<point x="1126" y="358" type="line"/>
			<point x="1020" y="358" type="line"/>
			<point x="1010" y="270" type="line" smooth="yes"/>
			<point x="1006" y="236"/>
			<point x="986" y="175"/>
			<point x="948" y="129"/>
			<point x="886" y="102"/>
			<point x="840" y="102" type="qcurve" smooth="yes"/>
			<point x="324" y="102" type="line"/>
		</contour>
	</outline>
</glyph>
<glyph name="bracketleft" format="2">
	<advance width="737"/>
	<unicode hex="005B"/>
	<note>
		bracketleft
  </note>
	<outline>
		<contour>
			<point x="205" y="-262" type="line"/>
			<point x="205" y="-262" type="line"/>
			<point x="205" y="-262" type="line"/>
			<point x="205" y="-262" type="line"/>
			<point x="205" y="-262" type="line"/>
			<point x="662" y="-262" type="line"/>
			<point x="662" y="-176" type="line"/>
			<point x="573" y="-176" type="line" smooth="yes"/>
			<point x="539" y="-176"/>
			<point x="478" y="-166"/>
			<point x="432" y="-135"/>
			<point x="406" y="-77"/>
			<point x="406" y="-29" type="qcurve" smooth="yes"/>
			<point x="406" y="1323" type="line" smooth="yes"/>
			<point x="406" y="1371"/>
			<point x="432" y="1429"/>
			<point x="478" y="1460"/>
			<point x="539" y="1470"/>
			<point x="573" y="1470" type="qcurve" smooth="yes"/>
			<point x="662" y="1470" type="line"/>
			<point x="662" y="1556" type="line"/>
			<point x="205" y="1556" type="line"/>
		</contour>
	</outline>
</glyph>
<glyph name="backslash" format="2">
	<advance width="590"/>
	<unicode hex="005C"/>
	<note>
		backslash
  </note>
	<outline>
		<contour>
			<point x="0" y="1556" type="line"/>
			<point x="0" y="1556" type="line"/>
			<point x="469" y="-248" type="line"/>
			<point x="590" y="-248" type="line"/>
			<point x="119" y="1556" type="line"/>
		</contour>
	</outline>
</glyph>
<glyph name="bracketright" format="2">
	<advance width="737"/>
	<unicode hex="005D"/>
	<note>
		bracketright
  </note>
	<outline>
		<contour>
			<point x="76" y="-262" type="line"/>
			<point x="76" y="-262" type="line"/>
			<point x="76" y="-262" type="line"/>
			<point x="76" y="-262" type="line"/>
			<point x="76" y="-262" type="line"/>
			<point x="532" y="-262" type="line"/>
			<point x="532" y="1556" type="line"/>
			<point x="76" y="1556" type="line"/>
			<point x="76" y="1470" type="line"/>
			<point x="164" y="1470" type="line" smooth="yes"/>
			<point x="199" y="1470"/>
			<point x="260" y="1460"/>
			<point x="305" y="1429"/>
			<point x="332" y="1371"/>
			<point x="332" y="1323" type="qcurve" smooth="yes"/>
			<point x="332" y="-29" type="line" smooth="yes"/>
			<point x="332" y="-77"/>
			<point x="305" y="-135"/>
			<point x="260" y="-166"/>
			<point x="199" y="-176"/>
			<point x="164" y="-176" type="qcurve" smooth="yes"/>
			<point x="76" y="-176" type="line"/>
		</contour>
	</outline>
</glyph>
<glyph name="asciicircum" format="2">
	<advance width="1145"/>
	<unicode hex="005E"/>
	<note>
		asciicircum
  </note>
	<outline>
		<contour>
			<point x="535" y="1462" type="line"/>
			<point x="535" y="1462" type="line"/>
			<point x="104" y="545" type="line"/>
			<point x="242" y="545" type="line"/>
			<point x="569" y="1274" type="line"/>
			<point x="901" y="545" type="line"/>
			<point x="1038" y="545" type="line"/>
			<point x="606" y="1462" type="line"/>
		</contour>
	</outline>
</glyph>
<glyph name="underscore" format="2">
	<advance width="940"/>
	<unicode hex="005F"/>
	<note>
		underscore
  </note>
	<outline>
		<contour>
			<point x="950" y="-291" type="line"/>
			<point x="950" y="-291" type="line"/>
			<point x="950" y="-170" type="line"/>
			<point x="-10" y="-170" type="line"/>
			<point x="-10" y="-291" type="line"/>
		</contour>
	</outline>
</glyph>
<glyph name="grave" format="2">
	<advance width="1182"/>
	<unicode hex="0060"/>
	<note>
		grave
  </note>
	<outline>
		<contour>
			<point x="791" y="1241" type="line"/>
			<point x="791" y="1241" type="line"/>
			<point x="791" y="1241" type="line"/>
			<point x="791" y="1241" type="line"/>
			<point x="791" y="1241" type="line"/>
			<point x="791" y="1268" type="line"/>
			<point x="769" y="1297"/>
			<point x="719" y="1373"/>
			<point x="671" y="1454"/>
			<point x="628" y="1535"/>
			<point x="612" y="1569" type="qcurve"/>
			<point x="393" y="1569" type="line"/>
			<point x="393" y="1548" type="line"/>
			<point x="412" y="1521"/>
			<point x="486" y="1440"/>
			<point x="576" y="1352"/>
			<point x="672" y="1269"/>
			<point x="713" y="1241" type="qcurve"/>
		</contour>
	</outline>
</glyph>
<glyph name="a" format="2">
	<advance width="1153"/>
	<unicode hex="0061"/>
	<note>
		a
  </note>
	<outline>
		<contour>
			<point x="301" y="297" type="qcurve"/>
			<point x="301" y="297" type="line"/>
			<point x="301" y="297" type="line"/>
			<point x="301" y="297" type="line"/>
			<point x="301" y="297" type="line"/>
			<point x="301" y="357"/>
			<point x="332" y="449"/>
			<point x="404" y="512"/>
			<point x="521" y="547"/>
			<point x="608" y="551" type="qcurve" smooth="yes"/>
			<point x="739" y="557" type="line"/>
			<point x="739" y="391" type="line" smooth="yes"/>
			<point x="739" y="326"/>
			<point x="701" y="220"/>
			<point x="630" y="146"/>
			<point x="529" y="106"/>
			<point x="467" y="106" type="qcurve" smooth="yes"/>
			<point x="382" y="106"/>
			<point x="301" y="201"/>
		</contour>
		<contour>
			<point x="549" y="1016" type="qcurve"/>
			<point x="549" y="1016" type="line"/>
			<point x="549" y="1016" type="line"/>
			<point x="549" y="1016" type="line"/>
			<point x="549" y="1016" type="line"/>
			<point x="612" y="1016"/>
			<point x="687" y="979"/>
			<point x="727" y="912"/>
			<point x="739" y="819"/>
			<point x="739" y="764" type="qcurve" smooth="yes"/>
			<point x="739" y="641" type="line"/>
			<point x="569" y="635" type="line" smooth="yes"/>
			<point x="334" y="628"/>
			<point x="102" y="470"/>
			<point x="102" y="307" type="qcurve" smooth="yes"/>
			<point x="102" y="223"/>
			<point x="150" y="100"/>
			<point x="235" y="19"/>
			<point x="352" y="-20"/>
			<point x="420" y="-20" type="qcurve" smooth="yes"/>
			<point x="484" y="-20"/>
			<point x="575" y="9"/>
			<point x="647" y="61"/>
			<point x="707" y="133"/>
			<point x="739" y="176" type="qcurve"/>
			<point x="756" y="176" type="line"/>
			<point x="788" y="0" type="line"/>
			<point x="1065" y="0" type="line"/>
			<point x="1065" y="86" type="line"/>
			<point x="1059" y="86" type="line" smooth="yes"/>
			<point x="1025" y="86"/>
			<point x="976" y="100"/>
			<point x="946" y="134"/>
			<point x="932" y="190"/>
			<point x="932" y="233" type="qcurve" smooth="yes"/>
			<point x="932" y="764" type="line" smooth="yes"/>
			<point x="932" y="862"/>
			<point x="885" y="997"/>
			<point x="791" y="1081"/>
			<point x="651" y="1118"/>
			<point x="557" y="1118" type="qcurve" smooth="yes"/>
			<point x="481" y="1118"/>
			<point x="347" y="1096"/>
			<point x="246" y="1049"/>
			<point x="188" y="975"/>
			<point x="188" y="922" type="qcurve" smooth="yes"/>
			<point x="188" y="851"/>
			<point x="277" y="793"/>
			<point x="362" y="793" type="qcurve"/>
			<point x="362" y="841"/>
			<point x="376" y="923"/>
			<point x="417" y="983"/>
			<point x="490" y="1016"/>
		</contour>
	</outline>
</glyph>
<glyph name="b" format="2">
	<advance width="1257"/>
	<unicode hex="0062"/>
	<note>
		b
  </note>
	<outline>
		<contour>
			<point x="1145" y="551" type="qcurve"/>
			<point x="1145" y="551" type="line"/>
			<point x="1145" y="551" type="line"/>
			<point x="1145" y="551" type="line"/>
			<point x="1145" y="551" type="line"/>
			<point x="1145" y="698"/>
			<point x="1090" y="912"/>
			<point x="984" y="1051"/>
			<point x="828" y="1118"/>
			<point x="727" y="1118" type="qcurve" smooth="yes"/>
			<point x="667" y="1118"/>
			<point x="571" y="1089"/>
			<point x="495" y="1036"/>
			<point x="437" y="960"/>
			<point x="414" y="913" type="qcurve"/>
			<point x="406" y="913" type="line"/>
			<point x="408" y="964"/>
			<point x="410" y="1012" type="qcurve" smooth="yes"/>
			<point x="412" y="1054"/>
			<point x="414" y="1145"/>
			<point x="414" y="1180" type="qcurve" smooth="yes"/>
			<point x="414" y="1556" type="line"/>
			<point x="37" y="1556" type="line"/>
			<point x="37" y="1470" type="line"/>
			<point x="53" y="1470" type="line" smooth="yes"/>
			<point x="87" y="1470"/>
			<point x="148" y="1461"/>
			<point x="194" y="1431"/>
			<point x="221" y="1376"/>
			<point x="221" y="1331" type="qcurve" smooth="yes"/>
			<point x="221" y="233" type="line" smooth="yes"/>
			<point x="221" y="185"/>
			<point x="194" y="127"/>
			<point x="149" y="96"/>
			<point x="88" y="86"/>
			<point x="53" y="86" type="qcurve" smooth="yes"/>
			<point x="37" y="86" type="line"/>
			<point x="37" y="0" type="line"/>
			<point x="365" y="0" type="line"/>
			<point x="401" y="160" type="line"/>
			<point x="414" y="160" type="line"/>
			<point x="436" y="120"/>
			<point x="495" y="54"/>
			<point x="572" y="6"/>
			<point x="668" y="-20"/>
			<point x="727" y="-20" type="qcurve" smooth="yes"/>
			<point x="828" y="-20"/>
			<point x="984" y="47"/>
			<point x="1090" y="187"/>
			<point x="1145" y="403"/>
		</contour>
		<contour>
			<point x="692" y="987" type="qcurve"/>
			<point x="692" y="987" type="line"/>
			<point x="692" y="987" type="line"/>
			<point x="692" y="987" type="line"/>
			<point x="692" y="987" type="line"/>
			<point x="760" y="987"/>
			<point x="857" y="933"/>
			<point x="918" y="825"/>
			<point x="946" y="662"/>
			<point x="946" y="553" type="qcurve" smooth="yes"/>
			<point x="946" y="445"/>
			<point x="918" y="280"/>
			<point x="857" y="168"/>
			<point x="762" y="111"/>
			<point x="694" y="111" type="qcurve" smooth="yes"/>
			<point x="613" y="111"/>
			<point x="506" y="168"/>
			<point x="441" y="280"/>
			<point x="414" y="444"/>
			<point x="414" y="551" type="qcurve" smooth="yes"/>
			<point x="414" y="662"/>
			<point x="441" y="826"/>
			<point x="505" y="934"/>
			<point x="612" y="987"/>
		</contour>
	</outline>
</glyph>
<glyph name="e" format="2">
	<advance width="1096"/>
	<unicode hex="0065"/>
	<note>
		e
  </note>
	<outline>
		<contour>
			<point x="563" y="1008" type="qcurve"/>
			<point x="563" y="1008" type="line"/>
			<point x="563" y="1008" type="line"/>
			<point x="563" y="1008" type="line"/>
			<point x="563" y="1008" type="line"/>
			<point x="625" y="1008"/>
			<point x="710" y="956"/>
			<point x="762" y="860"/>
			<point x="786" y="726"/>
			<point x="786" y="645" type="qcurve"/>
			<point x="315" y="645" type="line"/>
			<point x="326" y="823"/>
			<point x="449" y="1008"/>
		</contour>
		<contour>
			<point x="588" y="-20" type="qcurve"/>
			<point x="588" y="-20" type="line"/>
			<point x="588" y="-20" type="line"/>
			<point x="588" y="-20" type="line"/>
			<point x="588" y="-20" type="line"/>
			<point x="679" y="-20"/>
			<point x="814" y="20"/>
			<point x="904" y="80"/>
			<point x="948" y="151"/>
			<point x="948" y="182" type="qcurve" smooth="yes"/>
			<point x="948" y="208"/>
			<point x="923" y="246"/>
			<point x="909" y="252" type="qcurve"/>
			<point x="891" y="224"/>
			<point x="834" y="173"/>
			<point x="760" y="133"/>
			<point x="669" y="109"/>
			<point x="616" y="109" type="qcurve" smooth="yes"/>
			<point x="543" y="109"/>
			<point x="431" y="158"/>
			<point x="354" y="262"/>
			<point x="313" y="423"/>
			<point x="311" y="535" type="qcurve"/>
			<point x="993" y="535" type="line"/>
			<point x="993" y="629" type="line" smooth="yes"/>
			<point x="993" y="750"/>
			<point x="934" y="933"/>
			<point x="824" y="1056"/>
			<point x="666" y="1118"/>
			<point x="567" y="1118" type="qcurve" smooth="yes"/>
			<point x="349" y="1118"/>
			<point x="113" y="828"/>
			<point x="113" y="541" type="qcurve" smooth="yes"/>
			<point x="113" y="408"/>
			<point x="178" y="199"/>
			<point x="300" y="55"/>
			<point x="477" y="-20"/>
		</contour>
	</outline>
</glyph>
<glyph name="f" format="2">
	<advance width="756"/>
	<unicode hex="0066"/>
	<note>
		f
  </note>
	<outline>
		<contour>
			<point x="688" y="86" type="line"/>
			<point x="688" y="86" type="line"/>
			<point x="688" y="86" type="line"/>
			<point x="688" y="86" type="line"/>
			<point x="688" y="86" type="line"/>
			<point x="610" y="86" type="line" smooth="yes"/>
			<point x="576" y="86"/>
			<point x="514" y="96"/>
			<point x="469" y="127"/>
			<point x="442" y="185"/>
			<point x="442" y="233" type="qcurve" smooth="yes"/>
			<point x="442" y="1001" type="line"/>
			<point x="731" y="1001" type="line"/>
			<point x="731" y="1098" type="line"/>
			<point x="442" y="1098" type="line"/>
			<point x="442" y="1219" type="line" smooth="yes"/>
			<point x="442" y="1284"/>
			<point x="457" y="1382"/>
			<point x="493" y="1449"/>
			<point x="552" y="1483"/>
			<point x="596" y="1483" type="qcurve" smooth="yes"/>
			<point x="635" y="1483"/>
			<point x="687" y="1455"/>
			<point x="718" y="1409"/>
			<point x="731" y="1350"/>
			<point x="731" y="1319" type="qcurve"/>
			<point x="768" y="1319"/>
			<point x="829" y="1334"/>
			<point x="874" y="1363"/>
			<point x="899" y="1406"/>
			<point x="899" y="1434" type="qcurve" smooth="yes"/>
			<point x="899" y="1466"/>
			<point x="869" y="1518"/>
			<point x="802" y="1556"/>
			<point x="692" y="1577"/>
			<point x="612" y="1577" type="qcurve" smooth="yes"/>
			<point x="528" y="1577"/>
			<point x="394" y="1528"/>
			<point x="300" y="1432"/>
			<point x="250" y="1292"/>
			<point x="250" y="1200" type="qcurve" smooth="yes"/>
			<point x="250" y="1098" type="line"/>
			<point x="63" y="1098" type="line"/>
			<point x="63" y="1001" type="line"/>
			<point x="250" y="1001" type="line"/>
			<point x="250" y="233" type="line" smooth="yes"/>
			<point x="250" y="185"/>
			<point x="223" y="127"/>
			<point x="178" y="96"/>
			<point x="117" y="86"/>
			<point x="82" y="86" type="qcurve" smooth="yes"/>
			<point x="55" y="86" type="line"/>
			<point x="55" y="0" type="line"/>
			<point x="688" y="0" type="line"/>
		</contour>
	</outline>
</glyph>
<glyph name="j" format="2">
	<advance width="614"/>
	<unicode hex="006A"/>
	<note>
		j
  </note>
	<outline>
		<contour>
			<point x="414" y="1098" type="line"/>
			<point x="414" y="1098" type="line"/>
			<point x="414" y="1098" type="line"/>
			<point x="414" y="1098" type="line"/>
			<point x="414" y="1098" type="line"/>
			<point x="47" y="1098" type="line"/>
			<point x="47" y="1012" type="line"/>
			<point x="53" y="1012" type="line" smooth="yes"/>
			<point x="87" y="1012"/>
			<point x="148" y="1002"/>
			<point x="194" y="972"/>
			<point x="221" y="917"/>
			<point x="221" y="872" type="qcurve" smooth="yes"/>
			<point x="221" y="-18" type="line" smooth="yes"/>
			<point x="221" y="-126"/>
			<point x="190" y="-271"/>
			<point x="131" y="-358"/>
			<point x="45" y="-395"/>
			<point x="-10" y="-395" type="qcurve" smooth="yes"/>
			<point x="-25" y="-395" type="line"/>
			<point x="-25" y="-492" type="line"/>
			<point x="8" y="-492" type="line" smooth="yes"/>
			<point x="97" y="-492"/>
			<point x="246" y="-446"/>
			<point x="354" y="-337"/>
			<point x="414" y="-154"/>
			<point x="414" y="-16" type="qcurve" smooth="yes"/>
		</contour>
		<contour>
			<point x="193" y="1430" type="qcurve"/>
			<point x="193" y="1430" type="line"/>
			<point x="193" y="1430" type="line"/>
			<point x="193" y="1430" type="line"/>
			<point x="193" y="1430" type="line"/>
			<point x="193" y="1394"/>
			<point x="211" y="1346"/>
			<point x="242" y="1316"/>
			<point x="285" y="1303"/>
			<point x="309" y="1303" type="qcurve" smooth="yes"/>
			<point x="333" y="1303"/>
			<point x="376" y="1316"/>
			<point x="407" y="1346"/>
			<point x="426" y="1394"/>
			<point x="426" y="1430" type="qcurve" smooth="yes"/>
			<point x="426" y="1466"/>
			<point x="407" y="1514"/>
			<point x="376" y="1544"/>
			<point x="333" y="1556"/>
			<point x="309" y="1556" type="qcurve" smooth="yes"/>
			<point x="285" y="1556"/>
			<point x="242" y="1544"/>
			<point x="211" y="1514"/>
			<point x="193" y="1466"/>
		</contour>
	</outline>
</glyph>
<glyph name="k" format="2">
	<advance width="1198"/>
	<unicode hex="006B"/>
	<note>
		k
  </note>
	<outline>
		<contour>
			<point x="694" y="659" type="line"/>
			<point x="694" y="659" type="line"/>
			<point x="694" y="659" type="line"/>
			<point x="694" y="659" type="line"/>
			<point x="694" y="659" type="line"/>
			<point x="838" y="821" type="line" smooth="yes"/>
			<point x="918" y="912"/>
			<point x="1055" y="1012"/>
			<point x="1126" y="1012" type="qcurve"/>
			<point x="1126" y="1098" type="line"/>
			<point x="674" y="1098" type="line"/>
			<point x="674" y="1012" type="line"/>
			<point x="725" y="1012"/>
			<point x="774" y="997"/>
			<point x="774" y="971" type="qcurve" smooth="yes"/>
			<point x="774" y="956"/>
			<point x="764" y="923"/>
			<point x="738" y="881"/>
			<point x="695" y="825"/>
			<point x="662" y="788" type="qcurve" smooth="yes"/>
			<point x="406" y="508" type="line"/>
			<point x="408" y="561"/>
			<point x="410" y="609" type="qcurve" smooth="yes"/>
			<point x="412" y="651"/>
			<point x="414" y="738"/>
			<point x="414" y="766" type="qcurve" smooth="yes"/>
			<point x="414" y="1556" type="line"/>
			<point x="37" y="1556" type="line"/>
			<point x="37" y="1470" type="line"/>
			<point x="53" y="1470" type="line" smooth="yes"/>
			<point x="87" y="1470"/>
			<point x="148" y="1461"/>
			<point x="194" y="1431"/>
			<point x="221" y="1376"/>
			<point x="221" y="1331" type="qcurve" smooth="yes"/>
			<point x="221" y="233" type="line" smooth="yes"/>
			<point x="221" y="185"/>
			<point x="194" y="127"/>
			<point x="149" y="96"/>
			<point x="88" y="86"/>
			<point x="53" y="86" type="qcurve" smooth="yes"/>
			<point x="37" y="86" type="line"/>
			<point x="37" y="0" type="line"/>
			<point x="588" y="0" type="line"/>
			<point x="588" y="86" type="line"/>
			<point x="582" y="86" type="line" smooth="yes"/>
			<point x="548" y="86"/>
			<point x="487" y="95"/>
			<point x="441" y="123"/>
			<point x="414" y="178"/>
			<point x="414" y="223" type="qcurve" smooth="yes"/>
			<point x="414" y="408" type="line"/>
			<point x="565" y="520" type="line"/>
			<point x="770" y="199" type="line" smooth="yes"/>
			<point x="813" y="131"/>
			<point x="883" y="52"/>
			<point x="967" y="11"/>
			<point x="1082" y="0"/>
			<point x="1171" y="0" type="qcurve" smooth="yes"/>
			<point x="1200" y="0" type="line"/>
			<point x="1200" y="86" type="line"/>
			<point x="1194" y="86" type="line" smooth="yes"/>
			<point x="1125" y="86"/>
			<point x="1020" y="172"/>
			<point x="967" y="254" type="qcurve" smooth="yes"/>
		</contour>
	</outline>
</glyph>
<glyph name="l" format="2">
	<advance width="635"/>
	<unicode hex="006C"/>
	<note>
		l
  </note>
	<outline>
		<contour>
			<point x="53" y="86" type="qcurve"/>
			<point x="53" y="86" type="line"/>
			<point x="53" y="86" type="line"/>
			<point x="53" y="86" type="line"/>
			<point x="53" y="86" type="line"/>
			<point x="27" y="86" type="line"/>
			<point x="27" y="0" type="line"/>
			<point x="608" y="0" type="line"/>
			<point x="608" y="86" type="line"/>
			<point x="582" y="86" type="line" smooth="yes"/>
			<point x="547" y="86"/>
			<point x="486" y="96"/>
			<point x="440" y="127"/>
			<point x="414" y="185"/>
			<point x="414" y="233" type="qcurve" smooth="yes"/>
			<point x="414" y="1556" type="line"/>
			<point x="27" y="1556" type="line"/>
			<point x="27" y="1470" type="line"/>
			<point x="53" y="1470" type="line" smooth="yes"/>
			<point x="87" y="1470"/>
			<point x="148" y="1461"/>
			<point x="194" y="1431"/>
			<point x="221" y="1376"/>
			<point x="221" y="1331" type="qcurve" smooth="yes"/>
			<point x="221" y="233" type="line" smooth="yes"/>
			<point x="221" y="185"/>
			<point x="194" y="127"/>
			<point x="149" y="96"/>
			<point x="88" y="86"/>
		</contour>
	</outline>
</glyph>
<glyph name="o" format="2">
	<advance width="1182"/>
	<unicode hex="006F"/>
	<note>
		o
  </note>
	<outline>
		<contour>
			<point x="1069" y="551" type="qcurve"/>
			<point x="1069" y="551" type="line"/>
			<point x="1069" y="551" type="line"/>
			<point x="1069" y="551" type="line"/>
			<point x="1069" y="551" type="line"/>
			<point x="1069" y="695"/>
			<point x="1004" y="908"/>
			<point x="881" y="1049"/>
			<point x="705" y="1118"/>
			<point x="594" y="1118" type="qcurve" smooth="yes"/>
			<point x="356" y="1118"/>
			<point x="113" y="838"/>
			<point x="113" y="551" type="qcurve" smooth="yes"/>
			<point x="113" y="407"/>
			<point x="178" y="192"/>
			<point x="301" y="50"/>
			<point x="477" y="-20"/>
			<point x="588" y="-20" type="qcurve" smooth="yes"/>
			<point x="824" y="-20"/>
			<point x="1069" y="262"/>
		</contour>
		<contour>
			<point x="311" y="551" type="qcurve"/>
			<point x="311" y="551" type="line"/>
			<point x="311" y="551" type="line"/>
			<point x="311" y="551" type="line"/>
			<point x="311" y="551" type="line"/>
			<point x="311" y="665"/>
			<point x="341" y="837"/>
			<point x="407" y="952"/>
			<point x="513" y="1010"/>
			<point x="590" y="1010" type="qcurve" smooth="yes"/>
			<point x="667" y="1010"/>
			<point x="774" y="952"/>
			<point x="840" y="837"/>
			<point x="870" y="665"/>
			<point x="870" y="551" type="qcurve" smooth="yes"/>
			<point x="870" y="437"/>
			<point x="841" y="263"/>
			<point x="775" y="146"/>
			<point x="669" y="86"/>
			<point x="592" y="86" type="qcurve" smooth="yes"/>
			<point x="515" y="86"/>
			<point x="408" y="146"/>
			<point x="341" y="263"/>
			<point x="311" y="437"/>
		</contour>
	</outline>
</glyph>
<glyph name="p" format="2">
	<advance width="1257"/>
	<unicode hex="0070"/>
	<note>
		p
  </note>
	<outline>
		<contour>
			<point x="692" y="987" type="qcurve"/>
			<point x="692" y="987" type="line"/>
			<point x="692" y="987" type="line"/>
			<point x="692" y="987" type="line"/>
			<point x="692" y="987" type="line"/>
			<point x="760" y="987"/>
			<point x="857" y="933"/>
			<point x="918" y="825"/>
			<point x="946" y="662"/>
			<point x="946" y="553" type="qcurve" smooth="yes"/>
			<point x="946" y="445"/>
			<point x="918" y="280"/>
			<point x="857" y="168"/>
			<point x="762" y="111"/>
			<point x="694" y="111" type="qcurve" smooth="yes"/>
			<point x="613" y="111"/>
			<point x="506" y="168"/>
			<point x="441" y="280"/>
			<point x="414" y="444"/>
			<point x="414" y="551" type="qcurve" smooth="yes"/>
			<point x="414" y="662"/>
			<point x="441" y="826"/>
			<point x="505" y="934"/>
			<point x="612" y="987"/>
		</contour>
		<contour>
			<point x="1145" y="551" type="qcurve"/>
			<point x="1145" y="551" type="line"/>
			<point x="1145" y="551" type="line"/>
			<point x="1145" y="551" type="line"/>
			<point x="1145" y="551" type="line"/>
			<point x="1145" y="698"/>
			<point x="1090" y="912"/>
			<point x="984" y="1051"/>
			<point x="828" y="1118"/>
			<point x="727" y="1118" type="qcurve" smooth="yes"/>
			<point x="667" y="1118"/>
			<point x="571" y="1089"/>
			<point x="495" y="1036"/>
			<point x="437" y="960"/>
			<point x="414" y="913" type="qcurve"/>
			<point x="406" y="913" type="line"/>
			<point x="385" y="1098" type="line"/>
			<point x="27" y="1098" type="line"/>
			<point x="27" y="1012" type="line"/>
			<point x="53" y="1012" type="line" smooth="yes"/>
			<point x="87" y="1012"/>
			<point x="148" y="1002"/>
			<point x="194" y="972"/>
			<point x="221" y="917"/>
			<point x="221" y="872" type="qcurve" smooth="yes"/>
			<point x="221" y="-258" type="line" smooth="yes"/>
			<point x="221" y="-306"/>
			<point x="194" y="-365"/>
			<point x="149" y="-396"/>
			<point x="88" y="-406"/>
			<point x="53" y="-406" type="qcurve" smooth="yes"/>
			<point x="37" y="-406" type="line"/>
			<point x="37" y="-492" type="line"/>
			<point x="588" y="-492" type="line"/>
			<point x="588" y="-406" type="line"/>
			<point x="582" y="-406" type="line" smooth="yes"/>
			<point x="548" y="-406"/>
			<point x="487" y="-397"/>
			<point x="441" y="-368"/>
			<point x="414" y="-313"/>
			<point x="414" y="-268" type="qcurve" smooth="yes"/>
			<point x="414" y="-72" type="line" smooth="yes"/>
			<point x="414" y="-64"/>
			<point x="413" y="-35"/>
			<point x="412" y="1"/>
			<point x="411" y="42"/>
			<point x="410" y="61" type="qcurve" smooth="yes"/>
			<point x="408" y="107"/>
			<point x="406" y="160" type="qcurve"/>
			<point x="414" y="160" type="line"/>
			<point x="436" y="120"/>
			<point x="495" y="54"/>
			<point x="572" y="6"/>
			<point x="668" y="-20"/>
			<point x="727" y="-20" type="qcurve" smooth="yes"/>
			<point x="828" y="-20"/>
			<point x="984" y="47"/>
			<point x="1090" y="187"/>
			<point x="1145" y="403"/>
		</contour>
	</outline>
</glyph>
<glyph name="r" format="2">
	<advance width="965"/>
	<unicode hex="0072"/>
	<note>
		r
  </note>
	<outline>
		<contour>
			<point x="659" y="0" type="line"/>
			<point x="659" y="0" type="line"/>
			<point x="659" y="0" type="line"/>
			<point x="659" y="0" type="line"/>
			<point x="659" y="0" type="line"/>
			<point x="659" y="86" type="line"/>
			<point x="602" y="86" type="line" smooth="yes"/>
			<point x="568" y="86"/>
			<point x="507" y="95"/>
			<point x="461" y="123"/>
			<point x="434" y="178"/>
			<point x="434" y="223" type="qcurve" smooth="yes"/>
			<point x="434" y="545" type="line" smooth="yes"/>
			<point x="434" y="584"/>
			<point x="442" y="680"/>
			<point x="461" y="777"/>
			<point x="492" y="869"/>
			<point x="537" y="940"/>
			<point x="597" y="983"/>
			<point x="635" y="983" type="qcurve" smooth="yes"/>
			<point x="695" y="983"/>
			<point x="743" y="908"/>
			<point x="743" y="823" type="qcurve"/>
			<point x="795" y="823"/>
			<point x="867" y="844"/>
			<point x="913" y="883"/>
			<point x="934" y="937"/>
			<point x="934" y="969" type="qcurve" smooth="yes"/>
			<point x="934" y="1040"/>
			<point x="825" y="1118"/>
			<point x="713" y="1118" type="qcurve" smooth="yes"/>
			<point x="645" y="1118"/>
			<point x="555" y="1083"/>
			<point x="494" y="1022"/>
			<point x="452" y="941"/>
			<point x="432" y="895" type="qcurve"/>
			<point x="422" y="895" type="line"/>
			<point x="383" y="1098" type="line"/>
			<point x="68" y="1098" type="line"/>
			<point x="68" y="1012" type="line"/>
			<point x="74" y="1012" type="line" smooth="yes"/>
			<point x="108" y="1012"/>
			<point x="169" y="1002"/>
			<point x="215" y="972"/>
			<point x="242" y="917"/>
			<point x="242" y="872" type="qcurve" smooth="yes"/>
			<point x="242" y="233" type="line" smooth="yes"/>
			<point x="242" y="185"/>
			<point x="215" y="127"/>
			<point x="170" y="96"/>
			<point x="109" y="86"/>
			<point x="74" y="86" type="qcurve" smooth="yes"/>
			<point x="68" y="86" type="line"/>
			<point x="68" y="0" type="line"/>
		</contour>
	</outline>
</glyph>
<glyph name="t" format="2">
	<advance width="721"/>
	<unicode hex="0074"/>
	<note>
		t
  </note>
	<outline>
		<contour>
			<point x="543" y="88" type="qcurve"/>
			<point x="543" y="88" type="line"/>
			<point x="543" y="88" type="line"/>
			<point x="543" y="88" type="line"/>
			<point x="543" y="88" type="line"/>
			<point x="472" y="88"/>
			<point x="387" y="186"/>
			<point x="387" y="291" type="qcurve" smooth="yes"/>
			<point x="387" y="981" type="line"/>
			<point x="655" y="981" type="line"/>
			<point x="655" y="1098" type="line"/>
			<point x="387" y="1098" type="line"/>
			<point x="387" y="1350" type="line"/>
			<point x="293" y="1350" type="line"/>
			<point x="277" y="1271"/>
			<point x="234" y="1166"/>
			<point x="199" y="1128" type="qcurve" smooth="yes"/>
			<point x="165" y="1093"/>
			<point x="76" y="1063"/>
			<point x="39" y="1063" type="qcurve"/>
			<point x="39" y="981" type="line"/>
			<point x="195" y="981" type="line"/>
			<point x="195" y="297" type="line" smooth="yes"/>
			<point x="195" y="209"/>
			<point x="230" y="87"/>
			<point x="302" y="13"/>
			<point x="414" y="-20"/>
			<point x="492" y="-20" type="qcurve" smooth="yes"/>
			<point x="516" y="-20"/>
			<point x="570" y="-15"/>
			<point x="619" y="-6"/>
			<point x="661" y="6"/>
			<point x="674" y="12" type="qcurve"/>
			<point x="674" y="102" type="line"/>
			<point x="642" y="96"/>
			<point x="580" y="88"/>
		</contour>
	</outline>
</glyph>
<glyph name="u" format="2">
	<advance width="1300"/>
	<unicode hex="0075"/>
	<note>
		u
  </note>
	<outline>
		<contour>
			<point x="1079" y="223" type="qcurve"/>
			<point x="1079" y="223" type="line"/>
			<point x="1079" y="223" type="line"/>
			<point x="1079" y="223" type="line"/>
			<point x="1079" y="223" type="line"/>
			<point x="1079" y="1098" type="line"/>
			<point x="713" y="1098" type="line"/>
			<point x="713" y="1012" type="line"/>
			<point x="719" y="1012" type="line" smooth="yes"/>
			<point x="754" y="1012"/>
			<point x="815" y="1002"/>
			<point x="860" y="971"/>
			<point x="887" y="912"/>
			<point x="887" y="864" type="qcurve" smooth="yes"/>
			<point x="887" y="442" type="line" smooth="yes"/>
			<point x="887" y="368"/>
			<point x="857" y="246"/>
			<point x="794" y="159"/>
			<point x="697" y="111"/>
			<point x="629" y="111" type="qcurve" smooth="yes"/>
			<point x="567" y="111"/>
			<point x="484" y="148"/>
			<point x="435" y="220"/>
			<point x="414" y="324"/>
			<point x="414" y="391" type="qcurve" smooth="yes"/>
			<point x="414" y="1098" type="line"/>
			<point x="47" y="1098" type="line"/>
			<point x="47" y="1012" type="line"/>
			<point x="53" y="1012" type="line" smooth="yes"/>
			<point x="87" y="1012"/>
			<point x="148" y="1002"/>
			<point x="194" y="972"/>
			<point x="221" y="917"/>
			<point x="221" y="872" type="qcurve" smooth="yes"/>
			<point x="221" y="381" type="line" smooth="yes"/>
			<point x="221" y="276"/>
			<point x="266" y="124"/>
			<point x="352" y="26"/>
			<point x="478" y="-20"/>
			<point x="559" y="-20" type="qcurve" smooth="yes"/>
			<point x="609" y="-20"/>
			<point x="701" y="-5"/>
			<point x="785" y="36"/>
			<point x="860" y="108"/>
			<point x="891" y="166" type="qcurve"/>
			<point x="901" y="166" type="line"/>
			<point x="928" y="0" type="line"/>
			<point x="1253" y="0" type="line"/>
			<point x="1253" y="86" type="line"/>
			<point x="1247" y="86" type="line" smooth="yes"/>
			<point x="1213" y="86"/>
			<point x="1152" y="95"/>
			<point x="1106" y="123"/>
			<point x="1079" y="178"/>
		</contour>
	</outline>
</glyph>
<glyph name="y" format="2">
	<advance width="1157"/>
	<unicode hex="0079"/>
	<note>
		y
  </note>
	<outline>
		<contour>
			<point x="1157" y="1098" type="line"/>
			<point x="1157" y="1098" type="line"/>
			<point x="1157" y="1098" type="line"/>
			<point x="1157" y="1098" type="line"/>
			<point x="1157" y="1098" type="line"/>
			<point x="731" y="1098" type="line"/>
			<point x="731" y="1012" type="line"/>
			<point x="737" y="1012" type="line" smooth="yes"/>
			<point x="805" y="1012"/>
			<point x="872" y="964"/>
			<point x="872" y="911" type="qcurve" smooth="yes"/>
			<point x="872" y="894"/>
			<point x="863" y="848"/>
			<point x="854" y="823" type="qcurve" smooth="yes"/>
			<point x="717" y="424" type="line" smooth="yes"/>
			<point x="691" y="350"/>
			<point x="652" y="221"/>
			<point x="641" y="176" type="qcurve"/>
			<point x="635" y="176" type="line"/>
			<point x="631" y="202"/>
			<point x="609" y="274"/>
			<point x="582" y="355"/>
			<point x="551" y="438"/>
			<point x="537" y="473" type="qcurve" smooth="yes"/>
			<point x="387" y="838" type="line" smooth="yes"/>
			<point x="378" y="861"/>
			<point x="371" y="896"/>
			<point x="371" y="913" type="qcurve" smooth="yes"/>
			<point x="371" y="964"/>
			<point x="432" y="1012"/>
			<point x="494" y="1012" type="qcurve" smooth="yes"/>
			<point x="500" y="1012" type="line"/>
			<point x="500" y="1098" type="line"/>
			<point x="8" y="1098" type="line"/>
			<point x="8" y="1012" type="line"/>
			<point x="14" y="1012" type="line" smooth="yes"/>
			<point x="44" y="1012"/>
			<point x="87" y="1002"/>
			<point x="120" y="976"/>
			<point x="146" y="935"/>
			<point x="160" y="903" type="qcurve" smooth="yes"/>
			<point x="539" y="8" type="line"/>
			<point x="514" y="-78"/>
			<point x="441" y="-225"/>
			<point x="332" y="-333"/>
			<point x="182" y="-395"/>
			<point x="78" y="-395" type="qcurve"/>
			<point x="78" y="-492" type="line"/>
			<point x="96" y="-492" type="line" smooth="yes"/>
			<point x="187" y="-492"/>
			<point x="325" y="-476"/>
			<point x="431" y="-434"/>
			<point x="514" y="-364"/>
			<point x="584" y="-257"/>
			<point x="648" y="-107"/>
			<point x="684" y="-8" type="qcurve" smooth="yes"/>
			<point x="995" y="852" type="line" smooth="yes"/>
			<point x="1013" y="901"/>
			<point x="1043" y="963"/>
			<point x="1078" y="999"/>
			<point x="1121" y="1012"/>
			<point x="1151" y="1012" type="qcurve" smooth="yes"/>
			<point x="1157" y="1012" type="line"/>
		</contour>
	</outline>
</glyph>
<glyph name="z" format="2">
	<advance width="1047"/>
	<unicode hex="007A"/>
	<note>
		z
  </note>
	<outline>
		<contour>
			<point x="696" y="117" type="qcurve"/>
			<point x="696" y="117" type="line"/>
			<point x="696" y="117" type="line"/>
			<point x="696" y="117" type="line"/>
			<point x="696" y="117" type="line"/>
			<point x="324" y="117" type="line"/>
			<point x="920" y="1014" type="line"/>
			<point x="920" y="1098" type="line"/>
			<point x="135" y="1098" type="line"/>
			<point x="115" y="807" type="line"/>
			<point x="201" y="807" type="line"/>
			<point x="203" y="815" type="line" smooth="yes"/>
			<point x="214" y="856"/>
			<point x="235" y="918"/>
			<point x="268" y="960"/>
			<point x="320" y="981"/>
			<point x="360" y="981" type="qcurve" smooth="yes"/>
			<point x="680" y="981" type="line"/>
			<point x="86" y="82" type="line"/>
			<point x="86" y="0" type="line"/>
			<point x="922" y="0" type="line"/>
			<point x="932" y="332" type="line"/>
			<point x="846" y="332" type="line"/>
			<point x="836" y="285" type="line" smooth="yes"/>
			<point x="829" y="252"/>
			<point x="810" y="191"/>
			<point x="779" y="145"/>
			<point x="732" y="117"/>
		</contour>
	</outline>
</glyph>
<glyph name="braceleft" format="2">
	<advance width="877"/>
	<unicode hex="007B"/>
	<note>
		braceleft
  </note>
	<outline>
		<contour>
			<point x="639" y="-262" type="qcurve"/>
			<point x="639" y="-262" type="line"/>
			<point x="639" y="-262" type="line"/>
			<point x="639" y="-262" type="line"/>
			<point x="639" y="-262" type="line"/>
			<point x="774" y="-262" type="line"/>
			<point x="774" y="-174" type="line"/>
			<point x="713" y="-174" type="line" smooth="yes"/>
			<point x="622" y="-174"/>
			<point x="545" y="-64"/>
			<point x="545" y="41" type="qcurve" smooth="yes"/>
			<point x="545" y="395" type="line" smooth="yes"/>
			<point x="545" y="497"/>
			<point x="435" y="629"/>
			<point x="317" y="649" type="qcurve"/>
			<point x="317" y="651" type="line"/>
			<point x="432" y="670"/>
			<point x="545" y="803"/>
			<point x="545" y="903" type="qcurve" smooth="yes"/>
			<point x="545" y="1253" type="line" smooth="yes"/>
			<point x="545" y="1360"/>
			<point x="622" y="1468"/>
			<point x="713" y="1468" type="qcurve" smooth="yes"/>
			<point x="774" y="1468" type="line"/>
			<point x="774" y="1556" type="line"/>
			<point x="639" y="1556" type="line" smooth="yes"/>
			<point x="493" y="1556"/>
			<point x="344" y="1404"/>
			<point x="344" y="1264" type="qcurve" smooth="yes"/>
			<point x="344" y="907" type="line" smooth="yes"/>
			<point x="344" y="845"/>
			<point x="307" y="763"/>
			<point x="241" y="714"/>
			<point x="153" y="694"/>
			<point x="102" y="692" type="qcurve"/>
			<point x="102" y="606" type="line"/>
			<point x="153" y="604"/>
			<point x="241" y="583"/>
			<point x="307" y="534"/>
			<point x="344" y="452"/>
			<point x="344" y="389" type="qcurve" smooth="yes"/>
			<point x="344" y="33" type="line" smooth="yes"/>
			<point x="344" y="-35"/>
			<point x="382" y="-144"/>
			<point x="456" y="-220"/>
			<point x="567" y="-262"/>
		</contour>
	</outline>
</glyph>
<glyph name="bar" format="2">
	<advance width="1145"/>
	<unicode hex="007C"/>
	<note>
		bar
  </note>
	<outline>
		<contour>
			<point x="633" y="-492" type="line"/>
			<point x="633" y="-492" type="line"/>
			<point x="633" y="1556" type="line"/>
			<point x="510" y="1556" type="line"/>
			<point x="510" y="-492" type="line"/>
		</contour>
	</outline>
</glyph>
<glyph name="braceright" format="2">
	<advance width="877"/>
	<unicode hex="007D"/>
	<note>
		braceright
  </note>
	<outline>
		<contour>
			<point x="102" y="-174" type="line"/>
			<point x="102" y="-174" type="line"/>
			<point x="102" y="-174" type="line"/>
			<point x="102" y="-174" type="line"/>
			<point x="102" y="-174" type="line"/>
			<point x="102" y="-262" type="line"/>
			<point x="238" y="-262" type="line" smooth="yes"/>
			<point x="310" y="-262"/>
			<point x="420" y="-220"/>
			<point x="494" y="-144"/>
			<point x="532" y="-35"/>
			<point x="532" y="33" type="qcurve" smooth="yes"/>
			<point x="532" y="389" type="line" smooth="yes"/>
			<point x="532" y="452"/>
			<point x="570" y="534"/>
			<point x="635" y="583"/>
			<point x="723" y="604"/>
			<point x="774" y="606" type="qcurve"/>
			<point x="774" y="692" type="line"/>
			<point x="723" y="694"/>
			<point x="635" y="714"/>
			<point x="570" y="763"/>
			<point x="532" y="845"/>
			<point x="532" y="907" type="qcurve" smooth="yes"/>
			<point x="532" y="1264" type="line" smooth="yes"/>
			<point x="532" y="1404"/>
			<point x="383" y="1556"/>
			<point x="238" y="1556" type="qcurve" smooth="yes"/>
			<point x="102" y="1556" type="line"/>
			<point x="102" y="1468" type="line"/>
			<point x="164" y="1468" type="line" smooth="yes"/>
			<point x="255" y="1468"/>
			<point x="332" y="1360"/>
			<point x="332" y="1253" type="qcurve" smooth="yes"/>
			<point x="332" y="903" type="line" smooth="yes"/>
			<point x="332" y="803"/>
			<point x="445" y="670"/>
			<point x="559" y="651" type="qcurve"/>
			<point x="559" y="649" type="line"/>
			<point x="441" y="629"/>
			<point x="332" y="497"/>
			<point x="332" y="395" type="qcurve" smooth="yes"/>
			<point x="332" y="41" type="line" smooth="yes"/>
			<point x="332" y="-64"/>
			<point x="255" y="-174"/>
			<point x="164" y="-174" type="qcurve" smooth="yes"/>
		</contour>
	</outline>
</glyph>
<glyph name="asciitilde" format="2">
	<advance width="1145"/>
	<unicode hex="007E"/>
	<note>
		asciitilde
  </note>
	<outline>
		<contour>
			<point x="774" y="551" type="qcurve"/>
			<point x="774" y="551" type="line"/>
			<point x="774" y="551" type="line"/>
			<point x="774" y="551" type="line"/>
			<point x="774" y="551" type="line"/>
			<point x="847" y="551"/>
			<point x="940" y="615"/>
			<point x="997" y="717"/>
			<point x="1025" y="845"/>
			<point x="1032" y="909" type="qcurve"/>
			<point x="909" y="909" type="line"/>
			<point x="895" y="795"/>
			<point x="841" y="672"/>
			<point x="784" y="672" type="qcurve" smooth="yes"/>
			<point x="763" y="672"/>
			<point x="721" y="689"/>
			<point x="680" y="717"/>
			<point x="638" y="754"/>
			<point x="616" y="774" type="qcurve" smooth="yes"/>
			<point x="592" y="795"/>
			<point x="535" y="843"/>
			<point x="471" y="883"/>
			<point x="403" y="909"/>
			<point x="369" y="909" type="qcurve" smooth="yes"/>
			<point x="293" y="909"/>
			<point x="198" y="845"/>
			<point x="142" y="743"/>
			<point x="117" y="615"/>
			<point x="111" y="551" type="qcurve"/>
			<point x="231" y="551" type="line"/>
			<point x="242" y="672"/>
			<point x="300" y="788"/>
			<point x="360" y="788" type="qcurve" smooth="yes"/>
			<point x="383" y="788"/>
			<point x="427" y="770"/>
			<point x="470" y="740"/>
			<point x="514" y="701"/>
			<point x="537" y="680" type="qcurve" smooth="yes"/>
			<point x="560" y="659"/>
			<point x="617" y="614"/>
			<point x="680" y="576"/>
			<point x="744" y="551"/>
		</contour>
	</outline>
</glyph>
<glyph name="cent" format="2">
	<advance width="1145"/>
	<unicode hex="00A2"/>
	<note>
		cent
  </note>
	<outline>
		<contour>
			<point x="584" y="180" type="qcurve"/>
			<point x="584" y="180" type="line"/>
			<point x="584" y="180" type="line"/>
			<point x="584" y="180" type="line"/>
			<point x="584" y="180" type="line"/>
			<point x="584" y="0" type="line"/>
			<point x="686" y="0" type="line"/>
			<point x="686" y="176" type="line"/>
			<point x="777" y="178"/>
			<point x="930" y="222"/>
			<point x="983" y="250" type="qcurve"/>
			<point x="983" y="362" type="line"/>
			<point x="959" y="351"/>
			<point x="891" y="328"/>
			<point x="813" y="309"/>
			<point x="728" y="297"/>
			<point x="686" y="297" type="qcurve"/>
			<point x="686" y="1206" type="line"/>
			<point x="724" y="1199"/>
			<point x="780" y="1157"/>
			<point x="816" y="1096"/>
			<point x="834" y="1019"/>
			<point x="834" y="977" type="qcurve"/>
			<point x="925" y="977"/>
			<point x="1016" y="1035"/>
			<point x="1016" y="1106" type="qcurve" smooth="yes"/>
			<point x="1016" y="1154"/>
			<point x="957" y="1228"/>
			<point x="863" y="1279"/>
			<point x="745" y="1308"/>
			<point x="686" y="1313" type="qcurve"/>
			<point x="686" y="1462" type="line"/>
			<point x="584" y="1462" type="line"/>
			<point x="584" y="1313" type="line"/>
			<point x="496" y="1305"/>
			<point x="342" y="1238"/>
			<point x="228" y="1103"/>
			<point x="162" y="891"/>
			<point x="162" y="739" type="qcurve" smooth="yes"/>
			<point x="162" y="597"/>
			<point x="224" y="394"/>
			<point x="336" y="261"/>
			<point x="491" y="190"/>
		</contour>
		<contour>
			<point x="360" y="741" type="qcurve"/>
			<point x="360" y="741" type="line"/>
			<point x="360" y="741" type="line"/>
			<point x="360" y="741" type="line"/>
			<point x="360" y="741" type="line"/>
			<point x="360" y="862"/>
			<point x="393" y="1031"/>
			<point x="453" y="1140"/>
			<point x="535" y="1197"/>
			<point x="584" y="1206" type="qcurve"/>
			<point x="584" y="309" type="line"/>
			<point x="469" y="340"/>
			<point x="360" y="558"/>
		</contour>
	</outline>
</glyph>
<glyph name="sterling" format="2">
	<advance width="1145"/>
	<unicode hex="00A3"/>
	<note>
		sterling
  </note>
	<outline>
		<contour>
			<point x="500" y="690" type="qcurve"/>
			<point x="500" y="690" type="line"/>
			<point x="500" y="690" type="line"/>
			<point x="500" y="690" type="line"/>
			<point x="500" y="690" type="line"/>
			<point x="819" y="690" type="line"/>
			<point x="819" y="786" type="line"/>
			<point x="471" y="786" type="line"/>
			<point x="459" y="816"/>
			<point x="431" y="891"/>
			<point x="407" y="976"/>
			<point x="391" y="1068"/>
			<point x="391" y="1116" type="qcurve" smooth="yes"/>
			<point x="391" y="1244"/>
			<point x="502" y="1380"/>
			<point x="621" y="1380" type="qcurve" smooth="yes"/>
			<point x="686" y="1380"/>
			<point x="767" y="1334"/>
			<point x="812" y="1261"/>
			<point x="829" y="1168"/>
			<point x="829" y="1120" type="qcurve"/>
			<point x="904" y="1120"/>
			<point x="991" y="1187"/>
			<point x="991" y="1253" type="qcurve" smooth="yes"/>
			<point x="991" y="1302"/>
			<point x="952" y="1386"/>
			<point x="866" y="1448"/>
			<point x="728" y="1483"/>
			<point x="629" y="1483" type="qcurve" smooth="yes"/>
			<point x="532" y="1483"/>
			<point x="377" y="1433"/>
			<point x="269" y="1338"/>
			<point x="211" y="1200"/>
			<point x="211" y="1112" type="qcurve" smooth="yes"/>
			<point x="211" y="1070"/>
			<point x="225" y="981"/>
			<point x="247" y="896"/>
			<point x="275" y="818"/>
			<point x="289" y="786" type="qcurve"/>
			<point x="100" y="786" type="line"/>
			<point x="100" y="690" type="line"/>
			<point x="328" y="690" type="line"/>
			<point x="349" y="634"/>
			<point x="379" y="519"/>
			<point x="379" y="459" type="qcurve" smooth="yes"/>
			<point x="379" y="398"/>
			<point x="341" y="294"/>
			<point x="281" y="209"/>
			<point x="206" y="144"/>
			<point x="168" y="121" type="qcurve" smooth="yes"/>
			<point x="131" y="98" type="line"/>
			<point x="131" y="-10" type="line"/>
			<point x="158" y="2" type="line" smooth="yes"/>
			<point x="224" y="33"/>
			<point x="342" y="72"/>
			<point x="410" y="72" type="qcurve" smooth="yes"/>
			<point x="465" y="72"/>
			<point x="568" y="43"/>
			<point x="668" y="9"/>
			<point x="766" y="-20"/>
			<point x="817" y="-20" type="qcurve" smooth="yes"/>
			<point x="868" y="-20"/>
			<point x="951" y="8"/>
			<point x="1017" y="52"/>
			<point x="1067" y="106"/>
			<point x="1085" y="131" type="qcurve"/>
			<point x="1085" y="264" type="line"/>
			<point x="1066" y="241"/>
			<point x="1021" y="198"/>
			<point x="967" y="164"/>
			<point x="906" y="143"/>
			<point x="870" y="143" type="qcurve" smooth="yes"/>
			<point x="839" y="143"/>
			<point x="750" y="167"/>
			<point x="653" y="197"/>
			<point x="555" y="221"/>
			<point x="514" y="221" type="qcurve" smooth="yes"/>
			<point x="480" y="221"/>
			<point x="407" y="204"/>
			<point x="365" y="184" type="qcurve"/>
			<point x="360" y="193" type="line"/>
			<point x="442" y="248"/>
			<point x="541" y="383"/>
			<point x="541" y="471" type="qcurve" smooth="yes"/>
			<point x="541" y="533"/>
			<point x="515" y="639"/>
		</contour>
	</outline>
</glyph>
<glyph name="currency" format="2">
	<advance width="1145"/>
	<unicode hex="00A4"/>
	<note>
		currency
  </note>
	<outline>
		<contour>
			<point x="197" y="733" type="qcurve"/>
			<point x="197" y="733" type="line"/>
			<point x="197" y="733" type="line"/>
			<point x="197" y="733" type="line"/>
			<point x="197" y="733" type="line"/>
			<point x="197" y="671"/>
			<point x="232" y="560"/>
			<point x="264" y="514" type="qcurve"/>
			<point x="131" y="379" type="line"/>
			<point x="217" y="293" type="line"/>
			<point x="352" y="428" type="line"/>
			<point x="399" y="394"/>
			<point x="509" y="358"/>
			<point x="571" y="358" type="qcurve" smooth="yes"/>
			<point x="633" y="358"/>
			<point x="744" y="396"/>
			<point x="791" y="428" type="qcurve"/>
			<point x="928" y="293" type="line"/>
			<point x="1012" y="379" type="line"/>
			<point x="877" y="514" type="line"/>
			<point x="911" y="560"/>
			<point x="948" y="671"/>
			<point x="948" y="733" type="qcurve" smooth="yes"/>
			<point x="948" y="795"/>
			<point x="911" y="906"/>
			<point x="877" y="952" type="qcurve"/>
			<point x="1012" y="1087" type="line"/>
			<point x="926" y="1176" type="line"/>
			<point x="788" y="1038" type="line"/>
			<point x="742" y="1072"/>
			<point x="631" y="1110"/>
			<point x="571" y="1110" type="qcurve" smooth="yes"/>
			<point x="508" y="1110"/>
			<point x="397" y="1072"/>
			<point x="350" y="1038" type="qcurve"/>
			<point x="217" y="1174" type="line"/>
			<point x="131" y="1087" type="line"/>
			<point x="266" y="952" type="line"/>
			<point x="232" y="906"/>
			<point x="197" y="795"/>
		</contour>
		<contour>
			<point x="311" y="733" type="qcurve"/>
			<point x="311" y="733" type="line"/>
			<point x="311" y="733" type="line"/>
			<point x="311" y="733" type="line"/>
			<point x="311" y="733" type="line"/>
			<point x="311" y="789"/>
			<point x="352" y="885"/>
			<point x="423" y="956"/>
			<point x="517" y="997"/>
			<point x="571" y="997" type="qcurve" smooth="yes"/>
			<point x="627" y="997"/>
			<point x="723" y="956"/>
			<point x="793" y="885"/>
			<point x="834" y="789"/>
			<point x="834" y="733" type="qcurve" smooth="yes"/>
			<point x="834" y="679"/>
			<point x="793" y="584"/>
			<point x="723" y="513"/>
			<point x="627" y="471"/>
			<point x="571" y="471" type="qcurve" smooth="yes"/>
			<point x="517" y="471"/>
			<point x="423" y="513"/>
			<point x="352" y="584"/>
			<point x="311" y="679"/>
		</contour>
	</outline>
</glyph>
<glyph name="yen" format="2">
	<advance width="1145"/>
	<unicode hex="00A5"/>
	<note>
		yen
  </note>
	<outline>
		<contour>
			<point x="264" y="0" type="line"/>
			<point x="264" y="0" type="line"/>
			<point x="264" y="0" type="line"/>
			<point x="264" y="0" type="line"/>
			<point x="264" y="0" type="line"/>
			<point x="893" y="0" type="line"/>
			<point x="893" y="86" type="line"/>
			<point x="846" y="86" type="line" smooth="yes"/>
			<point x="811" y="86"/>
			<point x="750" y="96"/>
			<point x="705" y="127"/>
			<point x="678" y="185"/>
			<point x="678" y="233" type="qcurve" smooth="yes"/>
			<point x="678" y="362" type="line"/>
			<point x="965" y="362" type="line"/>
			<point x="965" y="459" type="line"/>
			<point x="678" y="459" type="line"/>
			<point x="678" y="602" type="line"/>
			<point x="965" y="602" type="line"/>
			<point x="965" y="698" type="line"/>
			<point x="711" y="698" type="line"/>
			<point x="961" y="1217" type="line" smooth="yes"/>
			<point x="984" y="1264"/>
			<point x="1019" y="1326"/>
			<point x="1052" y="1362"/>
			<point x="1090" y="1376"/>
			<point x="1116" y="1376" type="qcurve" smooth="yes"/>
			<point x="1135" y="1376" type="line"/>
			<point x="1135" y="1462" type="line"/>
			<point x="717" y="1462" type="line"/>
			<point x="717" y="1376" type="line"/>
			<point x="723" y="1376" type="line" smooth="yes"/>
			<point x="791" y="1376"/>
			<point x="848" y="1336"/>
			<point x="848" y="1294" type="qcurve" smooth="yes"/>
			<point x="848" y="1271"/>
			<point x="823" y="1180"/>
			<point x="799" y="1126" type="qcurve" smooth="yes"/>
			<point x="682" y="877" type="line" smooth="yes"/>
			<point x="672" y="856"/>
			<point x="647" y="803"/>
			<point x="624" y="752"/>
			<point x="606" y="709"/>
			<point x="602" y="698" type="qcurve"/>
			<point x="596" y="718"/>
			<point x="576" y="780"/>
			<point x="551" y="852"/>
			<point x="523" y="926"/>
			<point x="508" y="958" type="qcurve" smooth="yes"/>
			<point x="410" y="1176" type="line" smooth="yes"/>
			<point x="393" y="1211"/>
			<point x="377" y="1272"/>
			<point x="377" y="1296" type="qcurve" smooth="yes"/>
			<point x="377" y="1338"/>
			<point x="432" y="1376"/>
			<point x="494" y="1376" type="qcurve" smooth="yes"/>
			<point x="508" y="1376" type="line"/>
			<point x="508" y="1462" type="line"/>
			<point x="10" y="1462" type="line"/>
			<point x="10" y="1376" type="line"/>
			<point x="16" y="1376" type="line" smooth="yes"/>
			<point x="46" y="1376"/>
			<point x="88" y="1365"/>
			<point x="121" y="1339"/>
			<point x="147" y="1298"/>
			<point x="162" y="1268" type="qcurve" smooth="yes"/>
			<point x="440" y="698" type="line"/>
			<point x="193" y="698" type="line"/>
			<point x="193" y="602" type="line"/>
			<point x="479" y="602" type="line"/>
			<point x="479" y="459" type="line"/>
			<point x="193" y="459" type="line"/>
			<point x="193" y="362" type="line"/>
			<point x="479" y="362" type="line"/>
			<point x="479" y="223" type="line" smooth="yes"/>
			<point x="477" y="178"/>
			<point x="450" y="123"/>
			<point x="405" y="95"/>
			<point x="345" y="86"/>
			<point x="311" y="86" type="qcurve" smooth="yes"/>
			<point x="264" y="86" type="line"/>
		</contour>
	</outline>
</glyph>
<glyph name="brokenbar" format="2">
	<advance width="1145"/>
	<unicode hex="00A6"/>
	<note>
		brokenbar
  </note>
	<outline>
		<contour>
			<point x="633" y="737" type="line"/>
			<point x="633" y="737" type="line"/>
			<point x="633" y="1556" type="line"/>
			<point x="510" y="1556" type="line"/>
			<point x="510" y="737" type="line"/>
		</contour>
		<contour>
			<point x="633" y="-492" type="line"/>
			<point x="633" y="-492" type="line"/>
			<point x="633" y="328" type="line"/>
			<point x="510" y="328" type="line"/>
			<point x="510" y="-492" type="line"/>
		</contour>
	</outline>
</glyph>
<glyph name="dieresis" format="2">
	<advance width="1182"/>
	<unicode hex="00A8"/>
	<note>
		dieresis
  </note>
	<outline>
		<contour>
			<point x="291" y="1409" type="qcurve"/>
			<point x="291" y="1409" type="line"/>
			<point x="291" y="1409" type="line"/>
			<point x="291" y="1409" type="line"/>
			<point x="291" y="1409" type="line"/>
			<point x="291" y="1346"/>
			<point x="350" y="1294"/>
			<point x="395" y="1294" type="qcurve" smooth="yes"/>
			<point x="417" y="1294"/>
			<point x="455" y="1306"/>
			<point x="484" y="1334"/>
			<point x="500" y="1378"/>
			<point x="500" y="1409" type="qcurve" smooth="yes"/>
			<point x="500" y="1441"/>
			<point x="484" y="1485"/>
			<point x="455" y="1512"/>
			<point x="417" y="1524"/>
			<point x="395" y="1524" type="qcurve" smooth="yes"/>
			<point x="373" y="1524"/>
			<point x="335" y="1512"/>
			<point x="307" y="1485"/>
			<point x="291" y="1441"/>
		</contour>
		<contour>
			<point x="680" y="1409" type="qcurve"/>
			<point x="680" y="1409" type="line"/>
			<point x="680" y="1409" type="line"/>
			<point x="680" y="1409" type="line"/>
			<point x="680" y="1409" type="line"/>
			<point x="680" y="1346"/>
			<point x="739" y="1294"/>
			<point x="784" y="1294" type="qcurve" smooth="yes"/>
			<point x="806" y="1294"/>
			<point x="844" y="1306"/>
			<point x="873" y="1334"/>
			<point x="889" y="1378"/>
			<point x="889" y="1409" type="qcurve" smooth="yes"/>
			<point x="889" y="1441"/>
			<point x="873" y="1485"/>
			<point x="844" y="1512"/>
			<point x="806" y="1524"/>
			<point x="784" y="1524" type="qcurve" smooth="yes"/>
			<point x="762" y="1524"/>
			<point x="724" y="1512"/>
			<point x="696" y="1485"/>
			<point x="680" y="1441"/>
		</contour>
	</outline>
</glyph>
<glyph name="ordfeminine" format="2">
	<advance width="782"/>
	<unicode hex="00AA"/>
	<note>
		ordfeminine
  </note>
	<outline>
		<contour>
			<point x="250" y="985" type="qcurve"/>
			<point x="250" y="985" type="line"/>
			<point x="250" y="985" type="line"/>
			<point x="250" y="985" type="line"/>
			<point x="250" y="985" type="line"/>
			<point x="250" y="1019"/>
			<point x="268" y="1071"/>
			<point x="309" y="1108"/>
			<point x="376" y="1129"/>
			<point x="426" y="1130" type="qcurve" smooth="yes"/>
			<point x="489" y="1133" type="line"/>
			<point x="489" y="1036" type="line" smooth="yes"/>
			<point x="489" y="1000"/>
			<point x="469" y="940"/>
			<point x="432" y="896"/>
			<point x="378" y="872"/>
			<point x="344" y="872" type="qcurve" smooth="yes"/>
			<point x="304" y="872"/>
			<point x="250" y="921"/>
		</contour>
		<contour>
			<point x="387" y="1397" type="qcurve"/>
			<point x="387" y="1397" type="line"/>
			<point x="387" y="1397" type="line"/>
			<point x="387" y="1397" type="line"/>
			<point x="387" y="1397" type="line"/>
			<point x="421" y="1397"/>
			<point x="461" y="1376"/>
			<point x="482" y="1339"/>
			<point x="489" y="1288"/>
			<point x="489" y="1257" type="qcurve" smooth="yes"/>
			<point x="489" y="1198" type="line"/>
			<point x="401" y="1194" type="line" smooth="yes"/>
			<point x="234" y="1186"/>
			<point x="72" y="1089"/>
			<point x="72" y="987" type="qcurve" smooth="yes"/>
			<point x="72" y="884"/>
			<point x="186" y="778"/>
			<point x="285" y="778" type="qcurve" smooth="yes"/>
			<point x="324" y="778"/>
			<point x="388" y="796"/>
			<point x="441" y="826"/>
			<point x="484" y="865"/>
			<point x="502" y="885" type="qcurve"/>
			<point x="512" y="885" type="line"/>
			<point x="549" y="791" type="line"/>
			<point x="748" y="791" type="line"/>
			<point x="748" y="860" type="line"/>
			<point x="698" y="860"/>
			<point x="659" y="894"/>
			<point x="659" y="940" type="qcurve" smooth="yes"/>
			<point x="659" y="1251" type="line" smooth="yes"/>
			<point x="659" y="1312"/>
			<point x="626" y="1396"/>
			<point x="559" y="1449"/>
			<point x="459" y="1473"/>
			<point x="391" y="1473" type="qcurve" smooth="yes"/>
			<point x="337" y="1473"/>
			<point x="241" y="1459"/>
			<point x="169" y="1429"/>
			<point x="127" y="1381"/>
			<point x="127" y="1346" type="qcurve" smooth="yes"/>
			<point x="127" y="1298"/>
			<point x="211" y="1257"/>
			<point x="289" y="1257" type="qcurve"/>
			<point x="289" y="1286"/>
			<point x="297" y="1337"/>
			<point x="318" y="1375"/>
			<point x="356" y="1397"/>
		</contour>
	</outline>
</glyph>
<glyph name="guillemotleft" format="2">
	<advance width="1053"/>
	<unicode hex="00AB"/>
	<note>
		guillemotleft
  </note>
	<outline>
		<contour>
			<point x="133" y="586" type="line"/>
			<point x="133" y="586" type="line"/>
			<point x="133" y="520" type="line"/>
			<point x="446" y="164" type="line"/>
			<point x="549" y="164" type="line"/>
			<point x="342" y="553" type="line"/>
			<point x="549" y="942" type="line"/>
			<point x="446" y="942" type="line"/>
		</contour>
		<contour>
			<point x="504" y="586" type="line"/>
			<point x="504" y="586" type="line"/>
			<point x="504" y="520" type="line"/>
			<point x="817" y="164" type="line"/>
			<point x="920" y="164" type="line"/>
			<point x="713" y="553" type="line"/>
			<point x="920" y="942" type="line"/>
			<point x="817" y="942" type="line"/>
		</contour>
	</outline>
</glyph>
<glyph name="logicalnot" format="2">
	<advance width="1145"/>
	<unicode hex="00AC"/>
	<note>
		logicalnot
  </note>
	<outline>
		<contour>
			<point x="1012" y="793" type="line"/>
			<point x="1012" y="793" type="line"/>
			<point x="133" y="793" type="line"/>
			<point x="133" y="672" type="line"/>
			<point x="889" y="672" type="line"/>
			<point x="889" y="252" type="line"/>
			<point x="1012" y="252" type="line"/>
		</contour>
	</outline>
</glyph>
<glyph name="registered" format="2">
	<advance width="1731"/>
	<unicode hex="00AE"/>
	<note>
		registered
  </note>
	<outline>
		<contour>
			<point x="477" y="358" type="line"/>
			<point x="477" y="358" type="line"/>
			<point x="477" y="358" type="line"/>
			<point x="477" y="358" type="line"/>
			<point x="477" y="358" type="line"/>
			<point x="477" y="289" type="line"/>
			<point x="887" y="289" type="line"/>
			<point x="887" y="358" type="line"/>
			<point x="858" y="358" type="line" smooth="yes"/>
			<point x="838" y="358"/>
			<point x="803" y="363"/>
			<point x="776" y="378"/>
			<point x="760" y="406"/>
			<point x="758" y="430" type="qcurve"/>
			<point x="758" y="670" type="line"/>
			<point x="866" y="670" type="line"/>
			<point x="1092" y="289" type="line"/>
			<point x="1309" y="289" type="line"/>
			<point x="1309" y="358" type="line"/>
			<point x="1284" y="358"/>
			<point x="1249" y="362"/>
			<point x="1223" y="374"/>
			<point x="1204" y="395"/>
			<point x="1194" y="412" type="qcurve" smooth="yes"/>
			<point x="1012" y="705" type="line"/>
			<point x="1047" y="716"/>
			<point x="1114" y="753"/>
			<point x="1166" y="807"/>
			<point x="1198" y="881"/>
			<point x="1198" y="930" type="qcurve" smooth="yes"/>
			<point x="1198" y="1174"/>
			<point x="846" y="1174" type="qcurve" smooth="yes"/>
			<point x="477" y="1174" type="line"/>
			<point x="477" y="1102" type="line"/>
			<point x="504" y="1102" type="line" smooth="yes"/>
			<point x="524" y="1102"/>
			<point x="560" y="1098"/>
			<point x="587" y="1083"/>
			<point x="603" y="1054"/>
			<point x="604" y="1030" type="qcurve" smooth="yes"/>
			<point x="604" y="430" type="line" smooth="yes"/>
			<point x="603" y="406"/>
			<point x="587" y="378"/>
			<point x="560" y="363"/>
			<point x="524" y="358"/>
			<point x="504" y="358" type="qcurve" smooth="yes"/>
		</contour>
		<contour>
			<point x="758" y="748" type="line"/>
			<point x="758" y="748" type="line"/>
			<point x="758" y="748" type="line"/>
			<point x="758" y="748" type="line"/>
			<point x="758" y="748" type="line"/>
			<point x="758" y="1094" type="line"/>
			<point x="838" y="1094" type="line" smooth="yes"/>
			<point x="892" y="1094"/>
			<point x="967" y="1076"/>
			<point x="1014" y="1037"/>
			<point x="1036" y="973"/>
			<point x="1036" y="928" type="qcurve" smooth="yes"/>
			<point x="1036" y="882"/>
			<point x="1017" y="814"/>
			<point x="973" y="770"/>
			<point x="899" y="748"/>
			<point x="844" y="748" type="qcurve" smooth="yes"/>
		</contour>
		<contour>
			<point x="113" y="731" type="qcurve"/>
			<point x="113" y="731" type="line"/>
			<point x="113" y="731" type="line"/>
			<point x="113" y="731" type="line"/>
			<point x="113" y="731" type="line"/>
			<point x="113" y="627"/>
			<point x="167" y="435"/>
			<point x="264" y="268"/>
			<point x="401" y="131"/>
			<point x="568" y="33"/>
			<point x="760" y="-20"/>
			<point x="864" y="-20" type="qcurve" smooth="yes"/>
			<point x="968" y="-20"/>
			<point x="1161" y="33"/>
			<point x="1328" y="131"/>
			<point x="1466" y="268"/>
			<point x="1564" y="435"/>
			<point x="1618" y="627"/>
			<point x="1618" y="731" type="qcurve" smooth="yes"/>
			<point x="1618" y="835"/>
			<point x="1564" y="1028"/>
			<point x="1466" y="1195"/>
			<point x="1328" y="1333"/>
			<point x="1161" y="1431"/>
			<point x="968" y="1485"/>
			<point x="864" y="1485" type="qcurve" smooth="yes"/>
			<point x="760" y="1485"/>
			<point x="568" y="1431"/>
			<point x="401" y="1333"/>
			<point x="264" y="1195"/>
			<point x="167" y="1028"/>
			<point x="113" y="835"/>
		</contour>
		<contour>
			<point x="225" y="731" type="qcurve"/>
			<point x="225" y="731" type="line"/>
			<point x="225" y="731" type="line"/>
			<point x="225" y="731" type="line"/>
			<point x="225" y="731" type="line"/>
			<point x="225" y="820"/>
			<point x="271" y="983"/>
			<point x="354" y="1126"/>
			<point x="471" y="1243"/>
			<point x="613" y="1326"/>
			<point x="776" y="1372"/>
			<point x="864" y="1372" type="qcurve" smooth="yes"/>
			<point x="953" y="1372"/>
			<point x="1117" y="1326"/>
			<point x="1259" y="1243"/>
			<point x="1376" y="1126"/>
			<point x="1459" y="983"/>
			<point x="1505" y="819"/>
			<point x="1505" y="731" type="qcurve" smooth="yes"/>
			<point x="1505" y="643"/>
			<point x="1459" y="480"/>
			<point x="1376" y="338"/>
			<point x="1259" y="221"/>
			<point x="1117" y="138"/>
			<point x="953" y="92"/>
			<point x="864" y="92" type="qcurve" smooth="yes"/>
			<point x="776" y="92"/>
			<point x="613" y="138"/>
			<point x="471" y="221"/>
			<point x="354" y="338"/>
			<point x="271" y="480"/>
			<point x="225" y="643"/>
		</contour>
	</outline>
</glyph>
<glyph name="macron" format="2">
	<advance width="940"/>
	<unicode hex="00AF"/>
	<note>
		macron
  </note>
	<outline>
		<contour>
			<point x="950" y="1556" type="line"/>
			<point x="950" y="1556" type="line"/>
			<point x="950" y="1677" type="line"/>
			<point x="-10" y="1677" type="line"/>
			<point x="-10" y="1556" type="line"/>
		</contour>
	</outline>
</glyph>
<glyph name="degree" format="2">
	<advance width="819"/>
	<unicode hex="00B0"/>
	<note>
		degree
  </note>
	<outline>
		<contour>
			<point x="98" y="1151" type="qcurve"/>
			<point x="98" y="1151" type="line"/>
			<point x="98" y="1151" type="line"/>
			<point x="98" y="1151" type="line"/>
			<point x="98" y="1151" type="line"/>
			<point x="98" y="1087"/>
			<point x="147" y="974"/>
			<point x="231" y="890"/>
			<point x="344" y="842"/>
			<point x="408" y="842" type="qcurve" smooth="yes"/>
			<point x="473" y="842"/>
			<point x="586" y="890"/>
			<point x="670" y="974"/>
			<point x="719" y="1087"/>
			<point x="719" y="1151" type="qcurve" smooth="yes"/>
			<point x="719" y="1216"/>
			<point x="670" y="1329"/>
			<point x="586" y="1413"/>
			<point x="473" y="1462"/>
			<point x="408" y="1462" type="qcurve" smooth="yes"/>
			<point x="344" y="1462"/>
			<point x="231" y="1413"/>
			<point x="147" y="1329"/>
			<point x="98" y="1216"/>
		</contour>
		<contour>
			<point x="221" y="1151" type="qcurve"/>
			<point x="221" y="1151" type="line"/>
			<point x="221" y="1151" type="line"/>
			<point x="221" y="1151" type="line"/>
			<point x="221" y="1151" type="line"/>
			<point x="221" y="1191"/>
			<point x="250" y="1260"/>
			<point x="301" y="1311"/>
			<point x="369" y="1341"/>
			<point x="408" y="1341" type="qcurve" smooth="yes"/>
			<point x="448" y="1341"/>
			<point x="516" y="1311"/>
			<point x="567" y="1260"/>
			<point x="596" y="1191"/>
			<point x="596" y="1151" type="qcurve" smooth="yes"/>
			<point x="596" y="1113"/>
			<point x="567" y="1044"/>
			<point x="516" y="993"/>
			<point x="448" y="963"/>
			<point x="408" y="963" type="qcurve" smooth="yes"/>
			<point x="369" y="963"/>
			<point x="301" y="993"/>
			<point x="250" y="1044"/>
			<point x="221" y="1113"/>
		</contour>
	</outline>
</glyph>
<glyph name="plusminus" format="2">
	<advance width="1145"/>
	<unicode hex="00B1"/>
	<note>
		plusminus
  </note>
	<outline>
		<contour>
			<point x="633" y="672" type="line"/>
			<point x="633" y="672" type="line"/>
			<point x="1012" y="672" type="line"/>
			<point x="1012" y="793" type="line"/>
			<point x="633" y="793" type="line"/>
			<point x="633" y="1171" type="line"/>
			<point x="510" y="1171" type="line"/>
			<point x="510" y="793" type="line"/>
			<point x="133" y="793" type="line"/>
			<point x="133" y="672" type="line"/>
			<point x="510" y="672" type="line"/>
			<point x="510" y="293" type="line"/>
			<point x="633" y="293" type="line"/>
		</contour>
		<contour>
			<point x="1012" y="0" type="line"/>
			<point x="1012" y="0" type="line"/>
			<point x="1012" y="121" type="line"/>
			<point x="133" y="121" type="line"/>
			<point x="133" y="0" type="line"/>
		</contour>
	</outline>
</glyph>
<glyph name="uni00B3" format="2">
	<advance width="819"/>
	<unicode hex="00B3"/>
	<note>
		uni00B3
  </note>
	<outline>
		<contour>
			<point x="356" y="573" type="qcurve"/>
			<point x="356" y="573" type="line"/>
			<point x="356" y="573" type="line"/>
			<point x="356" y="573" type="line"/>
			<point x="356" y="573" type="line"/>
			<point x="418" y="573"/>
			<point x="546" y="601"/>
			<point x="652" y="664"/>
			<point x="719" y="767"/>
			<point x="719" y="842" type="qcurve" smooth="yes"/>
			<point x="719" y="898"/>
			<point x="673" y="971"/>
			<point x="602" y="1017"/>
			<point x="516" y="1042"/>
			<point x="475" y="1049" type="qcurve"/>
			<point x="475" y="1059" type="line"/>
			<point x="517" y="1071"/>
			<point x="593" y="1110"/>
			<point x="650" y="1164"/>
			<point x="684" y="1235"/>
			<point x="684" y="1280" type="qcurve" smooth="yes"/>
			<point x="684" y="1328"/>
			<point x="641" y="1403"/>
			<point x="561" y="1455"/>
			<point x="449" y="1483"/>
			<point x="381" y="1483" type="qcurve" smooth="yes"/>
			<point x="311" y="1483"/>
			<point x="204" y="1457"/>
			<point x="131" y="1411"/>
			<point x="94" y="1348"/>
			<point x="94" y="1311" type="qcurve" smooth="yes"/>
			<point x="94" y="1284"/>
			<point x="115" y="1250"/>
			<point x="154" y="1230"/>
			<point x="211" y="1223"/>
			<point x="246" y="1223" type="qcurve"/>
			<point x="246" y="1258"/>
			<point x="259" y="1323"/>
			<point x="290" y="1372"/>
			<point x="342" y="1401"/>
			<point x="381" y="1401" type="qcurve" smooth="yes"/>
			<point x="444" y="1401"/>
			<point x="498" y="1330"/>
			<point x="498" y="1262" type="qcurve" smooth="yes"/>
			<point x="498" y="1221"/>
			<point x="470" y="1156"/>
			<point x="420" y="1110"/>
			<point x="354" y="1085"/>
			<point x="315" y="1085" type="qcurve" smooth="yes"/>
			<point x="248" y="1085" type="line"/>
			<point x="248" y="1001" type="line"/>
			<point x="315" y="1001" type="line" smooth="yes"/>
			<point x="428" y="1001"/>
			<point x="532" y="916"/>
			<point x="532" y="844" type="qcurve" smooth="yes"/>
			<point x="532" y="749"/>
			<point x="435" y="666"/>
			<point x="350" y="666" type="qcurve" smooth="yes"/>
			<point x="305" y="666"/>
			<point x="240" y="697"/>
			<point x="197" y="747"/>
			<point x="176" y="810"/>
			<point x="176" y="842" type="qcurve"/>
			<point x="133" y="842"/>
			<point x="82" y="786"/>
			<point x="82" y="741" type="qcurve" smooth="yes"/>
			<point x="82" y="666"/>
			<point x="222" y="573"/>
		</contour>
	</outline>
</glyph>
<glyph name="acute" format="2">
	<advance width="1182"/>
	<unicode hex="00B4"/>
	<note>
		acute
  </note>
	<outline>
		<contour>
			<point x="391" y="1268" type="qcurve"/>
			<point x="391" y="1268" type="line"/>
			<point x="391" y="1268" type="line"/>
			<point x="391" y="1268" type="line"/>
			<point x="391" y="1268" type="line"/>
			<point x="391" y="1241" type="line"/>
			<point x="469" y="1241" type="line"/>
			<point x="510" y="1269"/>
			<point x="605" y="1352"/>
			<point x="695" y="1440"/>
			<point x="769" y="1521"/>
			<point x="788" y="1548" type="qcurve"/>
			<point x="788" y="1569" type="line"/>
			<point x="569" y="1569" type="line"/>
			<point x="553" y="1535"/>
			<point x="510" y="1454"/>
			<point x="463" y="1373"/>
			<point x="414" y="1297"/>
		</contour>
	</outline>
</glyph>
<glyph name="uni00B5" format="2">
	<advance width="1260"/>
	<unicode hex="00B5"/>
	<note>
		uni00B5
  </note>
	<outline>
		<contour>
			<point x="569" y="-20" type="qcurve"/>
			<point x="569" y="-20" type="line"/>
			<point x="569" y="-20" type="line"/>
			<point x="569" y="-20" type="line"/>
			<point x="569" y="-20" type="line"/>
			<point x="623" y="-20"/>
			<point x="708" y="7"/>
			<point x="777" y="55"/>
			<point x="832" y="123"/>
			<point x="856" y="164" type="qcurve"/>
			<point x="864" y="164" type="line"/>
			<point x="883" y="83"/>
			<point x="979" y="0"/>
			<point x="1063" y="0" type="qcurve" smooth="yes"/>
			<point x="1174" y="0" type="line"/>
			<point x="1174" y="86" type="line"/>
			<point x="1167" y="86" type="line" smooth="yes"/>
			<point x="1145" y="86"/>
			<point x="1099" y="108"/>
			<point x="1062" y="152"/>
			<point x="1038" y="219"/>
			<point x="1038" y="264" type="qcurve" smooth="yes"/>
			<point x="1038" y="1098" type="line"/>
			<point x="846" y="1098" type="line"/>
			<point x="846" y="442" type="line" smooth="yes"/>
			<point x="846" y="368"/>
			<point x="811" y="246"/>
			<point x="747" y="159"/>
			<point x="655" y="111"/>
			<point x="598" y="111" type="qcurve" smooth="yes"/>
			<point x="539" y="111"/>
			<point x="460" y="154"/>
			<point x="413" y="233"/>
			<point x="393" y="343"/>
			<point x="393" y="410" type="qcurve" smooth="yes"/>
			<point x="393" y="1098" type="line"/>
			<point x="201" y="1098" type="line"/>
			<point x="201" y="461" type="line" smooth="yes"/>
			<point x="200" y="333"/>
			<point x="191" y="125"/>
			<point x="183" y="-46"/>
			<point x="176" y="-187"/>
			<point x="176" y="-248" type="qcurve" smooth="yes"/>
			<point x="176" y="-317"/>
			<point x="204" y="-411"/>
			<point x="250" y="-468"/>
			<point x="310" y="-492"/>
			<point x="342" y="-492" type="qcurve" smooth="yes"/>
			<point x="379" y="-492"/>
			<point x="433" y="-465"/>
			<point x="468" y="-417"/>
			<point x="485" y="-352"/>
			<point x="485" y="-313" type="qcurve"/>
			<point x="428" y="-304"/>
			<point x="364" y="-237"/>
			<point x="331" y="-129"/>
			<point x="321" y="15"/>
			<point x="319" y="100" type="qcurve"/>
			<point x="360" y="43"/>
			<point x="483" y="-20"/>
		</contour>
	</outline>
</glyph>
<glyph name="paragraph" format="2">
	<advance width="1264"/>
	<unicode hex="00B6"/>
	<note>
		paragraph
  </note>
	<outline>
		<contour>
			<point x="860" y="1452" type="line"/>
			<point x="860" y="1452" type="line"/>
			<point x="860" y="1452" type="line"/>
			<point x="860" y="1452" type="line"/>
			<point x="860" y="1452" type="line"/>
			<point x="860" y="-227" type="line"/>
			<point x="1180" y="-227" type="line"/>
			<point x="1180" y="-141" type="line"/>
			<point x="1153" y="-141" type="line" smooth="yes"/>
			<point x="1119" y="-141"/>
			<point x="1057" y="-131"/>
			<point x="1012" y="-100"/>
			<point x="985" y="-42"/>
			<point x="985" y="6" type="qcurve" smooth="yes"/>
			<point x="985" y="1323" type="line" smooth="yes"/>
			<point x="985" y="1371"/>
			<point x="1012" y="1429"/>
			<point x="1057" y="1460"/>
			<point x="1119" y="1470"/>
			<point x="1153" y="1470" type="qcurve" smooth="yes"/>
			<point x="1180" y="1470" type="line"/>
			<point x="1180" y="1556" type="line"/>
			<point x="399" y="1556" type="line" smooth="yes"/>
			<point x="312" y="1556"/>
			<point x="192" y="1504"/>
			<point x="116" y="1408"/>
			<point x="82" y="1274"/>
			<point x="82" y="1192" type="qcurve" smooth="yes"/>
			<point x="82" y="1112"/>
			<point x="113" y="967"/>
			<point x="185" y="856"/>
			<point x="305" y="791"/>
			<point x="395" y="791" type="qcurve" smooth="yes"/>
			<point x="541" y="791" type="line"/>
			<point x="541" y="6" type="line" smooth="yes"/>
			<point x="541" y="-42"/>
			<point x="514" y="-100"/>
			<point x="469" y="-131"/>
			<point x="408" y="-141"/>
			<point x="373" y="-141" type="qcurve" smooth="yes"/>
			<point x="346" y="-141" type="line"/>
			<point x="346" y="-227" type="line"/>
			<point x="666" y="-227" type="line"/>
			<point x="666" y="1452" type="line"/>
		</contour>
	</outline>
</glyph>
<glyph name="periodcentered" format="2">
	<advance width="512"/>
	<unicode hex="00B7"/>
	<note>
		periodcentered
  </note>
	<outline>
		<contour>
			<point x="127" y="729" type="qcurve"/>
			<point x="127" y="729" type="line"/>
			<point x="127" y="729" type="line"/>
			<point x="127" y="729" type="line"/>
			<point x="127" y="729" type="line"/>
			<point x="127" y="690"/>
			<point x="147" y="637"/>
			<point x="182" y="604"/>
			<point x="229" y="590"/>
			<point x="256" y="590" type="qcurve" smooth="yes"/>
			<point x="282" y="590"/>
			<point x="329" y="604"/>
			<point x="364" y="637"/>
			<point x="385" y="690"/>
			<point x="385" y="729" type="qcurve" smooth="yes"/>
			<point x="385" y="769"/>
			<point x="364" y="823"/>
			<point x="329" y="855"/>
			<point x="282" y="868"/>
			<point x="256" y="868" type="qcurve" smooth="yes"/>
			<point x="229" y="868"/>
			<point x="182" y="855"/>
			<point x="147" y="823"/>
			<point x="127" y="769"/>
		</contour>
	</outline>
</glyph>
<glyph name="cedilla" format="2">
	<advance width="682"/>
	<unicode hex="00B8"/>
	<note>
		cedilla
  </note>
	<outline>
		<contour>
			<point x="551" y="-258" type="qcurve"/>
			<point x="551" y="-258" type="line"/>
			<point x="551" y="-258" type="line"/>
			<point x="551" y="-258" type="line"/>
			<point x="551" y="-258" type="line"/>
			<point x="551" y="-177"/>
			<point x="452" y="-78"/>
			<point x="352" y="-70" type="qcurve"/>
			<point x="373" y="18" type="line"/>
			<point x="276" y="18" type="line"/>
			<point x="233" y="-141" type="line"/>
			<point x="300" y="-146"/>
			<point x="387" y="-206"/>
			<point x="387" y="-266" type="qcurve" smooth="yes"/>
			<point x="387" y="-319"/>
			<point x="321" y="-381"/>
			<point x="262" y="-381" type="qcurve" smooth="yes"/>
			<point x="234" y="-381"/>
			<point x="160" y="-373"/>
			<point x="123" y="-365" type="qcurve"/>
			<point x="123" y="-469" type="line"/>
			<point x="141" y="-474"/>
			<point x="183" y="-483"/>
			<point x="225" y="-489"/>
			<point x="265" y="-492"/>
			<point x="281" y="-492" type="qcurve" smooth="yes"/>
			<point x="412" y="-492"/>
			<point x="551" y="-367"/>
		</contour>
	</outline>
</glyph>
<glyph name="uni00B9" format="2">
	<advance width="819"/>
	<unicode hex="00B9"/>
	<note>
		uni00B9
  </note>
	<outline>
		<contour>
			<point x="315" y="1325" type="qcurve"/>
			<point x="315" y="1325" type="line"/>
			<point x="315" y="1325" type="line"/>
			<point x="315" y="1325" type="line"/>
			<point x="315" y="1325" type="line"/>
			<point x="324" y="1325" type="line"/>
			<point x="324" y="735" type="line" smooth="yes"/>
			<point x="324" y="709"/>
			<point x="311" y="678"/>
			<point x="288" y="662"/>
			<point x="258" y="657"/>
			<point x="240" y="657" type="qcurve" smooth="yes"/>
			<point x="127" y="657" type="line"/>
			<point x="127" y="588" type="line"/>
			<point x="688" y="588" type="line"/>
			<point x="688" y="657" type="line"/>
			<point x="594" y="657" type="line" smooth="yes"/>
			<point x="576" y="657"/>
			<point x="545" y="662"/>
			<point x="522" y="678"/>
			<point x="508" y="709"/>
			<point x="508" y="735" type="qcurve" smooth="yes"/>
			<point x="508" y="1473" type="line"/>
			<point x="406" y="1473" type="line"/>
			<point x="325" y="1416"/>
			<point x="223" y="1356"/>
			<point x="155" y="1329"/>
			<point x="110" y="1323"/>
			<point x="86" y="1319" type="qcurve"/>
			<point x="86" y="1282"/>
			<point x="126" y="1235"/>
			<point x="160" y="1235" type="qcurve" smooth="yes"/>
			<point x="182" y="1235"/>
			<point x="218" y="1245"/>
			<point x="253" y="1266"/>
			<point x="291" y="1301"/>
		</contour>
	</outline>
</glyph>
<glyph name="ordmasculine" format="2">
	<advance width="813"/>
	<unicode hex="00BA"/>
	<note>
		ordmasculine
  </note>
	<outline>
		<contour>
			<point x="250" y="1126" type="qcurve"/>
			<point x="250" y="1126" type="line"/>
			<point x="250" y="1126" type="line"/>
			<point x="250" y="1126" type="line"/>
			<point x="250" y="1126" type="line"/>
			<point x="250" y="1257"/>
			<point x="320" y="1386"/>
			<point x="406" y="1386" type="qcurve" smooth="yes"/>
			<point x="492" y="1386"/>
			<point x="565" y="1257"/>
			<point x="565" y="1126" type="qcurve" smooth="yes"/>
			<point x="565" y="993"/>
			<point x="494" y="860"/>
			<point x="408" y="860" type="qcurve" smooth="yes"/>
			<point x="320" y="860"/>
			<point x="250" y="993"/>
		</contour>
		<contour>
			<point x="741" y="1126" type="qcurve"/>
			<point x="741" y="1126" type="line"/>
			<point x="741" y="1126" type="line"/>
			<point x="741" y="1126" type="line"/>
			<point x="741" y="1126" type="line"/>
			<point x="741" y="1214"/>
			<point x="695" y="1344"/>
			<point x="609" y="1430"/>
			<point x="487" y="1473"/>
			<point x="410" y="1473" type="qcurve" smooth="yes"/>
			<point x="242" y="1473"/>
			<point x="72" y="1302"/>
			<point x="72" y="1126" type="qcurve" smooth="yes"/>
			<point x="72" y="951"/>
			<point x="248" y="778"/>
			<point x="406" y="778" type="qcurve" smooth="yes"/>
			<point x="571" y="778"/>
			<point x="741" y="950"/>
		</contour>
	</outline>
</glyph>
<glyph name="guillemotright" format="2">
	<advance width="1053"/>
	<unicode hex="00BB"/>
	<note>
		guillemotright
  </note>
	<outline>
		<contour>
			<point x="549" y="520" type="line"/>
			<point x="549" y="520" type="line"/>
			<point x="549" y="586" type="line"/>
			<point x="236" y="942" type="line"/>
			<point x="133" y="942" type="line"/>
			<point x="340" y="553" type="line"/>
			<point x="133" y="164" type="line"/>
			<point x="236" y="164" type="line"/>
		</contour>
		<contour>
			<point x="920" y="520" type="line"/>
			<point x="920" y="520" type="line"/>
			<point x="920" y="586" type="line"/>
			<point x="606" y="942" type="line"/>
			<point x="504" y="942" type="line"/>
			<point x="711" y="553" type="line"/>
			<point x="504" y="164" type="line"/>
			<point x="606" y="164" type="line"/>
		</contour>
	</outline>
</glyph>
<glyph name="Aring" format="2">
	<advance width="1444"/>
	<unicode hex="00C5"/>
	<note>
		Aring
  </note>
	<outline>
		<contour>
			<point x="971" y="1585" type="qcurve"/>
			<point x="971" y="1585" type="line"/>
			<point x="971" y="1585" type="line"/>
			<point x="971" y="1585" type="line"/>
			<point x="971" y="1585" type="line"/>
			<point x="971" y="1639"/>
			<point x="933" y="1723"/>
			<point x="866" y="1779"/>
			<point x="776" y="1808"/>
			<point x="725" y="1808" type="qcurve" smooth="yes"/>
			<point x="674" y="1808"/>
			<point x="584" y="1779"/>
			<point x="517" y="1723"/>
			<point x="479" y="1639"/>
			<point x="479" y="1585" type="qcurve" smooth="yes"/>
			<point x="479" y="1530"/>
			<point x="517" y="1447"/>
			<point x="584" y="1391"/>
			<point x="674" y="1362"/>
			<point x="725" y="1362" type="qcurve" smooth="yes"/>
			<point x="776" y="1362"/>
			<point x="866" y="1391"/>
			<point x="933" y="1447"/>
			<point x="971" y="1530"/>
		</contour>
		<contour>
			<point x="860" y="1585" type="qcurve"/>
			<point x="860" y="1585" type="line"/>
			<point x="860" y="1585" type="line"/>
			<point x="860" y="1585" type="line"/>
			<point x="860" y="1585" type="line"/>
			<point x="860" y="1552"/>
			<point x="839" y="1505"/>
			<point x="802" y="1476"/>
			<point x="753" y="1462"/>
			<point x="725" y="1462" type="qcurve" smooth="yes"/>
			<point x="697" y="1462"/>
			<point x="648" y="1476"/>
			<point x="611" y="1505"/>
			<point x="590" y="1552"/>
			<point x="590" y="1585" type="qcurve" smooth="yes"/>
			<point x="590" y="1618"/>
			<point x="611" y="1665"/>
			<point x="648" y="1694"/>
			<point x="697" y="1708"/>
			<point x="725" y="1708" type="qcurve" smooth="yes"/>
			<point x="753" y="1708"/>
			<point x="802" y="1694"/>
			<point x="839" y="1665"/>
			<point x="860" y="1618"/>
		</contour>
		<contour>
			<point x="336" y="274" type="qcurve"/>
			<point x="336" y="274" type="line"/>
			<point x="336" y="274" type="line"/>
			<point x="336" y="274" type="line"/>
			<point x="414" y="489" type="line"/>
			<point x="414" y="489" type="line"/>
			<point x="952" y="489" type="line"/>
			<point x="1034" y="260" type="line" smooth="yes"/>
			<point x="1042" y="237"/>
			<point x="1051" y="201"/>
			<point x="1051" y="184" type="qcurve" smooth="yes"/>
			<point x="1051" y="86"/>
			<point x="928" y="86" type="qcurve" smooth="yes"/>
			<point x="881" y="86" type="line"/>
			<point x="881" y="0" type="line"/>
			<point x="1444" y="0" type="line"/>
			<point x="1444" y="86" type="line"/>
			<point x="1417" y="86" type="line" smooth="yes"/>
			<point x="1387" y="86"/>
			<point x="1343" y="96"/>
			<point x="1309" y="121"/>
			<point x="1284" y="163"/>
			<point x="1272" y="195" type="qcurve" smooth="yes"/>
			<point x="809" y="1462" type="line"/>
			<point x="649" y="1462" type="line"/>
			<point x="195" y="246" type="line" smooth="yes"/>
			<point x="176" y="197"/>
			<point x="145" y="135"/>
			<point x="111" y="99"/>
			<point x="69" y="86"/>
			<point x="39" y="86" type="qcurve" smooth="yes"/>
			<point x="0" y="86" type="line"/>
			<point x="0" y="0" type="line"/>
			<point x="500" y="0" type="line"/>
			<point x="500" y="86" type="line"/>
			<point x="453" y="86" type="line" smooth="yes"/>
			<point x="384" y="86"/>
			<point x="317" y="134"/>
			<point x="317" y="186" type="qcurve" smooth="yes"/>
			<point x="317" y="203"/>
			<point x="327" y="250"/>
		</contour>
		<contour>
			<point x="788" y="950" type="qcurve"/>
			<point x="788" y="950" type="line"/>
			<point x="788" y="950" type="line"/>
			<point x="788" y="950" type="line"/>
			<point x="788" y="950" type="line"/>
			<point x="788" y="950" type="line"/>
			<point x="915" y="592" type="line"/>
			<point x="453" y="592" type="line"/>
			<point x="592" y="969" type="line" smooth="yes"/>
			<point x="610" y="1017"/>
			<point x="638" y="1096"/>
			<point x="660" y="1168"/>
			<point x="679" y="1237"/>
			<point x="686" y="1274" type="qcurve"/>
			<point x="703" y="1200"/>
			<point x="756" y="1041"/>
		</contour>
	</outline>
</glyph>
<glyph name="AE" format="2">
	<advance width="1948"/>
	<unicode hex="00C6"/>
	<note>
		AE
  </note>
	<outline>
		<contour>
			<point x="1151" y="102" type="line"/>
			<point x="1151" y="102" type="line"/>
			<point x="1151" y="102" type="line"/>
			<point x="1151" y="102" type="line"/>
			<point x="1151" y="102" type="line"/>
			<point x="1151" y="715" type="line"/>
			<point x="1645" y="715" type="line"/>
			<point x="1645" y="815" type="line"/>
			<point x="1151" y="815" type="line"/>
			<point x="1151" y="1360" type="line"/>
			<point x="1495" y="1360" type="line" smooth="yes"/>
			<point x="1541" y="1359"/>
			<point x="1606" y="1331"/>
			<point x="1649" y="1286"/>
			<point x="1671" y="1226"/>
			<point x="1675" y="1192" type="qcurve" smooth="yes"/>
			<point x="1686" y="1104" type="line"/>
			<point x="1792" y="1104" type="line"/>
			<point x="1782" y="1462" type="line"/>
			<point x="647" y="1462" type="line"/>
			<point x="647" y="1376" type="line"/>
			<point x="807" y="1366" type="line"/>
			<point x="215" y="246" type="line" smooth="yes"/>
			<point x="172" y="162"/>
			<point x="87" y="86"/>
			<point x="33" y="86" type="qcurve" smooth="yes"/>
			<point x="0" y="86" type="line"/>
			<point x="0" y="0" type="line"/>
			<point x="498" y="0" type="line"/>
			<point x="498" y="86" type="line"/>
			<point x="451" y="86" type="line" smooth="yes"/>
			<point x="391" y="86"/>
			<point x="328" y="124"/>
			<point x="328" y="166" type="qcurve" smooth="yes"/>
			<point x="328" y="184"/>
			<point x="343" y="242"/>
			<point x="360" y="274" type="qcurve" smooth="yes"/>
			<point x="473" y="489" type="line"/>
			<point x="944" y="489" type="line"/>
			<point x="944" y="223" type="line" smooth="yes"/>
			<point x="943" y="178"/>
			<point x="915" y="123"/>
			<point x="870" y="95"/>
			<point x="810" y="86"/>
			<point x="776" y="86" type="qcurve" smooth="yes"/>
			<point x="750" y="86" type="line"/>
			<point x="750" y="0" type="line"/>
			<point x="1847" y="0" type="line"/>
			<point x="1862" y="358" type="line"/>
			<point x="1755" y="358" type="line"/>
			<point x="1741" y="270" type="line" smooth="yes"/>
			<point x="1735" y="236"/>
			<point x="1709" y="175"/>
			<point x="1663" y="129"/>
			<point x="1594" y="102"/>
			<point x="1546" y="102" type="qcurve" smooth="yes"/>
		</contour>
		<contour>
			<point x="915" y="1360" type="qcurve"/>
			<point x="915" y="1360" type="line"/>
			<point x="915" y="1360" type="line"/>
			<point x="915" y="1360" type="line"/>
			<point x="915" y="1360" type="line"/>
			<point x="944" y="1360" type="line"/>
			<point x="944" y="592" type="line"/>
			<point x="526" y="592" type="line"/>
			<point x="587" y="709"/>
			<point x="705" y="937"/>
			<point x="808" y="1138"/>
			<point x="890" y="1304"/>
		</contour>
	</outline>
</glyph>
<glyph name="Ccedilla" format="2">
	<advance width="1257"/>
	<unicode hex="00C7"/>
	<note>
		Ccedilla
  </note>
	<outline>
		<contour>
			<point x="942" y="-258" type="qcurve"/>
			<point x="942" y="-258" type="line"/>
			<point x="942" y="-258" type="line"/>
			<point x="942" y="-258" type="line"/>
			<point x="942" y="-258" type="line"/>
			<point x="942" y="-258" type="line"/>
			<point x="942" y="-177"/>
			<point x="843" y="-78"/>
			<point x="743" y="-70" type="qcurve"/>
			<point x="764" y="18" type="line"/>
			<point x="667" y="18" type="line"/>
			<point x="624" y="-141" type="line"/>
			<point x="691" y="-146"/>
			<point x="778" y="-206"/>
			<point x="778" y="-266" type="qcurve" smooth="yes"/>
			<point x="778" y="-319"/>
			<point x="712" y="-381"/>
			<point x="653" y="-381" type="qcurve" smooth="yes"/>
			<point x="625" y="-381"/>
			<point x="551" y="-373"/>
			<point x="514" y="-365" type="qcurve"/>
			<point x="514" y="-469" type="line"/>
			<point x="532" y="-474"/>
			<point x="574" y="-483"/>
			<point x="616" y="-489"/>
			<point x="656" y="-492"/>
			<point x="672" y="-492" type="qcurve" smooth="yes"/>
			<point x="803" y="-492"/>
			<point x="942" y="-367"/>
		</contour>
		<contour>
			<point x="774" y="1483" type="qcurve"/>
			<point x="774" y="1483" type="line"/>
			<point x="774" y="1483" type="line"/>
			<point x="774" y="1483" type="line"/>
			<point x="774" y="1483" type="line"/>
			<point x="774" y="1483" type="line"/>
			<point x="612" y="1483"/>
			<point x="366" y="1373"/>
			<point x="201" y="1175"/>
			<point x="117" y="899"/>
			<point x="117" y="733" type="qcurve" smooth="yes"/>
			<point x="117" y="564"/>
			<point x="197" y="286"/>
			<point x="354" y="88"/>
			<point x="586" y="-20"/>
			<point x="739" y="-20" type="qcurve" smooth="yes"/>
			<point x="853" y="-20"/>
			<point x="1019" y="23"/>
			<point x="1127" y="89"/>
			<point x="1180" y="170"/>
			<point x="1180" y="209" type="qcurve" smooth="yes"/>
			<point x="1180" y="240"/>
			<point x="1158" y="278"/>
			<point x="1141" y="289" type="qcurve"/>
			<point x="1115" y="255"/>
			<point x="1048" y="192"/>
			<point x="960" y="144"/>
			<point x="845" y="115"/>
			<point x="770" y="115" type="qcurve" smooth="yes"/>
			<point x="657" y="115"/>
			<point x="496" y="205"/>
			<point x="392" y="368"/>
			<point x="344" y="596"/>
			<point x="344" y="733" type="qcurve" smooth="yes"/>
			<point x="344" y="887"/>
			<point x="390" y="1126"/>
			<point x="492" y="1289"/>
			<point x="654" y="1374"/>
			<point x="770" y="1374" type="qcurve" smooth="yes"/>
			<point x="837" y="1374"/>
			<point x="928" y="1327"/>
			<point x="985" y="1252"/>
			<point x="1010" y="1158"/>
			<point x="1010" y="1110" type="qcurve"/>
			<point x="1048" y="1110"/>
			<point x="1113" y="1130"/>
			<point x="1161" y="1167"/>
			<point x="1188" y="1220"/>
			<point x="1188" y="1253" type="qcurve" smooth="yes"/>
			<point x="1188" y="1302"/>
			<point x="1137" y="1386"/>
			<point x="1034" y="1448"/>
			<point x="879" y="1483"/>
		</contour>
	</outline>
</glyph>
<glyph name="Eth" format="2">
	<advance width="1489"/>
	<unicode hex="00D0"/>
	<note>
		Eth
  </note>
	<outline>
		<contour>
			<point x="78" y="815" type="line"/>
			<point x="78" y="815" type="line"/>
			<point x="78" y="815" type="line"/>
			<point x="78" y="815" type="line"/>
			<point x="78" y="815" type="line"/>
			<point x="78" y="715" type="line"/>
			<point x="272" y="715" type="line"/>
			<point x="272" y="233" type="line" smooth="yes"/>
			<point x="272" y="185"/>
			<point x="246" y="127"/>
			<point x="200" y="96"/>
			<point x="139" y="86"/>
			<point x="104" y="86" type="qcurve" smooth="yes"/>
			<point x="78" y="86" type="line"/>
			<point x="78" y="0" type="line"/>
			<point x="705" y="0" type="line" smooth="yes"/>
			<point x="871" y="0"/>
			<point x="1122" y="103"/>
			<point x="1288" y="294"/>
			<point x="1372" y="565"/>
			<point x="1372" y="733" type="qcurve" smooth="yes"/>
			<point x="1372" y="907"/>
			<point x="1282" y="1179"/>
			<point x="1111" y="1365"/>
			<point x="863" y="1462"/>
			<point x="705" y="1462" type="qcurve" smooth="yes"/>
			<point x="78" y="1462" type="line"/>
			<point x="78" y="1376" type="line"/>
			<point x="104" y="1376" type="line" smooth="yes"/>
			<point x="138" y="1376"/>
			<point x="199" y="1367"/>
			<point x="245" y="1337"/>
			<point x="272" y="1282"/>
			<point x="272" y="1237" type="qcurve" smooth="yes"/>
			<point x="272" y="815" type="line"/>
		</contour>
		<contour>
			<point x="657" y="104" type="qcurve"/>
			<point x="657" y="104" type="line"/>
			<point x="657" y="104" type="line"/>
			<point x="657" y="104" type="line"/>
			<point x="657" y="104" type="line"/>
			<point x="479" y="104" type="line"/>
			<point x="479" y="715" type="line"/>
			<point x="827" y="715" type="line"/>
			<point x="827" y="815" type="line"/>
			<point x="479" y="815" type="line"/>
			<point x="479" y="1360" type="line"/>
			<point x="659" y="1360" type="line" smooth="yes"/>
			<point x="780" y="1360"/>
			<point x="963" y="1278"/>
			<point x="1084" y="1119"/>
			<point x="1145" y="885"/>
			<point x="1145" y="733" type="qcurve" smooth="yes"/>
			<point x="1145" y="581"/>
			<point x="1084" y="347"/>
			<point x="962" y="187"/>
			<point x="779" y="104"/>
		</contour>
	</outline>
</glyph>
<glyph name="multiply" format="2">
	<advance width="1145"/>
	<unicode hex="00D7"/>
	<note>
		multiply
  </note>
	<outline>
		<contour>
			<point x="571" y="647" type="line"/>
			<point x="571" y="647" type="line"/>
			<point x="911" y="307" type="line"/>
			<point x="997" y="393" type="line"/>
			<point x="657" y="733" type="line"/>
			<point x="997" y="1073" type="line"/>
			<point x="911" y="1161" type="line"/>
			<point x="571" y="819" type="line"/>
			<point x="231" y="1159" type="line"/>
			<point x="145" y="1073" type="line"/>
			<point x="485" y="735" type="line"/>
			<point x="145" y="395" type="line"/>
			<point x="231" y="307" type="line"/>
		</contour>
	</outline>
</glyph>
<glyph name="Oslash" format="2">
	<advance width="1520"/>
	<unicode hex="00D8"/>
	<note>
		Oslash
  </note>
	<outline>
		<contour>
			<point x="1163" y="1354" type="qcurve"/>
			<point x="1163" y="1354" type="line"/>
			<point x="1163" y="1354" type="line"/>
			<point x="1163" y="1354" type="line"/>
			<point x="1163" y="1354" type="line"/>
			<point x="1270" y="1546" type="line"/>
			<point x="1151" y="1546" type="line"/>
			<point x="1075" y="1411" type="line"/>
			<point x="1009" y="1446"/>
			<point x="853" y="1485"/>
			<point x="762" y="1485" type="qcurve" smooth="yes"/>
			<point x="599" y="1485"/>
			<point x="355" y="1378"/>
			<point x="195" y="1182"/>
			<point x="115" y="905"/>
			<point x="115" y="735" type="qcurve" smooth="yes"/>
			<point x="115" y="525"/>
			<point x="233" y="204"/>
			<point x="354" y="106" type="qcurve"/>
			<point x="250" y="-82" type="line"/>
			<point x="371" y="-82" type="line"/>
			<point x="442" y="49" type="line"/>
			<point x="508" y="15"/>
			<point x="667" y="-20"/>
			<point x="760" y="-20" type="qcurve" smooth="yes"/>
			<point x="915" y="-20"/>
			<point x="1155" y="88"/>
			<point x="1319" y="286"/>
			<point x="1403" y="564"/>
			<point x="1403" y="733" type="qcurve" smooth="yes"/>
			<point x="1403" y="941"/>
			<point x="1281" y="1257"/>
		</contour>
		<contour>
			<point x="342" y="733" type="qcurve"/>
			<point x="342" y="733" type="line"/>
			<point x="342" y="733" type="line"/>
			<point x="342" y="733" type="line"/>
			<point x="342" y="733" type="line"/>
			<point x="342" y="885"/>
			<point x="387" y="1124"/>
			<point x="488" y="1288"/>
			<point x="648" y="1374"/>
			<point x="762" y="1374" type="qcurve" smooth="yes"/>
			<point x="916" y="1374"/>
			<point x="1010" y="1292" type="qcurve"/>
			<point x="438" y="258" type="line"/>
			<point x="387" y="342"/>
			<point x="342" y="578"/>
		</contour>
		<contour>
			<point x="1176" y="733" type="qcurve"/>
			<point x="1176" y="733" type="line"/>
			<point x="1176" y="733" type="line"/>
			<point x="1176" y="733" type="line"/>
			<point x="1176" y="733" type="line"/>
			<point x="1176" y="581"/>
			<point x="1132" y="342"/>
			<point x="1033" y="177"/>
			<point x="874" y="90"/>
			<point x="760" y="90" type="qcurve" smooth="yes"/>
			<point x="605" y="90"/>
			<point x="510" y="170" type="qcurve"/>
			<point x="1081" y="1206" type="line"/>
			<point x="1131" y="1123"/>
			<point x="1176" y="886"/>
		</contour>
	</outline>
</glyph>
<glyph name="ae" format="2">
	<advance width="1722"/>
	<unicode hex="00E6"/>
	<note>
		ae
  </note>
	<outline>
		<contour>
			<point x="301" y="297" type="qcurve"/>
			<point x="301" y="297" type="line"/>
			<point x="301" y="297" type="line"/>
			<point x="301" y="297" type="line"/>
			<point x="301" y="297" type="line"/>
			<point x="301" y="357"/>
			<point x="332" y="449"/>
			<point x="404" y="512"/>
			<point x="521" y="547"/>
			<point x="608" y="551" type="qcurve" smooth="yes"/>
			<point x="739" y="557" type="line"/>
			<point x="739" y="541" type="line"/>
			<point x="739" y="514" type="line"/>
			<point x="739" y="391" type="line" smooth="yes"/>
			<point x="739" y="326"/>
			<point x="701" y="220"/>
			<point x="630" y="146"/>
			<point x="529" y="106"/>
			<point x="467" y="106" type="qcurve" smooth="yes"/>
			<point x="382" y="106"/>
			<point x="301" y="201"/>
		</contour>
		<contour>
			<point x="1190" y="1008" type="qcurve"/>
			<point x="1190" y="1008" type="line"/>
			<point x="1190" y="1008" type="line"/>
			<point x="1190" y="1008" type="line"/>
			<point x="1190" y="1008" type="line"/>
			<point x="1252" y="1008"/>
			<point x="1337" y="956"/>
			<point x="1389" y="860"/>
			<point x="1413" y="726"/>
			<point x="1413" y="645" type="qcurve"/>
			<point x="942" y="645" type="line"/>
			<point x="953" y="823"/>
			<point x="1075" y="1008"/>
		</contour>
		<contour>
			<point x="1221" y="-20" type="qcurve"/>
			<point x="1221" y="-20" type="line"/>
			<point x="1221" y="-20" type="line"/>
			<point x="1221" y="-20" type="line"/>
			<point x="1221" y="-20" type="line"/>
			<point x="1310" y="-20"/>
			<point x="1443" y="20"/>
			<point x="1531" y="80"/>
			<point x="1575" y="151"/>
			<point x="1575" y="182" type="qcurve" smooth="yes"/>
			<point x="1575" y="208"/>
			<point x="1550" y="246"/>
			<point x="1536" y="252" type="qcurve"/>
			<point x="1516" y="222"/>
			<point x="1457" y="170"/>
			<point x="1384" y="131"/>
			<point x="1300" y="109"/>
			<point x="1255" y="109" type="qcurve" smooth="yes"/>
			<point x="1174" y="109"/>
			<point x="1056" y="158"/>
			<point x="979" y="262"/>
			<point x="940" y="423"/>
			<point x="938" y="535" type="qcurve"/>
			<point x="1620" y="535" type="line"/>
			<point x="1620" y="629" type="line" smooth="yes"/>
			<point x="1620" y="750"/>
			<point x="1561" y="933"/>
			<point x="1451" y="1056"/>
			<point x="1293" y="1118"/>
			<point x="1194" y="1118" type="qcurve" smooth="yes"/>
			<point x="991" y="1118"/>
			<point x="877" y="993" type="qcurve"/>
			<point x="832" y="1059"/>
			<point x="673" y="1118"/>
			<point x="557" y="1118" type="qcurve" smooth="yes"/>
			<point x="481" y="1118"/>
			<point x="347" y="1096"/>
			<point x="246" y="1049"/>
			<point x="188" y="975"/>
			<point x="188" y="922" type="qcurve" smooth="yes"/>
			<point x="188" y="851"/>
			<point x="277" y="793"/>
			<point x="362" y="793" type="qcurve"/>
			<point x="362" y="841"/>
			<point x="376" y="923"/>
			<point x="417" y="983"/>
			<point x="490" y="1016"/>
			<point x="549" y="1016" type="qcurve" smooth="yes"/>
			<point x="612" y="1016"/>
			<point x="687" y="979"/>
			<point x="727" y="912"/>
			<point x="739" y="819"/>
			<point x="739" y="764" type="qcurve" smooth="yes"/>
			<point x="739" y="641" type="line"/>
			<point x="569" y="635" type="line" smooth="yes"/>
			<point x="334" y="628"/>
			<point x="102" y="470"/>
			<point x="102" y="307" type="qcurve" smooth="yes"/>
			<point x="102" y="223"/>
			<point x="150" y="100"/>
			<point x="235" y="19"/>
			<point x="352" y="-20"/>
			<point x="420" y="-20" type="qcurve" smooth="yes"/>
			<point x="496" y="-20"/>
			<point x="621" y="18"/>
			<point x="718" y="83"/>
			<point x="786" y="167"/>
			<point x="805" y="213" type="qcurve"/>
			<point x="862" y="98"/>
			<point x="1071" y="-20"/>
		</contour>
	</outline>
</glyph>
<glyph name="eth" format="2">
	<advance width="1182"/>
	<unicode hex="00F0"/>
	<note>
		eth
  </note>
	<outline>
		<contour>
			<point x="307" y="1559" type="qcurve"/>
			<point x="307" y="1559" type="line"/>
			<point x="307" y="1559" type="line"/>
			<point x="307" y="1559" type="line"/>
			<point x="307" y="1559" type="line"/>
			<point x="307" y="1448" type="line"/>
			<point x="372" y="1428"/>
			<point x="488" y="1371"/>
			<point x="539" y="1337" type="qcurve"/>
			<point x="367" y="1239" type="line"/>
			<point x="367" y="1124" type="line"/>
			<point x="623" y="1270" type="line"/>
			<point x="701" y="1202"/>
			<point x="808" y="1051"/>
			<point x="829" y="983" type="qcurve"/>
			<point x="778" y="1008"/>
			<point x="662" y="1036"/>
			<point x="594" y="1036" type="qcurve" smooth="yes"/>
			<point x="356" y="1036"/>
			<point x="113" y="776"/>
			<point x="113" y="510" type="qcurve" smooth="yes"/>
			<point x="113" y="376"/>
			<point x="178" y="177"/>
			<point x="301" y="45"/>
			<point x="477" y="-20"/>
			<point x="588" y="-20" type="qcurve" smooth="yes"/>
			<point x="824" y="-20"/>
			<point x="1069" y="284"/>
			<point x="1069" y="596" type="qcurve" smooth="yes"/>
			<point x="1069" y="719"/>
			<point x="1022" y="938"/>
			<point x="937" y="1126"/>
			<point x="817" y="1281"/>
			<point x="745" y="1341" type="qcurve"/>
			<point x="926" y="1444" type="line"/>
			<point x="926" y="1561" type="line"/>
			<point x="662" y="1407" type="line"/>
			<point x="581" y="1461"/>
			<point x="401" y="1536"/>
		</contour>
		<contour>
			<point x="311" y="510" type="qcurve"/>
			<point x="311" y="510" type="line"/>
			<point x="311" y="510" type="line"/>
			<point x="311" y="510" type="line"/>
			<point x="311" y="510" type="line"/>
			<point x="311" y="614"/>
			<point x="341" y="771"/>
			<point x="407" y="876"/>
			<point x="513" y="928"/>
			<point x="590" y="928" type="qcurve" smooth="yes"/>
			<point x="667" y="928"/>
			<point x="774" y="876"/>
			<point x="840" y="771"/>
			<point x="870" y="614"/>
			<point x="870" y="510" type="qcurve" smooth="yes"/>
			<point x="870" y="405"/>
			<point x="841" y="247"/>
			<point x="775" y="140"/>
			<point x="669" y="86"/>
			<point x="592" y="86" type="qcurve" smooth="yes"/>
			<point x="515" y="86"/>
			<point x="408" y="140"/>
			<point x="341" y="247"/>
			<point x="311" y="405"/>
		</contour>
	</outline>
</glyph>
<glyph name="divide" format="2">
	<advance width="1145"/>
	<unicode hex="00F7"/>
	<note>
		divide
  </note>
	<outline>
		<contour>
			<point x="469" y="1120" type="qcurve"/>
			<point x="469" y="1120" type="line"/>
			<point x="469" y="1120" type="line"/>
			<point x="469" y="1120" type="line"/>
			<point x="469" y="1120" type="line"/>
			<point x="469" y="1089"/>
			<point x="485" y="1046"/>
			<point x="513" y="1019"/>
			<point x="551" y="1008"/>
			<point x="573" y="1008" type="qcurve" smooth="yes"/>
			<point x="595" y="1008"/>
			<point x="633" y="1019"/>
			<point x="662" y="1046"/>
			<point x="678" y="1089"/>
			<point x="678" y="1120" type="qcurve" smooth="yes"/>
			<point x="678" y="1152"/>
			<point x="662" y="1196"/>
			<point x="633" y="1222"/>
			<point x="595" y="1233"/>
			<point x="573" y="1233" type="qcurve" smooth="yes"/>
			<point x="551" y="1233"/>
			<point x="513" y="1222"/>
			<point x="485" y="1196"/>
			<point x="469" y="1152"/>
		</contour>
		<contour>
			<point x="469" y="344" type="qcurve"/>
			<point x="469" y="344" type="line"/>
			<point x="469" y="344" type="line"/>
			<point x="469" y="344" type="line"/>
			<point x="469" y="344" type="line"/>
			<point x="469" y="281"/>
			<point x="528" y="231"/>
			<point x="573" y="231" type="qcurve" smooth="yes"/>
			<point x="595" y="231"/>
			<point x="633" y="243"/>
			<point x="662" y="269"/>
			<point x="678" y="313"/>
			<point x="678" y="344" type="qcurve" smooth="yes"/>
			<point x="678" y="376"/>
			<point x="662" y="420"/>
			<point x="633" y="446"/>
			<point x="595" y="457"/>
			<point x="573" y="457" type="qcurve" smooth="yes"/>
			<point x="551" y="457"/>
			<point x="513" y="446"/>
			<point x="485" y="420"/>
			<point x="469" y="376"/>
		</contour>
		<contour>
			<point x="1012" y="672" type="line"/>
			<point x="1012" y="672" type="line"/>
			<point x="1012" y="793" type="line"/>
			<point x="133" y="793" type="line"/>
			<point x="133" y="672" type="line"/>
		</contour>
	</outline>
</glyph>
<glyph name="oslash" format="2">
	<advance width="1182"/>
	<unicode hex="00F8"/>
	<note>
		oslash
  </note>
	<outline>
		<contour>
			<point x="930" y="991" type="qcurve"/>
			<point x="930" y="991" type="line"/>
			<point x="930" y="991" type="line"/>
			<point x="930" y="991" type="line"/>
			<point x="930" y="991" type="line"/>
			<point x="1044" y="1180" type="line"/>
			<point x="926" y="1180" type="line"/>
			<point x="848" y="1055" type="line"/>
			<point x="795" y="1086"/>
			<point x="668" y="1118"/>
			<point x="594" y="1118" type="qcurve" smooth="yes"/>
			<point x="356" y="1118"/>
			<point x="113" y="838"/>
			<point x="113" y="551" type="qcurve" smooth="yes"/>
			<point x="113" y="393"/>
			<point x="187" y="170"/>
			<point x="258" y="98" type="qcurve"/>
			<point x="147" y="-82" type="line"/>
			<point x="268" y="-82" type="line"/>
			<point x="342" y="37" type="line"/>
			<point x="393" y="8"/>
			<point x="517" y="-20"/>
			<point x="588" y="-20" type="qcurve" smooth="yes"/>
			<point x="824" y="-20"/>
			<point x="1069" y="262"/>
			<point x="1069" y="551" type="qcurve" smooth="yes"/>
			<point x="1069" y="703"/>
			<point x="998" y="922"/>
		</contour>
		<contour>
			<point x="311" y="551" type="qcurve"/>
			<point x="311" y="551" type="line"/>
			<point x="311" y="551" type="line"/>
			<point x="311" y="551" type="line"/>
			<point x="311" y="551" type="line"/>
			<point x="311" y="665"/>
			<point x="341" y="837"/>
			<point x="407" y="952"/>
			<point x="513" y="1010"/>
			<point x="590" y="1010" type="qcurve" smooth="yes"/>
			<point x="708" y="1010"/>
			<point x="776" y="936" type="qcurve"/>
			<point x="352" y="250" type="line"/>
			<point x="331" y="307"/>
			<point x="311" y="457"/>
		</contour>
		<contour>
			<point x="870" y="551" type="qcurve"/>
			<point x="870" y="551" type="line"/>
			<point x="870" y="551" type="line"/>
			<point x="870" y="551" type="line"/>
			<point x="870" y="551" type="line"/>
			<point x="870" y="437"/>
			<point x="841" y="263"/>
			<point x="775" y="146"/>
			<point x="669" y="86"/>
			<point x="592" y="86" type="qcurve" smooth="yes"/>
			<point x="533" y="86"/>
			<point x="444" y="120"/>
			<point x="412" y="152" type="qcurve"/>
			<point x="834" y="836" type="line"/>
			<point x="870" y="728"/>
		</contour>
	</outline>
</glyph>
<glyph name="thorn" format="2">
	<advance width="1257"/>
	<unicode hex="00FE"/>
	<note>
		thorn
  </note>
	<outline>
		<contour>
			<point x="692" y="987" type="qcurve"/>
			<point x="692" y="987" type="line"/>
			<point x="692" y="987" type="line"/>
			<point x="692" y="987" type="line"/>
			<point x="692" y="987" type="line"/>
			<point x="828" y="987"/>
			<point x="946" y="771"/>
			<point x="946" y="553" type="qcurve" smooth="yes"/>
			<point x="946" y="445"/>
			<point x="918" y="280"/>
			<point x="857" y="168"/>
			<point x="761" y="111"/>
			<point x="694" y="111" type="qcurve" smooth="yes"/>
			<point x="613" y="111"/>
			<point x="506" y="168"/>
			<point x="441" y="280"/>
			<point x="414" y="444"/>
			<point x="414" y="551" type="qcurve" smooth="yes"/>
			<point x="414" y="662"/>
			<point x="441" y="826"/>
			<point x="505" y="934"/>
			<point x="612" y="987"/>
		</contour>
		<contour>
			<point x="1145" y="551" type="qcurve"/>
			<point x="1145" y="551" type="line"/>
			<point x="1145" y="551" type="line"/>
			<point x="1145" y="551" type="line"/>
			<point x="1145" y="551" type="line"/>
			<point x="1145" y="698"/>
			<point x="1090" y="912"/>
			<point x="984" y="1051"/>
			<point x="828" y="1118"/>
			<point x="727" y="1118" type="qcurve" smooth="yes"/>
			<point x="667" y="1118"/>
			<point x="571" y="1089"/>
			<point x="495" y="1036"/>
			<point x="437" y="960"/>
			<point x="414" y="913" type="qcurve"/>
			<point x="406" y="913" type="line"/>
			<point x="408" y="964"/>
			<point x="410" y="1012" type="qcurve" smooth="yes"/>
			<point x="412" y="1054"/>
			<point x="414" y="1145"/>
			<point x="414" y="1180" type="qcurve" smooth="yes"/>
			<point x="414" y="1556" type="line"/>
			<point x="37" y="1556" type="line"/>
			<point x="37" y="1470" type="line"/>
			<point x="53" y="1470" type="line" smooth="yes"/>
			<point x="87" y="1470"/>
			<point x="148" y="1461"/>
			<point x="194" y="1431"/>
			<point x="221" y="1376"/>
			<point x="221" y="1331" type="qcurve" smooth="yes"/>
			<point x="221" y="-258" type="line" smooth="yes"/>
			<point x="221" y="-306"/>
			<point x="194" y="-365"/>
			<point x="149" y="-396"/>
			<point x="87" y="-406"/>
			<point x="53" y="-406" type="qcurve" smooth="yes"/>
			<point x="37" y="-406" type="line"/>
			<point x="37" y="-492" type="line"/>
			<point x="588" y="-492" type="line"/>
			<point x="588" y="-406" type="line"/>
			<point x="582" y="-406" type="line" smooth="yes"/>
			<point x="548" y="-406"/>
			<point x="487" y="-397"/>
			<point x="441" y="-368"/>
			<point x="414" y="-313"/>
			<point x="414" y="-268" type="qcurve" smooth="yes"/>
			<point x="414" y="-72" type="line" smooth="yes"/>
			<point x="414" y="-64"/>
			<point x="413" y="-35"/>
			<point x="412" y="1"/>
			<point x="411" y="41"/>
			<point x="410" y="61" type="qcurve" smooth="yes"/>
			<point x="408" y="107"/>
			<point x="406" y="160" type="qcurve"/>
			<point x="414" y="160" type="line"/>
			<point x="436" y="120"/>
			<point x="495" y="54"/>
			<point x="572" y="6"/>
			<point x="668" y="-20"/>
			<point x="727" y="-20" type="qcurve" smooth="yes"/>
			<point x="828" y="-20"/>
			<point x="984" y="47"/>
			<point x="1090" y="187"/>
			<point x="1145" y="403"/>
		</contour>
	</outline>
</glyph>
<glyph name="aogonek" format="2">
	<advance width="1153"/>
	<unicode hex="0105"/>
	<note>
		aogonek
  </note>
	<outline>
		<contour>
			<point x="549" y="-266" type="qcurve"/>
			<point x="549" y="-266" type="line"/>
			<point x="549" y="-266" type="line"/>
			<point x="549" y="-266" type="line"/>
			<point x="549" y="-266" type="line"/>
			<point x="549" y="-325"/>
			<point x="588" y="-410"/>
			<point x="661" y="-465"/>
			<point x="765" y="-492"/>
			<point x="830" y="-492" type="qcurve" smooth="yes"/>
			<point x="846" y="-492"/>
			<point x="887" y="-487"/>
			<point x="931" y="-479"/>
			<point x="972" y="-467"/>
			<point x="988" y="-459" type="qcurve"/>
			<point x="988" y="-348" type="line"/>
			<point x="950" y="-356"/>
			<point x="886" y="-365"/>
			<point x="859" y="-365" type="qcurve" smooth="yes"/>
			<point x="828" y="-365"/>
			<point x="776" y="-350"/>
			<point x="738" y="-319"/>
			<point x="717" y="-270"/>
			<point x="717" y="-236" type="qcurve" smooth="yes"/>
			<point x="717" y="-187"/>
			<point x="753" y="-109"/>
			<point x="808" y="-50"/>
			<point x="876" y="-10"/>
			<point x="908" y="0" type="qcurve"/>
			<point x="791" y="0" type="line"/>
			<point x="744" y="-11"/>
			<point x="657" y="-61"/>
			<point x="589" y="-132"/>
			<point x="549" y="-218"/>
		</contour>
		<contour>
			<point x="301" y="297" type="qcurve"/>
			<point x="301" y="297" type="line"/>
			<point x="301" y="297" type="line"/>
			<point x="301" y="297" type="line"/>
			<point x="301" y="297" type="line"/>
			<point x="301" y="297" type="line"/>
			<point x="301" y="357"/>
			<point x="332" y="449"/>
			<point x="404" y="512"/>
			<point x="521" y="547"/>
			<point x="608" y="551" type="qcurve" smooth="yes"/>
			<point x="739" y="557" type="line"/>
			<point x="739" y="391" type="line" smooth="yes"/>
			<point x="739" y="326"/>
			<point x="701" y="220"/>
			<point x="630" y="146"/>
			<point x="529" y="106"/>
			<point x="467" y="106" type="qcurve" smooth="yes"/>
			<point x="382" y="106"/>
			<point x="301" y="201"/>
		</contour>
		<contour>
			<point x="549" y="1016" type="qcurve"/>
			<point x="549" y="1016" type="line"/>
			<point x="549" y="1016" type="line"/>
			<point x="549" y="1016" type="line"/>
			<point x="549" y="1016" type="line"/>
			<point x="549" y="1016" type="line"/>
			<point x="612" y="1016"/>
			<point x="687" y="979"/>
			<point x="727" y="912"/>
			<point x="739" y="819"/>
			<point x="739" y="764" type="qcurve" smooth="yes"/>
			<point x="739" y="641" type="line"/>
			<point x="569" y="635" type="line" smooth="yes"/>
			<point x="334" y="628"/>
			<point x="102" y="470"/>
			<point x="102" y="307" type="qcurve" smooth="yes"/>
			<point x="102" y="223"/>
			<point x="150" y="100"/>
			<point x="235" y="19"/>
			<point x="352" y="-20"/>
			<point x="420" y="-20" type="qcurve" smooth="yes"/>
			<point x="484" y="-20"/>
			<point x="575" y="9"/>
			<point x="647" y="61"/>
			<point x="707" y="133"/>
			<point x="739" y="176" type="qcurve"/>
			<point x="756" y="176" type="line"/>
			<point x="788" y="0" type="line"/>
			<point x="1065" y="0" type="line"/>
			<point x="1065" y="86" type="line"/>
			<point x="1059" y="86" type="line" smooth="yes"/>
			<point x="1025" y="86"/>
			<point x="976" y="100"/>
			<point x="946" y="134"/>
			<point x="932" y="190"/>
			<point x="932" y="233" type="qcurve" smooth="yes"/>
			<point x="932" y="764" type="line" smooth="yes"/>
			<point x="932" y="862"/>
			<point x="885" y="997"/>
			<point x="791" y="1081"/>
			<point x="651" y="1118"/>
			<point x="557" y="1118" type="qcurve" smooth="yes"/>
			<point x="481" y="1118"/>
			<point x="347" y="1096"/>
			<point x="246" y="1049"/>
			<point x="188" y="975"/>
			<point x="188" y="922" type="qcurve" smooth="yes"/>
			<point x="188" y="851"/>
			<point x="277" y="793"/>
			<point x="362" y="793" type="qcurve"/>
			<point x="362" y="841"/>
			<point x="376" y="923"/>
			<point x="417" y="983"/>
			<point x="490" y="1016"/>
		</contour>
	</outline>
</glyph>
<glyph name="dcroat" format="2">
	<advance width="1257"/>
	<unicode hex="0111"/>
	<note>
		dcroat
  </note>
	<outline>
		<contour>
			<point x="1036" y="1311" type="line"/>
			<point x="1036" y="1311" type="line"/>
			<point x="1036" y="1311" type="line"/>
			<point x="1036" y="1311" type="line"/>
			<point x="1036" y="1311" type="line"/>
			<point x="1036" y="1556" type="line"/>
			<point x="659" y="1556" type="line"/>
			<point x="659" y="1470" type="line"/>
			<point x="676" y="1470" type="line" smooth="yes"/>
			<point x="710" y="1470"/>
			<point x="771" y="1460"/>
			<point x="817" y="1430"/>
			<point x="844" y="1376"/>
			<point x="844" y="1331" type="qcurve" smooth="yes"/>
			<point x="844" y="1311" type="line"/>
			<point x="494" y="1311" type="line"/>
			<point x="494" y="1214" type="line"/>
			<point x="844" y="1214" type="line"/>
			<point x="844" y="1128" type="line" smooth="yes"/>
			<point x="844" y="1108"/>
			<point x="848" y="1030"/>
			<point x="850" y="992" type="qcurve" smooth="yes"/>
			<point x="853" y="947"/>
			<point x="856" y="897" type="qcurve"/>
			<point x="844" y="897" type="line"/>
			<point x="822" y="937"/>
			<point x="762" y="1003"/>
			<point x="685" y="1051"/>
			<point x="589" y="1077"/>
			<point x="530" y="1077" type="qcurve" smooth="yes"/>
			<point x="429" y="1077"/>
			<point x="273" y="1012"/>
			<point x="167" y="877"/>
			<point x="113" y="669"/>
			<point x="113" y="526" type="qcurve" smooth="yes"/>
			<point x="113" y="384"/>
			<point x="167" y="178"/>
			<point x="273" y="44"/>
			<point x="429" y="-20"/>
			<point x="530" y="-20" type="qcurve" smooth="yes"/>
			<point x="590" y="-20"/>
			<point x="686" y="9"/>
			<point x="762" y="62"/>
			<point x="821" y="137"/>
			<point x="844" y="184" type="qcurve"/>
			<point x="852" y="184" type="line"/>
			<point x="874" y="0" type="line"/>
			<point x="1221" y="0" type="line"/>
			<point x="1221" y="86" type="line"/>
			<point x="1204" y="86" type="line" smooth="yes"/>
			<point x="1170" y="86"/>
			<point x="1109" y="95"/>
			<point x="1063" y="125"/>
			<point x="1036" y="180"/>
			<point x="1036" y="225" type="qcurve" smooth="yes"/>
			<point x="1036" y="1214" type="line"/>
			<point x="1223" y="1214" type="line"/>
			<point x="1223" y="1311" type="line"/>
		</contour>
		<contour>
			<point x="565" y="111" type="qcurve"/>
			<point x="565" y="111" type="line"/>
			<point x="565" y="111" type="line"/>
			<point x="565" y="111" type="line"/>
			<point x="565" y="111" type="line"/>
			<point x="429" y="111"/>
			<point x="311" y="317"/>
			<point x="311" y="524" type="qcurve" smooth="yes"/>
			<point x="311" y="730"/>
			<point x="428" y="946"/>
			<point x="563" y="946" type="qcurve" smooth="yes"/>
			<point x="644" y="946"/>
			<point x="752" y="892"/>
			<point x="817" y="785"/>
			<point x="844" y="628"/>
			<point x="844" y="526" type="qcurve" smooth="yes"/>
			<point x="844" y="421"/>
			<point x="817" y="265"/>
			<point x="752" y="162"/>
			<point x="645" y="111"/>
		</contour>
	</outline>
</glyph>
<glyph name="eogonek" format="2">
	<advance width="1096"/>
	<unicode hex="0119"/>
	<note>
		eogonek
  </note>
	<outline>
		<contour>
			<point x="471" y="-235" type="qcurve"/>
			<point x="471" y="-235" type="line"/>
			<point x="471" y="-235" type="line"/>
			<point x="471" y="-235" type="line"/>
			<point x="471" y="-235" type="line"/>
			<point x="471" y="-294"/>
			<point x="510" y="-379"/>
			<point x="583" y="-434"/>
			<point x="687" y="-461"/>
			<point x="752" y="-461" type="qcurve" smooth="yes"/>
			<point x="768" y="-461"/>
			<point x="809" y="-456"/>
			<point x="853" y="-448"/>
			<point x="894" y="-436"/>
			<point x="910" y="-428" type="qcurve"/>
			<point x="910" y="-317" type="line"/>
			<point x="872" y="-325"/>
			<point x="808" y="-334"/>
			<point x="781" y="-334" type="qcurve" smooth="yes"/>
			<point x="750" y="-334"/>
			<point x="698" y="-319"/>
			<point x="660" y="-288"/>
			<point x="639" y="-239"/>
			<point x="639" y="-205" type="qcurve" smooth="yes"/>
			<point x="639" y="-156"/>
			<point x="675" y="-78"/>
			<point x="730" y="-19"/>
			<point x="798" y="21"/>
			<point x="830" y="31" type="qcurve"/>
			<point x="713" y="31" type="line"/>
			<point x="666" y="20"/>
			<point x="579" y="-30"/>
			<point x="511" y="-101"/>
			<point x="471" y="-187"/>
		</contour>
		<contour>
			<point x="563" y="1008" type="qcurve"/>
			<point x="563" y="1008" type="line"/>
			<point x="563" y="1008" type="line"/>
			<point x="563" y="1008" type="line"/>
			<point x="563" y="1008" type="line"/>
			<point x="563" y="1008" type="line"/>
			<point x="625" y="1008"/>
			<point x="710" y="956"/>
			<point x="762" y="860"/>
			<point x="786" y="726"/>
			<point x="786" y="645" type="qcurve"/>
			<point x="315" y="645" type="line"/>
			<point x="326" y="823"/>
			<point x="449" y="1008"/>
		</contour>
		<contour>
			<point x="588" y="-20" type="qcurve"/>
			<point x="588" y="-20" type="line"/>
			<point x="588" y="-20" type="line"/>
			<point x="588" y="-20" type="line"/>
			<point x="588" y="-20" type="line"/>
			<point x="588" y="-20" type="line"/>
			<point x="679" y="-20"/>
			<point x="814" y="20"/>
			<point x="904" y="80"/>
			<point x="948" y="151"/>
			<point x="948" y="182" type="qcurve" smooth="yes"/>
			<point x="948" y="208"/>
			<point x="923" y="246"/>
			<point x="909" y="252" type="qcurve"/>
			<point x="891" y="224"/>
			<point x="834" y="173"/>
			<point x="760" y="133"/>
			<point x="669" y="109"/>
			<point x="616" y="109" type="qcurve" smooth="yes"/>
			<point x="543" y="109"/>
			<point x="431" y="158"/>
			<point x="354" y="262"/>
			<point x="313" y="423"/>
			<point x="311" y="535" type="qcurve"/>
			<point x="993" y="535" type="line"/>
			<point x="993" y="629" type="line" smooth="yes"/>
			<point x="993" y="750"/>
			<point x="934" y="933"/>
			<point x="824" y="1056"/>
			<point x="666" y="1118"/>
			<point x="567" y="1118" type="qcurve" smooth="yes"/>
			<point x="349" y="1118"/>
			<point x="113" y="828"/>
			<point x="113" y="541" type="qcurve" smooth="yes"/>
			<point x="113" y="408"/>
			<point x="178" y="199"/>
			<point x="300" y="55"/>
			<point x="477" y="-20"/>
		</contour>
	</outline>
</glyph>
<glyph name="Hbar" format="2">
	<advance width="1624"/>
	<unicode hex="0126"/>
	<note>
		Hbar
  </note>
	<outline>
		<contour>
			<point x="1352" y="1022" type="line"/>
			<point x="1352" y="1022" type="line"/>
			<point x="1352" y="1022" type="line"/>
			<point x="1352" y="1022" type="line"/>
			<point x="1352" y="1022" type="line"/>
			<point x="1546" y="1022" type="line"/>
			<point x="1546" y="1122" type="line"/>
			<point x="1352" y="1122" type="line"/>
			<point x="1352" y="1229" type="line" smooth="yes"/>
			<point x="1352" y="1277"/>
			<point x="1378" y="1335"/>
			<point x="1424" y="1366"/>
			<point x="1485" y="1376"/>
			<point x="1520" y="1376" type="qcurve" smooth="yes"/>
			<point x="1546" y="1376" type="line"/>
			<point x="1546" y="1462" type="line"/>
			<point x="950" y="1462" type="line"/>
			<point x="950" y="1376" type="line"/>
			<point x="977" y="1376" type="line" smooth="yes"/>
			<point x="1012" y="1376"/>
			<point x="1073" y="1366"/>
			<point x="1118" y="1335"/>
			<point x="1145" y="1277"/>
			<point x="1145" y="1229" type="qcurve" smooth="yes"/>
			<point x="1145" y="1122" type="line"/>
			<point x="479" y="1122" type="line"/>
			<point x="479" y="1229" type="line" smooth="yes"/>
			<point x="479" y="1277"/>
			<point x="506" y="1335"/>
			<point x="551" y="1366"/>
			<point x="613" y="1376"/>
			<point x="647" y="1376" type="qcurve" smooth="yes"/>
			<point x="674" y="1376" type="line"/>
			<point x="674" y="1462" type="line"/>
			<point x="78" y="1462" type="line"/>
			<point x="78" y="1376" type="line"/>
			<point x="104" y="1376" type="line" smooth="yes"/>
			<point x="138" y="1376"/>
			<point x="199" y="1367"/>
			<point x="245" y="1337"/>
			<point x="272" y="1282"/>
			<point x="272" y="1237" type="qcurve" smooth="yes"/>
			<point x="272" y="1122" type="line"/>
			<point x="78" y="1122" type="line"/>
			<point x="78" y="1022" type="line"/>
			<point x="272" y="1022" type="line"/>
			<point x="272" y="233" type="line" smooth="yes"/>
			<point x="272" y="185"/>
			<point x="246" y="127"/>
			<point x="200" y="96"/>
			<point x="139" y="86"/>
			<point x="104" y="86" type="qcurve" smooth="yes"/>
			<point x="78" y="86" type="line"/>
			<point x="78" y="0" type="line"/>
			<point x="674" y="0" type="line"/>
			<point x="674" y="86" type="line"/>
			<point x="647" y="86" type="line" smooth="yes"/>
			<point x="613" y="86"/>
			<point x="551" y="96"/>
			<point x="506" y="127"/>
			<point x="479" y="185"/>
			<point x="479" y="233" type="qcurve" smooth="yes"/>
			<point x="479" y="713" type="line"/>
			<point x="1145" y="713" type="line"/>
			<point x="1145" y="233" type="line" smooth="yes"/>
			<point x="1145" y="185"/>
			<point x="1118" y="127"/>
			<point x="1073" y="96"/>
			<point x="1012" y="86"/>
			<point x="977" y="86" type="qcurve" smooth="yes"/>
			<point x="950" y="86" type="line"/>
			<point x="950" y="0" type="line"/>
			<point x="1546" y="0" type="line"/>
			<point x="1546" y="86" type="line"/>
			<point x="1520" y="86" type="line" smooth="yes"/>
			<point x="1486" y="86"/>
			<point x="1425" y="95"/>
			<point x="1379" y="123"/>
			<point x="1352" y="178"/>
			<point x="1352" y="223" type="qcurve" smooth="yes"/>
		</contour>
		<contour>
			<point x="1145" y="815" type="line"/>
			<point x="1145" y="815" type="line"/>
			<point x="479" y="815" type="line"/>
			<point x="479" y="1022" type="line"/>
			<point x="1145" y="1022" type="line"/>
		</contour>
	</outline>
</glyph>
<glyph name="hbar" format="2">
	<advance width="1300"/>
	<unicode hex="0127"/>
	<note>
		hbar
  </note>
	<outline>
		<contour>
			<point x="588" y="86" type="line"/>
			<point x="588" y="86" type="line"/>
			<point x="588" y="86" type="line"/>
			<point x="588" y="86" type="line"/>
			<point x="588" y="86" type="line"/>
			<point x="582" y="86" type="line" smooth="yes"/>
			<point x="548" y="86"/>
			<point x="487" y="95"/>
			<point x="441" y="123"/>
			<point x="414" y="178"/>
			<point x="414" y="223" type="qcurve" smooth="yes"/>
			<point x="414" y="614" type="line" smooth="yes"/>
			<point x="414" y="689"/>
			<point x="444" y="812"/>
			<point x="505" y="899"/>
			<point x="598" y="946"/>
			<point x="662" y="946" type="qcurve" smooth="yes"/>
			<point x="724" y="946"/>
			<point x="810" y="909"/>
			<point x="863" y="837"/>
			<point x="887" y="733"/>
			<point x="887" y="666" type="qcurve" smooth="yes"/>
			<point x="887" y="0" type="line"/>
			<point x="1243" y="0" type="line"/>
			<point x="1243" y="86" type="line"/>
			<point x="1237" y="86" type="line" smooth="yes"/>
			<point x="1203" y="86"/>
			<point x="1145" y="96"/>
			<point x="1103" y="127"/>
			<point x="1079" y="185"/>
			<point x="1079" y="233" type="qcurve" smooth="yes"/>
			<point x="1079" y="676" type="line" smooth="yes"/>
			<point x="1079" y="781"/>
			<point x="1031" y="933"/>
			<point x="939" y="1030"/>
			<point x="804" y="1077"/>
			<point x="717" y="1077" type="qcurve" smooth="yes"/>
			<point x="508" y="1077"/>
			<point x="416" y="891" type="qcurve"/>
			<point x="406" y="891" type="line"/>
			<point x="408" y="920"/>
			<point x="410" y="950" type="qcurve" smooth="yes"/>
			<point x="412" y="976"/>
			<point x="414" y="1037"/>
			<point x="414" y="1065" type="qcurve" smooth="yes"/>
			<point x="414" y="1214" type="line"/>
			<point x="764" y="1214" type="line"/>
			<point x="764" y="1311" type="line"/>
			<point x="414" y="1311" type="line"/>
			<point x="414" y="1556" type="line"/>
			<point x="37" y="1556" type="line"/>
			<point x="37" y="1470" type="line"/>
			<point x="53" y="1470" type="line" smooth="yes"/>
			<point x="87" y="1470"/>
			<point x="148" y="1461"/>
			<point x="194" y="1431"/>
			<point x="221" y="1376"/>
			<point x="221" y="1331" type="qcurve" smooth="yes"/>
			<point x="221" y="1311" type="line"/>
			<point x="35" y="1311" type="line"/>
			<point x="35" y="1214" type="line"/>
			<point x="221" y="1214" type="line"/>
			<point x="221" y="233" type="line" smooth="yes"/>
			<point x="221" y="185"/>
			<point x="194" y="127"/>
			<point x="149" y="96"/>
			<point x="88" y="86"/>
			<point x="53" y="86" type="qcurve" smooth="yes"/>
			<point x="37" y="86" type="line"/>
			<point x="37" y="0" type="line"/>
			<point x="588" y="0" type="line"/>
		</contour>
	</outline>
</glyph>
<glyph name="dotlessi" format="2">
	<advance width="655"/>
	<unicode hex="0131"/>
	<note>
		dotlessi
  </note>
	<outline>
		<contour>
			<point x="74" y="86" type="qcurve"/>
			<point x="74" y="86" type="line"/>
			<point x="74" y="86" type="line"/>
			<point x="74" y="86" type="line"/>
			<point x="74" y="86" type="line"/>
			<point x="47" y="86" type="line"/>
			<point x="47" y="0" type="line"/>
			<point x="629" y="0" type="line"/>
			<point x="629" y="86" type="line"/>
			<point x="602" y="86" type="line" smooth="yes"/>
			<point x="568" y="86"/>
			<point x="506" y="96"/>
			<point x="461" y="127"/>
			<point x="434" y="185"/>
			<point x="434" y="233" type="qcurve" smooth="yes"/>
			<point x="434" y="1098" type="line"/>
			<point x="68" y="1098" type="line"/>
			<point x="68" y="1012" type="line"/>
			<point x="74" y="1012" type="line" smooth="yes"/>
			<point x="108" y="1012"/>
			<point x="169" y="1002"/>
			<point x="215" y="972"/>
			<point x="242" y="917"/>
			<point x="242" y="872" type="qcurve" smooth="yes"/>
			<point x="242" y="223" type="line" smooth="yes"/>
			<point x="242" y="178"/>
			<point x="215" y="123"/>
			<point x="169" y="95"/>
			<point x="108" y="86"/>
		</contour>
	</outline>
</glyph>
<glyph name="Lslash" format="2">
	<advance width="1276"/>
	<unicode hex="0141"/>
	<note>
		Lslash
  </note>
	<outline>
		<contour>
			<point x="78" y="584" type="line"/>
			<point x="78" y="584" type="line"/>
			<point x="78" y="584" type="line"/>
			<point x="78" y="584" type="line"/>
			<point x="78" y="584" type="line"/>
			<point x="78" y="469" type="line"/>
			<point x="272" y="580" type="line"/>
			<point x="272" y="233" type="line" smooth="yes"/>
			<point x="272" y="185"/>
			<point x="246" y="127"/>
			<point x="200" y="96"/>
			<point x="139" y="86"/>
			<point x="104" y="86" type="qcurve" smooth="yes"/>
			<point x="78" y="86" type="line"/>
			<point x="78" y="0" type="line"/>
			<point x="1176" y="0" type="line"/>
			<point x="1190" y="440" type="line"/>
			<point x="1083" y="440" type="line"/>
			<point x="1063" y="287" type="line" smooth="yes"/>
			<point x="1059" y="254"/>
			<point x="1036" y="188"/>
			<point x="994" y="135"/>
			<point x="929" y="102"/>
			<point x="883" y="102" type="qcurve" smooth="yes"/>
			<point x="479" y="102" type="line"/>
			<point x="479" y="698" type="line"/>
			<point x="799" y="883" type="line"/>
			<point x="799" y="1001" type="line"/>
			<point x="479" y="815" type="line"/>
			<point x="479" y="1237" type="line" smooth="yes"/>
			<point x="479" y="1282"/>
			<point x="506" y="1337"/>
			<point x="552" y="1367"/>
			<point x="613" y="1376"/>
			<point x="647" y="1376" type="qcurve" smooth="yes"/>
			<point x="674" y="1376" type="line"/>
			<point x="674" y="1462" type="line"/>
			<point x="78" y="1462" type="line"/>
			<point x="78" y="1376" type="line"/>
			<point x="104" y="1376" type="line" smooth="yes"/>
			<point x="139" y="1376"/>
			<point x="200" y="1366"/>
			<point x="246" y="1335"/>
			<point x="272" y="1277"/>
			<point x="272" y="1229" type="qcurve" smooth="yes"/>
			<point x="272" y="696" type="line"/>
		</contour>
	</outline>
</glyph>
<glyph name="lslash" format="2">
	<advance width="664"/>
	<unicode hex="0142"/>
	<note>
		lslash
  </note>
	<outline>
		<contour>
			<point x="252" y="684" type="line"/>
			<point x="252" y="684" type="line"/>
			<point x="252" y="684" type="line"/>
			<point x="252" y="684" type="line"/>
			<point x="252" y="684" type="line"/>
			<point x="78" y="584" type="line"/>
			<point x="78" y="469" type="line"/>
			<point x="252" y="567" type="line"/>
			<point x="252" y="233" type="line" smooth="yes"/>
			<point x="252" y="185"/>
			<point x="225" y="127"/>
			<point x="180" y="96"/>
			<point x="119" y="86"/>
			<point x="84" y="86" type="qcurve" smooth="yes"/>
			<point x="57" y="86" type="line"/>
			<point x="57" y="0" type="line"/>
			<point x="639" y="0" type="line"/>
			<point x="639" y="86" type="line"/>
			<point x="612" y="86" type="line" smooth="yes"/>
			<point x="578" y="86"/>
			<point x="516" y="96"/>
			<point x="471" y="127"/>
			<point x="444" y="185"/>
			<point x="444" y="233" type="qcurve" smooth="yes"/>
			<point x="444" y="678" type="line"/>
			<point x="637" y="786" type="line"/>
			<point x="637" y="905" type="line"/>
			<point x="444" y="795" type="line"/>
			<point x="444" y="1556" type="line"/>
			<point x="57" y="1556" type="line"/>
			<point x="57" y="1470" type="line"/>
			<point x="84" y="1470" type="line" smooth="yes"/>
			<point x="118" y="1470"/>
			<point x="179" y="1461"/>
			<point x="225" y="1431"/>
			<point x="252" y="1376"/>
			<point x="252" y="1331" type="qcurve" smooth="yes"/>
		</contour>
	</outline>
</glyph>
